<?xml version="1.0" encoding="utf-8"?>
<!-- Generator: Adobe Illustrator 22.0.0, SVG Export Plug-In . SVG Version: 6.00 Build 0)  -->
<!DOCTYPE svg PUBLIC "-//W3C//DTD SVG 1.1//EN" "http://www.w3.org/Graphics/SVG/1.1/DTD/svg11.dtd">
<svg version="1.1" id="Layer_1" xmlns="http://www.w3.org/2000/svg" xmlns:xlink="http://www.w3.org/1999/xlink" x="0px" y="0px"
	 viewBox="0 0 30 30" style="enable-background:new 0 0 30 30;" xml:space="preserve">
<style type="text/css">
	.st0{fill:#C0C2CE;}
	.st1{fill:#EF3E4A;}
	.st2{fill:#C98A6B;}
</style>
<g>
	<g>
		<circle class="st0" cx="12.5" cy="6.5" r="1.5"/>
		<path class="st1" d="M12.5,0C8.9,0,6,2.9,6,6.5S8.9,13,12.5,13S19,10.1,19,6.5S16.1,0,12.5,0z M12.5,9C11.1,9,10,7.9,10,6.5
			S11.1,4,12.5,4S15,5.1,15,6.5S13.9,9,12.5,9z"/>
	</g>
	<path class="st2" d="M26.8,19.1c-1-0.7-2-1.1-3.1-1.1c-2.3,0-4.1,1.6-4.8,2.3c-1.4-0.9-2.7-1.3-4.1-1.3c-1.2,0-2.2,0.4-3,0.8
		c0.4-2.1-0.1-4.7-1.1-5.7l-0.6-0.4L10,13.6c-1.2-0.4-2.4-1.2-3.2-2.2c-0.1-0.2-0.4-0.2-0.5-0.1C6.1,11.4,6,11.5,6,11.7
		c-0.1,1.7-0.9,3.7-1.6,5.4C3.6,18.8,3,20.3,3,21.5c0,2.7,1.6,5.8,3.1,8.3C6.2,29.9,6.3,30,6.5,30h0.1c1.5-0.4,1.8-0.4,2.6-0.3
		c0.7,0.1,2,0.3,4.8,0.3c3.3,0,5.3-0.3,7.2-0.6c1.6-0.2,3.1-0.4,5.3-0.4c0.3,0,0.5-0.2,0.5-0.5v-9C27,19.3,26.9,19.2,26.8,19.1z"/>
</g>
</svg>
