<?xml version="1.0" encoding="utf-8"?>
<!-- Generator: Adobe Illustrator 22.0.0, SVG Export Plug-In . SVG Version: 6.00 Build 0)  -->
<!DOCTYPE svg PUBLIC "-//W3C//DTD SVG 1.1//EN" "http://www.w3.org/Graphics/SVG/1.1/DTD/svg11.dtd">
<svg version="1.1" id="Layer_1" xmlns="http://www.w3.org/2000/svg" xmlns:xlink="http://www.w3.org/1999/xlink" x="0px" y="0px"
	 viewBox="0 0 30 30" style="enable-background:new 0 0 30 30;" xml:space="preserve">
<style type="text/css">
	.st0{fill:#C6B6B5;}
	.st1{fill:#FF5035;}
	.st2{fill:#5A3C20;}
	.st3{fill:#C98A6B;}
	.st4{fill:#9C9CDD;}
	.st5{fill:#674B7C;}
</style>
<path class="st0" d="M5.6,6.3l3.5,3.5l0.7,0.7l2.8,2.8l0.7,0.7l1.7,1.7c0.2,0.2,0.2,0.5,0,0.7c-0.1,0.1-0.2,0.1-0.4,0.1
	s-0.3,0-0.4-0.1L13,15.2c0,0.1,0,0.2,0,0.3c0,1.4,1.1,2.5,2.5,2.5s2.5-1.1,2.5-2.5S16.9,13,15.5,13c-0.5,0-1,0.2-1.4,0.4l-0.7-0.7
	c0.6-0.4,1.3-0.7,2.1-0.7c1.9,0,3.5,1.6,3.5,3.5S17.4,19,15.5,19S12,17.4,12,15.5c0-0.4,0.1-0.8,0.2-1.2l-3-3C8.5,12.6,8,14,8,15.5
	c0,4.1,3.4,7.5,7.5,7.5s7.5-3.4,7.5-7.5S19.6,8,15.5,8c-1.9,0-3.6,0.7-4.9,1.9L9.9,9.2C11.4,7.8,13.3,7,15.5,7
	c4.7,0,8.5,3.8,8.5,8.5S20.2,24,15.5,24S7,20.2,7,15.5c0-1.8,0.6-3.5,1.5-4.8L5,7.1c-1.8,2.3-3,5.2-3,8.4s1.1,6.1,3,8.4l0.6,0.8
	c2.5,2.7,6,4.3,9.9,4.3s7.4-1.7,9.9-4.3l0.6-0.8c1.8-2.3,3-5.2,3-8.4C29,8.1,22.9,2,15.5,2C12,2,8.7,3.4,6.3,5.6L5.6,6.3z"/>
<path class="st1" d="M13.3,14l1.7,1.7c0.2,0.2,0.2,0.5,0,0.7c-0.1,0.1-0.2,0.1-0.4,0.1c-0.2,0-0.3,0-0.4-0.1L13,15.2
	c0,0.1,0,0.2,0,0.3c0,1.4,1.1,2.5,2.5,2.5s2.5-1.1,2.5-2.5S16.9,13,15.5,13c-0.5,0-1,0.2-1.4,0.4l-0.2-0.2
	C13.6,13.4,13.4,13.6,13.3,14L13.3,14z"/>
<path class="st2" d="M15.4,15.9c-0.1,0-0.3,0-0.4-0.1L5,5.7C4.8,5.5,4.8,5.2,5,5s0.5-0.2,0.7,0l10.1,10c0.2,0.2,0.2,0.5,0,0.7
	C15.7,15.8,15.5,15.9,15.4,15.9z"/>
<g>
	<path d="M6,25.1C6,25.1,6,25.1,6,25.1C6,25.1,6,25.1,6,25.1z"/>
	<path class="st3" d="M1.1,29.2c-0.2,0.2-0.1,0.5,0.1,0.7C1.3,30,1.4,30,1.5,30c0.2,0,0.3-0.1,0.4-0.2l3.7-5.1
		c0.1,0.1-0.3-0.4-0.6-0.8L1.1,29.2z"/>
	<path class="st4" d="M6,5.3V3.5c0-0.1-0.1-0.3-0.1-0.4l-3-3C2.7,0,2.5,0,2.3,0C2.1,0.1,2,0.3,2,0.5V2H0.5C0.3,2,0.1,2.1,0,2.3
		c0,0.2,0,0.4,0.1,0.6l3,3C3.2,5.9,3.4,6,3.5,6h1.8L6,5.3z"/>
	<path class="st3" d="M29.9,29.2L26,24c-0.2,0.3-0.7,0.8-0.6,0.7l3.7,5.1c0.1,0.1,0.3,0.2,0.4,0.2s0.2,0,0.3-0.1
		C30,29.7,30.1,29.4,29.9,29.2z"/>
</g>
<path class="st5" d="M6,5.3V3.5c0-0.1-0.1-0.3-0.1-0.4l-3-3C2.7,0,2.5,0,2.3,0C2.1,0.1,2,0.3,2,0.5V2l3.7,3.6L6,5.3z"/>
</svg>
