<?xml version="1.0" ?><svg height="512" id="Layer_1" version="1.1" viewBox="0 0 512 512" width="512" xml:space="preserve" xmlns="http://www.w3.org/2000/svg" xmlns:cc="http://creativecommons.org/ns#" xmlns:dc="http://purl.org/dc/elements/1.1/" xmlns:inkscape="http://www.inkscape.org/namespaces/inkscape" xmlns:rdf="http://www.w3.org/1999/02/22-rdf-syntax-ns#" xmlns:sodipodi="http://sodipodi.sourceforge.net/DTD/sodipodi-0.dtd" xmlns:svg="http://www.w3.org/2000/svg"><defs id="defs12"/><g id="g6623"><rect height="512" id="rect2987" style="fill:#000000;fill-opacity:1;fill-rule:nonzero;stroke:none" width="512" x="0" y="1.7053026e-013"/><path d="m 254.92444,336.92444 c 43.2889,-0.36 74.07112,-22.01333 92.33334,-64.95111 h 0.95556 v 65.48889 c 0,4.88 -0.32,12.44889 -0.95556,22.73333 -1.30222,10.64445 -4.78222,22.10223 -10.42666,34.36889 -5.65778,11.54667 -14.79112,21.38667 -27.37778,29.49778 -12.44889,8.84 -29.81778,13.44 -52.12001,13.80444 -21.48444,0 -39.65333,-5.59555 -54.52444,-16.77777 -15.2,-11.00889 -24.08001,-28.87111 -26.65778,-53.58667 h -18.89778 c 1.93778,32.11111 12.18667,55.02667 30.76444,68.74222 C 206.10666,449.40889 229.05778,456 256.85333,456 c 27.45778,0 48.87112,-5.14223 64.21778,-15.43111 15.18223,-9.92 26.08445,-22.28445 32.71556,-37.08 6.62222,-14.79111 10.58222,-28.86667 11.86667,-42.21334 0.98222,-13.35555 1.45778,-22.91555 1.45778,-28.68889 V 62.497785 h -18.90667 v 59.537775 h -0.95556 c -7.27555,-21.82667 -19.30666,-38.333335 -36.12,-49.524445 -16.96,-11.00445 -35.70222,-16.51111 -56.21333,-16.51111 -35.72001,0.72444 -62.85779,14.52444 -81.43112,41.40889 -19.07111,26.697775 -28.59556,59.631105 -28.59556,98.782195 0,40.23557 9.04445,73.52001 27.13334,99.86224 18.27555,26.88889 45.89778,40.51111 82.90222,40.87111 z M 186.58222,112.02667 c 14.85333,-24.359995 37.63111,-36.986665 68.34222,-37.888885 31.50223,0.90666 54.83556,13.17333 70.03556,36.808885 15.18223,23.64 22.77778,52.05331 22.77778,85.25331 0,33.2 -7.59555,61.43112 -22.77778,84.70668 -15.2,24.72444 -38.53333,37.34667 -70.03556,37.88889 -29.72889,-0.54667 -52.36,-12.81778 -67.86222,-36.80889 -15.67556,-23.27556 -23.50667,-51.87112 -23.50667,-85.79112 -0.004,-31.75556 7.67111,-59.81332 23.02667,-84.16887 z" id="Goodreads" style="fill:#ffffff;fill-opacity:1"/></g></svg>