<?xml version="1.0" encoding="UTF-8" standalone="no"?>
<svg
   xmlns:dc="http://purl.org/dc/elements/1.1/"
   xmlns:cc="http://creativecommons.org/ns#"
   xmlns:rdf="http://www.w3.org/1999/02/22-rdf-syntax-ns#"
   xmlns:svg="http://www.w3.org/2000/svg"
   xmlns="http://www.w3.org/2000/svg"
   xmlns:xlink="http://www.w3.org/1999/xlink"
   xmlns:sodipodi="http://sodipodi.sourceforge.net/DTD/sodipodi-0.dtd"
   xmlns:inkscape="http://www.inkscape.org/namespaces/inkscape"
   id="Layer_1"
   data-name="Layer 1"
   viewBox="0 0 723.15005 739.94125"
   version="1.1"
   sodipodi:docname="collecture_lockup.svg"
   width="723.15002"
   height="739.94122"
   inkscape:version="0.92.0 r15299">
  <metadata
     id="metadata46">
    <rdf:RDF>
      <cc:Work
         rdf:about="">
        <dc:format>image/svg+xml</dc:format>
        <dc:type
           rdf:resource="http://purl.org/dc/dcmitype/StillImage" />
      </cc:Work>
    </rdf:RDF>
  </metadata>
  <sodipodi:namedview
     pagecolor="#ffffff"
     bordercolor="#666666"
     borderopacity="1"
     objecttolerance="10"
     gridtolerance="10"
     guidetolerance="10"
     inkscape:pageopacity="0"
     inkscape:pageshadow="2"
     inkscape:window-width="3360"
     inkscape:window-height="2100"
     id="namedview44"
     showgrid="false"
     inkscape:zoom="0.90028971"
     inkscape:cx="355.22998"
     inkscape:cy="338.23002"
     inkscape:window-x="0"
     inkscape:window-y="0"
     inkscape:window-maximized="0"
     inkscape:current-layer="Layer_1" />
  <defs
     id="defs9">
    <style
       id="style2">.cls-1{fill:url(#linear-gradient);}.cls-2{fill:#39beca;}</style>
    <linearGradient
       id="linear-gradient"
       x1="446.41"
       y1="622.20001"
       x2="1022.56"
       y2="622.20001"
       gradientTransform="rotate(0.23,446.58003,332.91475)"
       gradientUnits="userSpaceOnUse">
      <stop
         offset="0"
         stop-color="#39beca"
         id="stop4" />
      <stop
         offset="1"
         stop-color="#4bddad"
         id="stop6" />
    </linearGradient>
    <linearGradient
       inkscape:collect="always"
       xlink:href="#linear-gradient"
       id="linearGradient3828"
       gradientUnits="userSpaceOnUse"
       gradientTransform="rotate(0.23,82857.717,-94012.063)"
       x1="446.41"
       y1="622.20001"
       x2="1022.56"
       y2="622.20001" />
    <linearGradient
       inkscape:collect="always"
       xlink:href="#linear-gradient"
       id="linearGradient3830"
       gradientUnits="userSpaceOnUse"
       gradientTransform="rotate(0.23,82857.717,-94012.063)"
       x1="446.41"
       y1="622.20001"
       x2="1022.56"
       y2="622.20001" />
    <linearGradient
       inkscape:collect="always"
       xlink:href="#linear-gradient"
       id="linearGradient3832"
       gradientUnits="userSpaceOnUse"
       gradientTransform="rotate(0.23,82857.717,-94012.063)"
       x1="446.41"
       y1="622.20001"
       x2="1022.56"
       y2="622.20001" />
    <linearGradient
       inkscape:collect="always"
       xlink:href="#linear-gradient"
       id="linearGradient3834"
       gradientUnits="userSpaceOnUse"
       gradientTransform="rotate(0.23,82857.717,-94012.063)"
       x1="446.41"
       y1="622.20001"
       x2="1022.56"
       y2="622.20001" />
    <linearGradient
       inkscape:collect="always"
       xlink:href="#linear-gradient"
       id="linearGradient3836"
       gradientUnits="userSpaceOnUse"
       gradientTransform="rotate(0.23,82857.717,-94012.063)"
       x1="446.41"
       y1="622.20001"
       x2="1022.56"
       y2="622.20001" />
  </defs>
  <title
     id="title11">lockup</title>
  <path
     class="cls-1"
     d="M 586.85,162.53123 A 265.25,265.25 0 0 0 332.75,30.251232 268.61,268.61 0 0 0 89.16,308.79123 a 272.21,272.21 0 0 0 269.78,260.36 275.82,275.82 0 0 0 276.87,-260.13 278.84,278.84 0 0 0 -14,-104.07 2.74,2.74 0 0 1 5.17,-1.78 285.45,285.45 0 0 1 -161.39,358.89 289,289 0 0 1 -371,-145.46 293.76,293.76 0 0 1 346.73,-405.529998 297,297 0 0 1 174.94,134.349998 17.011152,17.011152 0 0 1 -29.26,17.36 l -0.1,-0.17 z"
     id="path13"
     inkscape:connector-curvature="0"
     style="fill:url(#linearGradient3828)" />
  <path
     class="cls-1"
     d="M 564.1,224.84123 A 218.92,218.92 0 0 0 297.43,83.651232 222.5,222.5 0 0 0 140.84,347.33123 a 226.12,226.12 0 0 0 259.81,172 228.65,228.65 0 0 0 144.34,-89.46 230.45,230.45 0 0 0 43.15,-165.57 2.74,2.74 0 0 1 5.42,-0.75 238.19,238.19 0 0 1 -106.47,234.21 241.53,241.53 0 0 1 -326.82,-62.28 245.13,245.13 0 0 1 46.87,-334.35 248.74,248.74 0 0 1 341.15,30.9 251.62,251.62 0 0 1 48,81.73 17.010222,17.010222 0 0 1 -32.05,11.41 l -0.08,-0.23 z"
     id="path15"
     inkscape:connector-curvature="0"
     style="fill:url(#linearGradient3830)" />
  <path
     class="cls-1"
     d="m 527.61,272.56123 a 171.68,171.68 0 0 0 -7,-31.63 176.87,176.87 0 0 0 -12.87,-29.83 170.55,170.55 0 0 0 -41.37,-49.92 174.17,174.17 0 0 0 -239,18 176.74,176.74 0 0 0 -45.71,122.83 179.5,179.5 0 0 0 242.67,162.97 c 2.69,-1 5.45,-1.93 8.08,-3.11 l 7.86,-3.63 c 1.31,-0.61 2.63,-1.19 3.92,-1.84 l 3.78,-2.11 7.57,-4.22 c 9.71,-6.23 19.29,-12.83 27.72,-20.79 a 170.83,170.83 0 0 0 12.35,-12.23 l 1.51,-1.57 1.38,-1.68 2.77,-3.35 2.78,-3.35 1.39,-1.68 c 0.45,-0.57 0.85,-1.18 1.28,-1.76 3.34,-4.75 6.88,-9.38 9.74,-14.45 l 2.27,-3.73 c 0.75,-1.25 1.55,-2.47 2.17,-3.78 l 4,-7.77 c 1.41,-2.55 2.46,-5.27 3.61,-7.95 1.15,-2.68 2.36,-5.33 3.34,-8.07 l 2.83,-8.27 c 0.44,-1.39 1,-2.74 1.35,-4.16 l 1.11,-4.23 c 0.72,-2.83 1.53,-5.63 2.18,-8.48 l 1.6,-8.61 c 0.26,-1.44 0.56,-2.87 0.78,-4.31 l 0.48,-4.36 1,-8.72 v -0.2 a 2.7333679,2.7333679 0 0 1 5.44,0.54 l -0.77,9 -0.39,4.51 c -0.18,1.5 -0.46,3 -0.69,4.47 l -1.43,8.94 c -0.6,3 -1.36,5.88 -2,8.82 l -1,4.41 c -0.32,1.48 -0.87,2.89 -1.29,4.34 l -2.72,8.65 c -1,2.87 -2.18,5.64 -3.26,8.46 -1.08,2.82 -2.15,5.66 -3.55,8.35 l -3.94,8.18 c -0.62,1.39 -1.41,2.68 -2.16,4 l -2.26,3.94 c -2.86,5.36 -6.41,10.28 -9.78,15.32 -0.43,0.62 -0.83,1.27 -1.29,1.87 l -1.4,1.79 -2.81,3.58 -2.94,3.54 -1.41,1.79 -1.53,1.68 a 179.67,179.67 0 0 1 -12.62,13.14 c -8.65,8.57 -18.53,15.78 -28.62,22.6 l -7.82,4.66 -4,2.33 c -1.34,0.72 -2.73,1.36 -4.09,2 l -8.21,4 c -2.75,1.32 -5.64,2.33 -8.45,3.5 a 189.12,189.12 0 0 1 -71.65,14 194.8,194.8 0 0 1 -134,-53.72 197.76,197.76 0 0 1 46.55,-318.23 201.67,201.67 0 0 1 266.73,78.15 205.18,205.18 0 0 1 25.51,72.68 v 0.05 a 17.014667,17.014667 0 0 1 -33.66,5 z"
     id="path17"
     inkscape:connector-curvature="0"
     style="fill:url(#linearGradient3832)" />
  <path
     class="cls-1"
     d="m 475.59,255.31123 a 123.63,123.63 0 0 0 -56.35,-69.52 125.78,125.78 0 0 0 -89.71,-13.82 128.89,128.89 0 0 0 -43,18.13 127.25,127.25 0 0 0 -33.83,32.59 129.84,129.84 0 0 0 -23.11,90.45 132.06,132.06 0 0 0 44.23,83.7 133.66,133.66 0 0 0 90.12,32.69 135.57,135.57 0 0 0 48.27,-10 135.72,135.72 0 0 0 71.12,-67.21 142.05,142.05 0 0 0 13,-48.55 v 0 a 2.74,2.74 0 0 1 5.46,0.37 146.56,146.56 0 0 1 -273.69,63.48 151.3,151.3 0 0 1 44.2,-198.2 154.31,154.31 0 0 1 161.64,-10.32 156.44,156.44 0 0 1 44.79,35.54 156.72,156.72 0 0 1 29.07,49.6 v 0.09 a 17.01711,17.01711 0 0 1 -32,11.59 c -0.07,-0.19 -0.15,-0.43 -0.21,-0.61 z"
     id="path19"
     inkscape:connector-curvature="0"
     style="fill:url(#linearGradient3834)" />
  <path
     class="cls-1"
     d="m 405.31,234.50123 a 77.66,77.66 0 0 0 -47.37,-17.4 79.83,79.83 0 0 0 -49.16,15.79 81.23,81.23 0 0 0 -29.62,43.68 82.83,82.83 0 0 0 3.63,53.85 84.32,84.32 0 0 0 36.74,41 86.18,86.18 0 0 0 55.41,9.9 89,89 0 0 0 50.78,-26.83 91,91 0 0 0 24,-53.46 v 0 a 2.74,2.74 0 0 1 5.46,0.36 97.58,97.58 0 0 1 -47.41,80.23 99.88,99.88 0 0 1 -95.62,4.16 102.32,102.32 0 0 1 -47.26,-47.18 104.43,104.43 0 0 1 -8.35,-67.41 106.35,106.35 0 0 1 35.51,-59.27 108.48,108.48 0 0 1 65.56,-25.25 109.93,109.93 0 0 1 68.28,20.75 l 0.21,0.15 a 17.026109,17.026109 0 1 1 -20,27.56 c -0.25,-0.19 -0.55,-0.42 -0.79,-0.63 z"
     id="path21"
     inkscape:connector-curvature="0"
     style="fill:url(#linearGradient3836)" />
  <path
     class="cls-2"
     d="M 73.44,720.73123 A 39.54,39.54 0 0 1 0,700.42123 c 0,-21.44 17.44,-40 39.52,-40 a 39.79,39.79 0 0 1 33.76,19.2 l -9.12,5.12 a 29.12,29.12 0 0 0 -24.8,-14.24 c -16.32,0 -28.32,14.24 -28.32,29.92 0,16 12.32,29.44 28.8,29.44 a 28.12,28.12 0 0 0 24.64,-14.24 z"
     id="path23"
     inkscape:connector-curvature="0"
     style="fill:#39beca" />
  <path
     class="cls-2"
     d="m 125.76,739.93123 a 39.81,39.81 0 0 1 -39.52,-39.51 c 0,-21.44 17.44,-40 39.36,-40 21.76,0 39.84,18.24 39.84,39.84 a 40,40 0 0 1 -39.68,39.67 z m 28.64,-39.84 c 0,-16.32 -12.64,-29.6 -28.64,-29.6 -16.48,0 -28.48,14.08 -28.48,29.92 0,16 12.32,29.44 28.64,29.44 16.64,0 28.48,-14.08 28.48,-29.76 z"
     id="path25"
     inkscape:connector-curvature="0"
     style="fill:#39beca" />
  <path
     class="cls-2"
     d="m 214.07,738.81123 a 30.29,30.29 0 0 1 -8.16,1.12 c -10.72,0 -18.08,-6.88 -18.08,-20.48 v -100.03 h 11.2 v 94.72 c 0,11.36 2.4,15.52 10.56,15.52 a 23.46,23.46 0 0 0 4.48,-0.32 z"
     id="path27"
     inkscape:connector-curvature="0"
     style="fill:#39beca" />
  <path
     class="cls-2"
     d="m 256.94,738.81123 a 30.29,30.29 0 0 1 -8.16,1.12 c -10.72,0 -18.08,-6.88 -18.08,-20.48 v -100.03 h 11.24 v 94.72 c 0,11.36 2.4,15.52 10.56,15.52 a 23.46,23.46 0 0 0 4.44,-0.24 z"
     id="path29"
     inkscape:connector-curvature="0"
     style="fill:#39beca" />
  <path
     class="cls-2"
     d="m 278.55,704.42123 c 1.76,14.08 13.44,25.44 28.16,25.44 a 29.23,29.23 0 0 0 23.68,-12.32 l 8.32,5.92 a 39.11,39.11 0 0 1 -31.84,16.48 39.78,39.78 0 0 1 -39.68,-39.68 c 0,-21.28 16.8,-39.84 39,-39.84 22.08,0 38.88,18.4 38.88,39.84 v 4.16 z m 55,-10.08 c -2.24,-13.28 -12.8,-23.84 -27.36,-23.84 -14.56,0 -25,10.56 -27.52,23.84 z"
     id="path31"
     inkscape:connector-curvature="0"
     style="fill:#39beca" />
  <path
     class="cls-2"
     d="m 433.75,720.73123 a 39.54,39.54 0 0 1 -73.44,-20.31 c 0,-21.44 17.44,-40 39.52,-40 a 39.79,39.79 0 0 1 33.76,19.2 l -9.12,5.12 a 29.12,29.12 0 0 0 -24.8,-14.24 c -16.32,0 -28.32,14.24 -28.32,29.92 0,16 12.32,29.44 28.8,29.44 a 28.12,28.12 0 0 0 24.64,-14.24 z"
     id="path33"
     inkscape:connector-curvature="0"
     style="fill:#39beca" />
  <path
     class="cls-2"
     d="m 484.15,738.33123 a 31.21,31.21 0 0 1 -10.24,1.6 c -17.12,0 -20.16,-10.88 -20.16,-20.48 v -47.52 h -12 v -10.08 h 12 v -25.76 h 11.19 v 25.76 h 21.12 v 10.08 h -21.12 v 42.24 c 0,11.36 2.4,15.52 10.56,15.52 a 26.93,26.93 0 0 0 8.64,-1.44 z"
     id="path35"
     inkscape:connector-curvature="0"
     style="fill:#39beca" />
  <path
     class="cls-2"
     d="m 558.23,661.85123 h 11.2 v 45.44 c 0,23.84 -12.32,32.64 -33.44,32.64 -21.12,0 -33.44,-8.8 -33.44,-32.64 v -45.44 h 11.2 v 42.24 c 0,15.68 4.16,25.76 22.24,25.76 18.08,0 22.24,-10.08 22.24,-25.76 z"
     id="path37"
     inkscape:connector-curvature="0"
     style="fill:#39beca" />
  <path
     class="cls-2"
     d="m 608.31,737.85123 h -11.2 v -76 h 11.2 v 12.48 c 7.36,-12.16 15,-13.92 29.76,-13.92 v 10.4 c -25.12,0 -29.76,13.44 -29.76,26.56 z"
     id="path39"
     inkscape:connector-curvature="0"
     style="fill:#39beca" />
  <path
     class="cls-2"
     d="m 656.63,704.42123 c 1.76,14.08 13.44,25.44 28.16,25.44 a 29.23,29.23 0 0 0 23.68,-12.32 l 8.32,5.92 a 39.11,39.11 0 0 1 -31.84,16.48 39.78,39.78 0 0 1 -39.68,-39.68 c 0,-21.28 16.8,-39.84 39,-39.84 22.08,0 38.88,18.4 38.88,39.84 v 4.16 z m 55,-10.08 c -2.24,-13.28 -12.8,-23.84 -27.36,-23.84 -14.56,0 -25,10.56 -27.52,23.84 z"
     id="path41"
     inkscape:connector-curvature="0"
     style="fill:#39beca" />
</svg>
