<?xml version="1.0" encoding="UTF-8" standalone="no"?>
<svg
   xmlns:dc="http://purl.org/dc/elements/1.1/"
   xmlns:cc="http://creativecommons.org/ns#"
   xmlns:rdf="http://www.w3.org/1999/02/22-rdf-syntax-ns#"
   xmlns:svg="http://www.w3.org/2000/svg"
   xmlns="http://www.w3.org/2000/svg"
   id="svg8"
   version="1.1"
   viewBox="0 0 175.30977 186.248"
   height="186.248mm"
   width="175.30977mm">
  <defs
     id="defs2" />
  <metadata
     id="metadata5">
    <rdf:RDF>
      <cc:Work
         rdf:about="">
        <dc:format>image/svg+xml</dc:format>
        <dc:type
           rdf:resource="http://purl.org/dc/dcmitype/StillImage" />
        <dc:title></dc:title>
      </cc:Work>
    </rdf:RDF>
  </metadata>
  <g
     transform="translate(-15.682215,-31.820325)"
     id="layer1">
    <g
       transform="translate(135.62933,114.67949)"
       id="g91">
      <path
         id="path97"
         d="m -95.62496,103.10389 c -4.81931,-0.65034 -2.421395,-6.870553 -4.07795,-7.137455 7.898961,0.560843 13.050622,-1.900552 12.625426,-10.300471 0.383182,5.096443 2.083872,5.251942 1.358524,1.27 1.732169,2.990205 5.682325,1.985673 7.351766,4.212001 9.827019,-2.090173 18.738021,-9.256638 28.063313,-13.595636 8.186251,-4.64304 16.679251,-8.80916 24.648367,-13.798913 -1.105908,-7.325581 -6.202355,-7.614077 -11.569816,-5.079389 -4.469317,1.613331 -8.053636,0.633875 -12.432138,3.150581 -12.927041,6.869471 -25.247575,15.291619 -38.078717,22.102212 -8.06346,1.319329 -17.212735,1.387957 -25.160775,-1.092063 -7.74993,-4.458534 8.88267,-7.972826 -2.16951,-9.203341 -5.63807,-4.509557 7.75402,2.301014 10.40781,0.809726 13.021139,-1.766742 25.3249,-7.023737 38.021583,-10.331806 12.235054,-3.664059 24.466749,-7.343762 36.62524,-11.255837 2.641351,0.461083 6.920935,-10.986725 -0.20996,-9.398718 -5.844067,0.979453 -12.44182,-1.815966 -14.993856,2.711032 -3.504643,0.992029 -4.898355,-0.757509 -6.733418,2.590318 -3.545346,1.168959 -5.057952,-1.297187 -6.957949,2.416894 -2.860757,2.116222 -5.681962,-2.28456 -6.429739,2.60279 -3.554693,1.165814 -6.161869,-1.561192 -7.512082,2.599801 -2.422672,2.263206 -5.950499,-2.543326 -6.10618,2.499335 -3.34156,2.082336 -6.382783,-1.832725 -7.330572,2.778686 -3.667513,1.635451 -6.038838,-2.090052 -7.65901,2.309437 -2.944539,2.517433 -6.155667,-2.800061 -6.649697,2.841356 -3.29896,2.401789 -6.91261,-3.751901 -7.17332,2.559829 -2.11371,-4.137313 0.21205,-11.549912 3.45208,-15.956573 -8.14888,-0.468156 -2.82381,-2.488846 -2.34006,-5.921706 -5.71672,-3.821378 -5.56353,-8.210207 -0.75018,-12.622698 3.13845,-4.329685 -10.4453,-3.794098 -1.5376,-3.553398 8.00792,-1.562664 3.20913,17.634498 11.572784,7.321998 5.525855,-9.877863 18.301939,-0.08638 24.101879,-9.981337 4.047215,-5.08969 -0.107179,-3.514801 -4.381027,-3.595694 -4.140141,0.09843 -12.111838,1.762675 -7.434216,-4.888578 -2.922078,-2.968532 -1.389839,-9.135801 2.032,-4.478843 -5.05547,-4.457319 -1.240128,-2.164419 2.015617,-3.087817 -4.513553,-1.180499 -12.157544,-2.010424 -15.739742,-0.530228 -0.127279,4.729742 -9.431655,17.827963 -5.209345,6.098954 3.73863,-6.150779 2.619972,-9.7049624 -4.71404,-9.6954271 -3.8183,-0.1269156 -17.00472,-6.4931456 -12.11572,-7.93212521 8.42324,5.94045341 18.970885,6.28796801 28.777503,7.84593341 8.428707,1.1649814 16.538831,-2.1143853 19.190625,-10.0160161 4.412876,-1.1009297 6.466582,4.0076365 10.131272,-0.3196934 9.636904,-0.9041945 19.399787,-0.51463 28.985107,-1.9283306 -4.055928,-9.305604 -14.664647,-3.0386186 -22.105349,-4.9604855 -3.018864,-6.5756875 -5.948799,0.2974116 -7.767111,0.5347537 7.169638,-7.1138962 -12.873164,-5.6899652 -4.794491,-14.5728402 3.803489,-8.375279 -12.93499,-3.455669 -10.181095,-12.108225 -3.165668,4.378545 -4.105063,4.458539 -1.376099,-0.600914 3.056538,-5.947075 -9.241158,-6.497872 -12.305741,-8.193111 -7.913386,3.557691 -13.827931,12.520313 -23.169451,11.620223 -2.64967,-7.868852 8.51752,-8.863616 8.63874,-5.467205 9.584531,-6.458938 19.273802,-12.772978 28.752351,-19.386617 -5.14974,0.746889 -14.571449,1.939864 -11.153432,-2.698666 -6.001232,0.666248 -8.421494,-8.98431 -2.276989,-2.331438 6.409576,0.350648 13.28865,-0.378705 19.487383,-2.295855 -3.971799,-8.227115 2.546363,-17.8523 11.35296,-18.391821 10.575166,-1.410161 16.535748,9.016594 23.415384,15.099177 6.566746,6.671941 13.134847,13.357823 19.54266,20.171754 2.390607,0.687092 4.335239,8.109477 8.1754313,4.329503 10.3422701,-4.999761 19.3262567,-12.398425 29.6461887,-17.518605 3.031534,-1.752577 17.556223,-10.837517 9.115065,-3.693048 -10.893027,7.680268 -22.3728245,14.495428 -33.6774277,21.517744 6.6574765,-0.0543 11.2698563,-4.481549 16.4038807,-7.266571 5.554159,0.643131 6.37797,-9.811569 12.614316,-4.198493 7.600708,0.705221 7.989173,8.422288 1.33955,11.474714 -2.762231,8.928632 -14.226204,5.424046 -21.2021649,8.644675 -4.2998403,0.774432 -11.5136122,1.096962 -4.9005234,5.561478 6.2826505,3.842586 15.4405043,-1.846435 22.8562863,-1.988888 3.383072,-0.91009 11.604279,-0.518699 7.135543,-6.075786 3.246429,1.030397 16.39184,-0.838851 10.385867,4.300635 -5.718534,1.565802 -15.921793,2.659042 -18.91983,4.613229 6.364756,2.794849 18.507251,-0.202053 21.536178,6.380193 -5.559798,6.719141 -14.002801,-0.6824 -21.527319,0.09446 -4.806521,-0.9241 -20.267074,-3.598446 -11.069437,3.882206 7.883132,2.620081 16.911915,2.406616 25.259561,3.834866 2.929534,-0.206559 9.883392,1.426206 2.841191,1.877078 -4.247177,0.05432 -19.496399,-2.193385 -7.20008,1.580601 5.017589,0.330905 18.226018,6.2694595 7.202264,9.0200423 -4.989182,0.38348027 -14.330549,2.9473174 -6.996056,8.3341224 9.078944,4.1205803 16.172248,11.0320383 18.955498,20.7520313 8.318589,7.856786 -2.736056,15.132072 -4.807867,22.97278 -8.362906,4.88936 -14.604748,11.871016 -13.810333,22.378202 0.858169,9.621003 -10.922375,17.692074 -18.071587,9.469537 -1.220461,-5.444265 -3.866756,-10.7186 -9.9074763,-5.83464 -10.8112715,2.257427 -16.4695197,13.105368 -26.2958527,17.34679 -5.397217,3.77175 -17.012659,5.762034 -16.949319,-2.815491 -2.983894,-2.14013 3.263047,-11.685437 -4.391179,-6.192551 -14.696587,6.617542 -28.648307,16.337616 -45.041971,17.965636 -2.879827,0.0249 -5.795419,0.30167 -8.652394,-0.18397 z m 10.215329,-9.452501 c 4.508523,-3.143477 -6.739696,1.405212 0,0 z m 3.373671,-1.381425 c -0.991408,-0.927896 -0.991408,0.927896 0,0 z m -4.577095,-1.149139 c -1.196956,-1.091645 0.293114,1.374539 0,0 z m 53.283675,-1.543987 c 5.164956,-1.859532 14.712231,-4.683527 8.379121,-10.797573 -0.02233,-4.458057 -0.176165,-10.765542 -4.985476,-5.020167 -2.282558,3.057008 -14.668107,20.320164 -3.393645,15.81774 z m 16.882545,-10.698562 c 4.993147,-2.489768 -7.501392,-7.218588 -2.978125,-0.222426 -0.21757,3.641352 2.062427,1.125052 2.978125,0.222426 z M 23.780516,76.073575 C 28.991472,64.478942 26.17638,51.312286 26.681552,38.997467 25.468531,33.949295 29.975589,19.089799 20.442045,26.176223 14.955891,28.720259 3.0488001,21.373449 4.1749395,30.801961 c 5.7285011,3.132772 -7.4913277,4.505668 -1.3000155,10.01802 0.6095852,3.707467 2.568991,-6.771838 7.0114135,-1.991522 10.0480005,2.24337 8.5778525,14.128477 4.6878055,21.084085 -2.347128,7.645422 -3.590569,19.188398 7.49483,16.301551 l 1.711543,-0.140523 z m 1.451031,-8.900395 c -3.776965,-5.837823 -4.438942,-21.947404 0.575194,-23.232706 0.517099,7.382237 1.972125,16.791935 -0.575194,23.232706 z m -28.4314823,0.469006 c 2.81621073,-2.908027 5.0612011,3.72572 7.0373231,-2.90106 C 5.6486711,62.472998 10.142623,51.910115 7.8188006,52.66665 4.4917393,60.405994 -2.2881719,68.200621 -11.638156,66.947479 c -3.208697,-1.536284 -3.993409,-12.422069 -2.830815,-2.998516 -0.556568,2.414267 -3.000991,-9.403693 -1.657606,-1.27 1.608845,11.150317 -6.379627,-19.949401 -2.913682,-5.715001 1.340112,4.000922 1.385236,10.052683 -0.300534,2.570094 -0.922986,-4.678651 -3.204882,-9.413608 -1.030719,-1.577657 2.139353,4.758834 1.032742,8.737369 -3.281904,3.198891 -1.815022,-2.276586 -5.705362,-10.417849 -3.601213,-2.520893 4.049493,8.559926 15.509976,11.321478 24.0546937,9.007789 z m -8.4877297,-2.19475 c -0.484849,-4.224509 -3.675568,-11.205018 -1.485089,-3.13446 -0.192256,0.514773 1.459207,6.105827 1.485089,3.13446 z m 1.27814,-1.068964 c -1.351792,-7.201378 -2.706933,-3.907285 -0.232475,0.796338 z m -10.2072,-2.939532 c -2.265294,-5.809986 1.342624,6.241666 0,0 z m 12.494765,0.14557 c -1.0479337,-3.252105 -0.8324338,1.209694 0,0 z m -4.29418,-3.682328 c -1.038791,-0.05706 0.82953,2.052918 0,0 z m -11.96182,0.07778 c -0.626438,-0.90482 -0.307178,0.928663 0,0 z m 2.71351,-0.301625 c -0.435488,-0.436702 0.219293,1.420004 0,0 z m 7.31949,-1.476375 c -1.001872,-1.596239 0.418834,2.193552 0,0 z m 1.375021,-0.04107 c -1.184201,-1.358918 0.764254,2.234093 0,0 z m -9.202511,-0.260556 c -0.435487,-0.436703 0.219293,1.420001 0,0 z m -2.71351,0.04762 c -0.626438,-0.90482 -0.307178,0.928663 0,0 z m 2.413,-1.524 c -1.001872,-1.596239 0.418834,2.193552 0,0 z m 7.41251,-0.04763 c -0.435487,-0.436703 0.219293,1.420001 0,0 z m 6.7154958,-1.139825 c -0.9253838,-1.162452 0.6894482,1.874043 0,0 z M -9.74756,53.001562 c -0.987782,-1.168085 0.3900422,1.760342 0,0 z m -1.645394,-0.27305 c -0.925385,-1.162452 0.689449,1.874043 0,0 z m -4.320431,-0.409575 c -0.931422,-0.364962 0.690946,1.692119 0,0 z m 6.6002332,-1.569977 c -2.6481562,-7.651997 0.189523,4.463687 0,0 z m 2.991485,0.492872 c -1.4184321,-4.969982 1.7453854,1.928998 1.3864971,-1.67627 2.9482421,5.191312 -0.998856,-4.821059 2.2682276,0.790857 -1.0726723,-4.630063 2.11763458,1.409454 0.7476996,-3.736226 1.2781186,1.13502 -2.9038801,-5.107793 -0.8479382,-6.010402 -8.8053923,-4.503851 -21.8608603,-0.754661 -24.3705433,9.536357 4.667658,-3.424705 14.279181,-7.639056 18.8330792,-5.236487 3.016744,2.521272 -4.4565932,2.947731 0.6139942,6.720303 -1.4854761,-5.583578 2.1456677,2.599138 1.3689838,-0.38813 z m -5.7953532,-0.54549 c -1.950888,-4.855332 0.59649,4.352369 0,0 z m 1.608928,0.635261 c -1.827915,-6.327213 -1.285793,0.434921 0,0 z m -4.51482,-0.377685 c -1.404917,-1.595641 1.157348,2.697585 0,0 z M -88.65644,40.600817 c 4.983232,-0.314987 5.905234,-6.515974 0.5807,-1.747244 -0.702266,0.273773 -3.068268,2.619063 -0.5807,1.747244 z m 16.516493,-1.90389 c 6.855315,-3.840057 17.479402,-5.079889 18.157436,-14.724183 -6.812887,-3.864098 -15.802292,-1.765525 -15.491287,6.702217 0.643353,2.686883 -10.183847,12.210476 -2.666149,8.021966 z m 5.420715,-8.05857 c -5.057087,-7.965769 10.011125,-0.940316 1.701272,-0.133896 1.380001,-4.583106 -0.195785,0.454843 -1.701272,0.133896 z m 17.576272,5.557216 c 5.799705,-4.054917 -7.178728,-10.107552 -5.397525,-2.811334 -5.476013,4.242978 3.383651,2.481794 5.397525,2.811334 z m 37.301206,-1.757259 c -4.923012,-3.580021 -15.827766,-3.469268 -23.295685,-3.103143 -4.683769,-2.08751 -15.42329,4.006756 -5.28074,3.585989 9.510762,-0.175139 19.111288,0.375186 28.576425,-0.482846 z m 7.2094213,-0.871703 c 3.4902607,-4.405107 -5.262931,1.362291 0,0 z M -6.2166323,26.73743 C -10.865778,17.233678 -22.451685,17.822348 -31.140262,14.889909 c -4.619571,-0.986729 -10.879497,-2.559431 -5.348097,-3.599585 -6.605547,0.579881 -12.929573,-0.703276 -19.322096,-2.7248686 -4.477048,-1.2390921 -6.004452,-5.7448625 -10.740554,-3.4210957 -4.3176,-7.3953852 -7.514504,4.5803589 -12.567596,5.0777093 24.202796,5.536441 48.355076,11.345584 72.596518,16.727962 l 0.3054547,-0.212592 z M 9.40404,18.892901 c -3.4167194,-2.543219 -2.1607687,0.04887 0,0 z m 33.051852,-1.493426 c -2.953593,-3.231136 -2.270948,-0.58425 0.129155,0.356693 z m 0.359592,-1.566616 c -1.182857,-1.092091 0.252748,1.362394 0,0 z m -9.942022,-1.438834 c -0.611223,-3.471556 -2.118628,0.294642 0,0 z M -29.71196,13.27596 c -0.651039,-0.940788 -0.976443,0.910642 0,0 z m 61.887908,-2.930804 c 4.760786,-1.4315167 -3.281003,-4.5173473 -0.21983,0.374343 z m -64.49295,-1.9246246 c 5.198215,-4.6598165 -6.48337,-3.6677377 -5.57185,0.2282736 1.858352,0.1090203 3.728721,0.035089 5.57185,-0.2282736 z M -42.559735,2.4537841 c 3.314962,-1.75929014 6.960528,-2.30834148 0.557835,-2.2687284 -3.837718,-0.2091399 -12.824396,1.4659823 -4.153766,1.4619393 1.133217,0.4795246 2.285399,1.3495308 3.595931,0.8067891 z m 6.932722,-1.4419149 c 0.164937,-2.4855543 -4.366171,1.6068044 0,1.01e-5 z M -52.458422,-28.316542 c -2.91822,-3.641174 2.004019,3.416894 0,0 z m -12.305538,-0.02641 c -3.15918,-3.254863 -3.095422,-2.842488 0.508,-3.306422 -2.329181,-2.438633 -17.20177,-5.465202 -7.006566,-1.535238 3.374039,0.469336 2.018501,5.552581 6.498566,4.84166 z m -44.31484,-6.501128 c 3.92043,-3.492951 -4.15819,1.979632 0,0 z m 108.4543358,-2.166993 c -4.7881159,-2.534484 -1.8113238,2.30414 0,0 z M -64.00196,-39.909867 c -0.818784,-1.777662 -0.956582,1.291835 0,0 z m -6.708468,-1.235042 c 1.100777,-4.094737 0.04496,-10.360938 -2.63807,-3.160241 -2.476375,3.766784 -1.60943,3.702014 2.63807,3.160241 z m 79.30481,-1.949059 c -3.3852589,-2.770918 -2.4018387,2.231707 0,0 z m 9.699658,-4.804708 c -2.014162,-4.272685 -7.084892,0.107996 -0.501702,0.68339 l 0.400315,-0.152949 z m -79.248,-0.176989 c -4.039595,-2.618599 -5.782551,-1.369406 0,0 z m 81.026,-2.783378 c -0.629749,-1.338322 -0.629749,1.338322 0,0 z m -60.029728,-0.560654 c 4.187527,2.982329 7.478924,-10.359452 4.220421,-3.548249 -1.894281,5.917091 -10.788392,3.480756 -12.627625,-1.625876 -3.926453,-1.286458 1.227681,-6.726164 -2.682613,-1.659692 4.315401,2.370119 5.213359,9.128965 11.089817,6.833817 z m 63.331728,-0.963346 c 6.94218,-1.184202 -5.552105,-0.608319 0,0 z m -63.308847,-3.213753 c 0.909563,-4.280843 -0.933822,-3.912743 -4.669813,-3.970771 1.382944,2.54717 -2.787579,4.609958 2.740862,3.412935 0.264374,0.722128 1.280036,1.189821 1.928951,0.557836 z m -28.893153,-2.120248 c -2.915406,-1.382151 -0.508228,0.880223 0,-3.8e-5 z M -84.522435,87.634464 c -2.137879,-4.334261 3.971323,1.705122 0,0 z M -115.56396,30.84479 c 0.59539,-1.62328 1.44563,0.08517 0,0 z m 6.096,-3.349589 c 8.58008,-1.722432 -3.65751,-10.35763 5.27809,-12.729147 4.01496,-1.540553 -2.43708,9.620836 -0.37441,11.640094 -1.37386,0.148772 -4.05568,1.349485 -4.90368,1.089053 z m 9.936079,-0.94774 c -0.951649,-1.868627 -7.612409,0.640479 -1.585999,-1.437799 3.868351,-0.65006 16.218908,-0.267362 6.152885,0.37274 -1.709378,-0.165882 -2.772648,2.014483 -4.566886,1.065059 z M -83.24246,4.8536778 c -2.622871,-2.7138387 8.879217,-7.2530563 1.05744,-8.0395606 -3.322938,1.8225836 -4.186449,3.29026253 -3.221539,7.2237494 -9.216588,-6.3990605 9.108213,-14.4026836 8.063676,-3.23786426 -0.484705,2.59865116 -3.204647,4.82985476 -5.899577,4.05367546 z m 0.9906,-4.77301841 c 0.652064,-0.94864478 0.597558,0.78193787 0,0 z M -94.59454,-1.0531001 c -5.308163,-2.3501816 -10.88808,-3.2842354 -16.70859,-3.058733 -8.52225,1.7800579 -6.77014,-6.9092539 -4.37506,-5.0127296 1.77935,2.9530533 11.03196,0.7005495 15.35816,2.8347214 5.925808,3.4510198 9.697411,-0.9564011 13.964112,-3.8021997 3.579916,1.5467531 8.576748,2.178877 1.353174,2.4852712 -4.650357,-0.1284264 -5.068103,9.1925186 -9.591796,6.5536697 z m 23.22658,-6.4121186 c -1.412695,-4.3042833 -10.697561,-9.3613193 -15.13767,-10.3186573 -0.592717,5.489515 -8.81097,11.2255273 -5.170312,3.05124 11.867454,-4.5605 -4.923491,-8.938212 -8.511408,-13.236791 -2.54561,-5.173572 9.431749,1.896618 2.76816,-4.112814 2.229096,-3.750266 12.431197,3.785713 13.389465,6.242199 -7.955619,2.535159 0.773624,9.477485 3.863976,5.386471 -3.428768,4.230693 5.857245,8.135488 7.297765,2.099978 5.626098,-4.383562 -7.492579,6.276336 0.914956,6.524312 3.497821,1.701046 4.74029,-2.231807 3.274471,2.0047389 2.419676,3.2241838 8.474353,-3.4182699 2.925572,2.2429859 -1.848845,0.2643072 -3.760212,0.3948795 -5.614975,0.1163375 z M -88.497354,-23.266128 c 5.115408,-2.693204 1.091006,-6.763642 0.133622,-1.585978 -3.207048,3.248445 0.482876,-4.197387 -3.568954,0.331647 0.88387,0.581182 2.260268,2.621306 3.435332,1.254331 z m 11.033394,15.5208133 c 3.714979,-2.1806202 6.678849,0.8947924 0,0 z m -1.524,-9.5671033 c 1.438584,-1.602234 0.944862,1.341973 0,0 z m 2.843355,-0.787515 c 1.661307,-1.628033 -0.539326,2.042492 0,0 z m -0.528328,-4.166169 c -1.149752,-1.12902 2.116636,0.453803 0,0 z m -4.352452,-2.292274 c -3.848985,-0.334988 -0.488278,-1.894243 0.590059,0.05438 z M 9.3193742,-56.997378 c 0.5032705,-5.95124 8.9558768,0.134015 0.4706312,0.146017 z m -21.3357762,-3.218718 c -3.367535,-3.598317 4.4630201,-8.446515 0.521297,-8.704306 -1.595091,4.04099 -3.528972,8.304376 -1.265858,1.109051 0.922806,-5.275894 -2.373578,-14.092594 6.6984852,-14.808719 3.5310944,0.812737 7.5476446,9.545593 2.1116742,9.572641 -1.0723985,-5.76397 -8.6520414,-1.982344 -5.0429409,2.996422 -0.6130111,2.976057 -2.0897315,9.294151 -3.0226575,9.834911 z m 1.354442,-11.121049 c -0.549375,-4.383003 -0.800801,5.179957 0,0 z m 0.347906,-2.318399 c -1.618604,-5.713133 5.0440971,-5.867354 6.5851739,-5.334 -2.0419521,-4.728068 -8.6488799,-1.832638 -8.8284459,3.542223 -0.684707,1.160954 1.424872,3.3646 2.243272,1.791777 z m -0.481782,-4.519627 c 0.250612,-2.30698 1.421786,0.618221 0,0 z m 8.4657034,2.119841 c -1.2445942,-2.407109 -1.1682143,1.853014 0,4e-6 z M -105.79776,-63.546444 c -5.76134,-0.126526 -21.82786,-9.862176 -9.77587,-12.372436 8.67626,-2.420255 18.199292,-2.315103 26.900301,-0.86574 -1.678486,3.395625 -14.754641,0.841613 -12.193901,4.059552 5.02164,0.222342 19.874456,-0.935876 17.458247,3.87162 -5.491014,-1.499813 -16.147241,-3.631385 -19.992307,-0.108126 -0.30366,2.025985 1.5563,7.148602 -2.39647,5.41513 z"
         style="fill:#9ca4a6;stroke-width:1" />
      <path
         id="path95"
         d="m -92.451405,100.2904 c -2.955913,-0.993515 -1.644031,-4.773196 -1.678456,-4.297943 9.72159,-0.930877 19.114825,-3.706624 27.385729,-8.993419 14.029098,-7.385107 27.842696,-15.191131 41.814728,-22.667894 6.305544,6.655045 16.2253526,6.368285 23.97312436,4.003611 C 4.042933,74.10209 6.8546752,58.037232 9.9929034,54.323611 13.785872,48.538117 17.796854,40.626242 7.3861731,40.684019 c -7.74410152,-2.987515 9.1026049,-1.414047 9.2055519,3.95796 1.292258,9.387669 -3.080318,19.380788 -9.4647366,26.100869 -8.5999158,5.868383 -18.2810124,10.401347 -25.9761244,17.826212 -2.237756,3.422384 -15.587619,6.949823 -11.463649,0.74668 8.33713,-3.928625 15.665482,-10.043495 20.920825,-17.604014 -7.295566,-0.765578 -17.109601,-6.571033 -21.462325,2.352158 -5.254581,7.164079 -15.046233,8.87089 -22.330002,13.589361 -12.098829,5.357957 -24.221635,12.772985 -37.791642,12.867095 z M 21.59604,81.418466 C 17.216141,76.419984 18.971222,76.153562 24.76882,77.468827 29.589893,64.186128 26.997856,49.900312 27.284074,36.115604 26.71539,31.11121 29.401923,18.284295 20.90084,25.456927 12.356179,28.400123 3.6346094,23.734319 -2.154804,17.59396 c 3.308729,3.924084 6.3373113,5.119798 1.0098684,8.926313 -4.0363674,5.797416 -10.2262324,8.817085 -16.8487704,5.123489 -6.897845,-2.440998 -14.346627,-0.04698 -21.410473,-0.81741 3.256788,-1.669568 15.3197,-2.873819 5.345387,-2.287498 -3.812297,0.908979 -14.984437,1.126573 -5.428916,-2.011571 9.823886,-3.462858 -7.573767,-7.351515 -10.770648,-5.179113 -2.765229,6.550522 -4.006888,-0.272924 -9.933609,-0.230663 8.655212,-5.15699 -8.101287,-4.42831 -11.64683,-6.30498 -4.937107,-1.238157 0.619266,7.583356 -5.89901,7.536128 -3.913695,3.94143 -11.323667,2.648352 -6.038218,-3.354774 3.330764,-5.345106 4.024718,-7.94918 -2.448102,-8.957051 -4.55222,3.343666 -12.384625,-3.0296905 -12.285573,6.017105 -1.191149,3.715782 -6.640172,10.810236 -2.952382,2.177201 2.290887,-5.125915 4.550068,-11.0417486 -3.31604,-9.7033177 -3.83921,-0.6964862 -17.00208,-5.259193 -13.77066,-7.1348733 8.94439,5.5757914 19.733936,6.4281488 29.924586,7.5659382 5.977416,1.4013678 13.992958,-2.5176564 16.384463,-5.1861198 -1.755891,3.8625541 -13.044315,7.5265276 -2.611394,7.9097666 23.629099,5.391117 47.148146,11.311161 70.85666,16.32883 -0.8555203,-7.820291 -12.561414,-10.321412 -19.948678,-11.761411 -3.296684,-1.789018 -15.140982,-1.395137 -11.547322,-5.542413 -2.917994,-0.575936 -9.273687,1.896702 -7.150766,-2.3193732 -4.009684,-2.4570764 -7.882748,-5.6425764 -12.094382,-7.5472734 -6.267616,0.2232776 -13.182891,3.2178049 -17.394352,0.1554811 1.883529,-6.6605182 8.111151,3.3758279 10.541,-2.4233125 11.057664,-0.7437557 22.284877,-0.4502404 33.163371,-2.6504633 -1.363917,-7.0460627 -10.746488,-5.5477686 -16.681395,-5.2041238 -4.122814,-4.8070739 -8.06581,-9.7902479 -12.54491,-14.2724329 -3.114373,1.580202 -6.985469,14.1725902 -9.440498,4.720431 1.621608,-5.698225 6.118339,-12.579574 1.689307,-16.41746 -2.118888,-4.153854 6.060245,5.346919 1.336541,-1.380515 -3.055412,-5.27769 -4.271816,-5.115362 -3.442317,-1.677797 -2.987613,-2.80782 -2.430757,-10.542216 -1.200381,-10.295529 2.065177,-8.002736 -6.585061,-7.744577 -11.078126,-2.851891 -6.722084,3.672215 -12.29177,8.469401 -19.012592,12.714284 -3.764705,3.36332 -2.890925,-0.343725 -7.463955,2.915382 10.667411,-7.231034 21.203367,-14.862723 32.322343,-21.410528 4.161517,-1.034053 14.412445,4.658182 7.512751,-2.515954 -4.322868,-4.113565 5.437064,7.90071 -1.871914,1.807678 -5.259609,-1.817266 -15.107036,3.470449 -18.515053,0.109631 7.179939,-2.492325 -10.757551,-4.358396 -4.23306,-4.577422 6.738321,2.043119 15.842499,0.775434 21.717241,-2.035475 -5.036124,-9.695556 5.574729,-20.329303 15.4267,-17.763187 9.233993,2.747268 14.427099,11.87631 21.397579,17.927434 7.606482,7.387793 14.341036,15.692394 22.294117,22.696876 9.73856254,-3.42951 18.1338249,-10.838339 27.280788,-14.508632 -7.292171,4.065613 -13.4568035,9.980817 -21.2181505,13.395774 -12.1042735,2.629998 7.8619641,12.222973 5.1506806,1.993469 1.8053907,-5.544196 17.5231019,0.750167 11.1302769,4.163173 -2.11158,-5.389287 -11.31372254,-3.428841 -8.6403069,-1.592235 1.899707,4.083216 -4.5206122,-0.451382 0.3259629,3.814469 -3.07383411,1.831589 -11.0557229,-2.241986 -4.43550294,3.666702 5.48629924,8.676988 16.23337494,0.482087 24.32275794,0.688124 4.043693,-0.667569 17.023195,-3.664902 16.382013,-2.468297 -11.524384,2.81536 -23.809864,4.2857 -34.922954,7.649111 1.2027286,1.845267 7.674723,0.862328 2.463686,2.808571 1.6055975,6.329844 12.60147,6.757949 13.623653,7.795573 -5.013748,-1.289269 -8.414032,-0.266458 -3.309102,3.727638 4.706772,6.4564633 12.94186,11.654447 13.056962,20.3003216 -2.663863,3.8364654 4.276311,7.8304414 2.880019,3.5579484 -6.564348,-7.0746546 12.53514,0.364759 4.58876,-0.313804 -6.075105,4.870444 0.847674,12.076374 6.827929,12.916509 6.47668,-1.553705 -5.506472,-12.385446 0.80652,-9.366887 5.355956,4.414087 2.593027,15.649964 -5.140727,9.976303 -3.933686,-2.560878 -7.163148,-11.149277 -10.889893,-10.183166 -2.108598,7.569522 4.326294,14.543814 1.677834,23.06832 -0.209713,11.958339 -2.659495,23.7544 -3.964479,35.59245 -0.381325,3.32315 -1.962784,7.413952 -6.187471,6.325035 z m -38.227,-52.902505 c -5.4529,-0.894829 0.998177,0.804214 0,0 z m -8.569538,-0.428518 c -2.27615,-0.424838 -0.410551,0.421693 0,0 z m 35.491361,-3.885959 c -4.2256327,-4.086132 -3.6790907,1.400472 0,0 z M -0.51089572,23.706659 c -0.61439428,-7.055245 -5.89586428,-0.595693 0,0 z M 10.16604,19.147173 c -4.1623049,-4.840894 -4.1884909,1.356467 0,8.2e-5 z m -28.3337,-2.043047 c -3.510408,-1.944542 -9.356364,-2.890218 -2.1463,-0.56595 -0.357724,-0.347502 2.761338,1.335837 2.1463,0.56595 z M 28.188046,15.716943 C 32.294141,8.0891326 19.682667,12.369792 27.593303,16.83196 Z M -27.10846,14.006947 c -1.471375,-4.3206835 -10.328082,0.08271 -1.7145,0.151719 -0.487056,-0.308811 4.053763,0.97083 1.7145,-0.151719 z M -8.0039922,8.9449246 c -3.1259998,-3.6025352 2.1727592,4.3383514 0,0 z M -32.210751,8.8222908 c 7.361587,-0.8306199 -1.727134,-5.1896916 -0.581159,-5.3034759 3.998511,-4.5364265 -9.129367,-4.1751525 -13.129307,-3.42932595 -5.444939,-0.58082251 -7.485872,1.47040475 -1.386502,3.63061275 4.842382,3.1652547 8.782268,7.1664823 15.096968,5.1021891 z m -7.851709,-0.950656 c -2.364942,-2.5364137 3.128102,0.6594498 0,0 z m 1.5875,-0.9456751 c 0.651039,-0.940788 0.976442,0.9106425 0,0 z m 11.811,-18.7725877 c -2.505546,-3.499579 -9.70725,-10.184097 -3.222692,-2.953472 0.947661,0.647024 2.159398,3.340871 3.222692,2.953472 z m -7.112,-7.870238 c -0.777843,-1.302307 -0.694821,0.771314 0,0 z m -12.667739,-0.471676 c -2.662641,-3.464005 -0.363547,0.838543 0,0 z m 11.397739,-1.051362 c -1.52337,-3.491138 -1.175137,0.910087 0,0 z m -13.534067,-1.703044 c -3.296686,-3.162705 -0.895791,-5.121645 0.403453,-6.534145 -8.462503,-3.089691 -13.919939,-9.888389 -19.412454,-16.783257 2.213121,4.028161 4.070856,6.172091 -0.357847,1.624307 2.030544,7.065673 7.776957,4.685124 11.03849,12.205422 2.292542,2.607107 7.687492,9.818325 8.328358,9.487673 z m -12.119933,-9.215995 c -1.087767,-2.106683 -0.948311,0.931832 0,0 z m 72.22299,-7.314755 c -1.114703,-3.088933 -2.7105976,-0.172861 0,0 z m -64.60299,-5.385245 c -2.759401,-2.743699 -18.796338,-7.634906 -7.557793,-2.398819 2.427919,0.675234 5.081057,2.600276 7.557793,2.398819 z m -10.569329,-1.4281 c -2.072971,-2.404232 -2.093824,1.057383 0,0 z m 25.065604,-4.841855 c 10.472853,-2.427995 -1.563191,-19.445808 -9.009446,-11.533068 -9.162607,3.204849 3.51184,14.78332 9.009446,11.533068 z m -6.207361,-2.129694 c -2.654532,-5.274792 7.624491,1.008219 5.335171,-4.797757 6.168106,-4.281353 3.611452,9.460175 -3.02183,5.908662 -1.287155,0.441829 -1.683205,-0.0088 -2.313341,-1.110905 z m -3.462914,-3.749997 c -5.197763,-4.747646 11.607158,-9.934429 8.4455,-3.035519 -4.867963,-0.644153 -4.681068,0.08808 -6.403653,4.026264 l -0.414721,0.06375 z m -10.057801,5.668508 c -6.035798,-3.696925 -5.48228,-0.08183 0,0 z M -101.84796,80.626477 c -7.58121,-2.793664 15.637751,-8.342885 2.247043,-5.727358 -2.941643,1.828891 -16.016573,-1.274467 -12.231873,-0.914923 12.256898,2.949847 23.845453,-3.745122 35.489217,-6.50248 9.465645,-2.645198 19.179265,-6.060064 28.585543,-7.996906 -10.575225,6.313728 -20.817089,13.38939 -31.99193,18.643436 -7.228618,1.652727 -14.648113,3.080211 -22.098,2.498231 z m 93.472,-14.692184 c 2.5866273,-4.229264 6.388182,-7.563476 10.16,-10.470551 8.688804,-6.940615 -0.91978716,10.786536 -6.5173962,9.938329 -1.1774626,0.312798 -2.3948461,0.838036 -3.6426038,0.532222 z m 33.027874,-1.260587 c -2.804285,-4.915092 -2.123124,-19.02525 0.448816,-19.626469 -2.9243,6.787679 1.310438,15.007302 0.018,20.640943 L 24.651912,64.673706 Z M -99.56196,60.429831 c -5.10028,-5.64593 13.771817,-9.824995 12.571303,-12.141853 -10.249331,4.447521 4.641646,-3.296743 7.613699,-4.872141 7.630844,-4.73273 17.038036,-6.820371 23.928511,-12.480815 3.075198,3.310733 -10.117598,6.502815 -0.971837,5.708939 5.373566,1.419817 9.032487,-0.03925 10.823014,-4.224964 -2.598392,6.781072 11.000244,1.565026 15.756299,3.117141 4.742297,0.405974 13.464662,-0.882206 16.00233,0.659061 -5.863735,0.379193 -9.126676,7.393836 -14.997237,6.195164 -5.337123,-1.545536 -10.280675,2.487141 -14.677492,0.173757 0.234976,7.053173 -7.986964,-0.213045 -7.648933,5.465842 -6.423285,0.121671 -12.545149,0.404691 -19.683791,3.645381 -8.356063,4.169061 -16.865777,7.987245 -26.279701,9.030941 l -1.299662,-0.0047 -1.136503,-0.271715 z m 65.855174,-20.29337 c 3.143788,1.834308 5.874801,-3.36228 -0.247227,-2.48406 -4.621366,0.630169 -18.920987,-1.523876 -18.428284,1.187408 5.659376,3.000696 13.334186,0.575769 18.675511,1.296652 z m 6.788826,-1.8415 c -2.674684,-2.730536 -1.730898,1.475336 0,0 z m 2.921,-0.381 c -1.296959,-0.97681 -1.051465,0.74448 0,0 z m -50.652947,18.139835 c 0.163391,-0.978907 0.257666,1.156103 0,0 z m 6.837947,-2.518834 c 0.629749,-1.338322 0.629749,1.338322 0,0 z m 41.402394,-1.3335 c -0.365297,-7.988961 18.4581839,-5.312301 6.247866,-1.242398 -1.650742,-0.04843 -6.669204,4.76893 -6.247866,1.242398 z m -34.286505,-1.27 c 0.74271,-1.857315 0.196194,1.33035 0,0 z M 4.1158362,46.217697 C 1.802561,43.094703 -1.5640522,43.451292 0.10117316,41.770604 -2.0469617,39.234085 -13.935269,36.221208 -4.450286,38.061593 -0.02363841,37.05238 7.861733,48.580749 4.6010799,46.929926 L 4.3124265,46.506248 Z M -101.22933,44.237472 c 4.074771,-3.984288 9.668901,-14.29619 15.814441,-8.521406 -4.729538,3.171493 -10.292646,7.734587 -15.814441,8.521406 z m 85.74137,-6.275002 c 5.094447,-1.381152 2.071135,0.628291 0,0 z m 4.386334,-0.478528 c 1.6740961,-0.375905 0.325061,0.421162 0,0 z M 3.8350621,32.897067 c -4.04947391,-4.764795 5.4933902,1.237203 0,0 z M -51.530956,29.367803 c -8.863116,-4.853803 10.626536,-2.972956 1.062654,0.397439 z M 2.29204,28.417996 c 0.4326669,-6.121156 6.2468925,-2.463678 0,0 z m 1.890047,-4.084958 c -0.9123494,-1.378994 1.8005625,1.372686 0,0 z M -82.86146,4.4414789 c 1.248798,-1.5156363 7.457755,-8.9133182 3.943517,-1.4193655 -0.985796,1.0643503 -2.527307,1.4985161 -3.943517,1.4193655 z m -11.64497,-6.0449641 c -5.52175,-2.3664659 -11.67095,-3.0537773 -17.88105,-2.9973476 -4.80707,0.5942492 -8.70829,-5.4254382 -1.55782,-2.8223965 6.44572,0.5190255 12.10363,0.9263876 18.184027,2.5367014 3.17104,4.03955519 7.767212,-7.4333951 11.093437,-3.6939712 -4.763672,-0.1845307 -6.248447,8.55788012 -9.838594,6.9770139 z m 24.66247,-6.4344578 c -4.144762,-4.263785 -11.239293,-7.825426 -16.815842,-11.517724 -2.544818,-1.985288 -14.534818,-8.32293 -11.426641,-8.034658 10.014331,6.801366 21.149918,12.638329 30.713541,19.6540193 -0.800228,0.2747522 -1.671213,-0.2098453 -2.471058,-0.1016373 z m -25.802039,-22.429979 c -3.732499,-4.913001 4.528198,3.525497 0,0 z m 28.405539,-3.529343 c -3.099255,-3.174687 4.125099,1.904268 0,0 z m -1.778,-0.392996 c -1.636225,-2.021031 2.461452,0.902894 0,0 z m -40.7035,-1.588237 c 4.10141,-5.259392 4.14207,-1.153709 0,0 z m -0.5239,-1.042602 c 3.3374,-2.302958 -2.42171,2.597607 0,0 z m 41.4179,0.259058 c -0.938245,-1.156229 1.532686,0.550304 0,0 z m 80.282832,-5.810825 c -2.3867205,-1.812881 3.446575,-0.259046 0,0 z m 8.129333,-1.308191 c -3.560146,-8.087781 -12.7205279,6.198371 -9.103484,-3.86346 4.452674,-2.364696 10.740905,5.459284 11.242319,0.809077 2.903463,2.232281 0.481694,6.198561 -2.138835,3.054383 z m 0.99852,-5.196752 c -0.610942,-2.70614 1.499996,0.894077 0,0 z m -0.200297,-4.199649 c -0.570736,-2.654734 3.498057,0.108505 -2e-6,0 z m -2.596388,-3.375817 c 2.346148,-2.343249 16.544255,-10.171206 7.045605,-3.957678 -2.257299,0.958669 -4.992033,4.166257 -7.045605,3.957678 z m -8.2618758,-0.947893 c 2.7694758,-4.355309 6.8609368,0.773989 0,0 z M -84.44896,-69.928808 c -3.824481,-1.405118 -18.4934,0.119138 -16.84321,-2.001066 4.315728,0.540146 17.371597,-1.911578 16.84321,2.001066 z m 80.6551168,-3.524047 c -0.09872,-3.428471 3.51051754,1.320972 0,0 z M -106.45597,-74.86048 c -6.42436,-1.695435 11.097709,-3.312471 13.323539,-0.995463 -4.289609,1.16581 -8.904939,1.193523 -13.323539,0.995463 z m 97.06401,-1.521096 c 0.8806573,-5.427645 9.04582748,2.425447 2.1004317,-0.139213 0.8473651,-0.702977 -2.3856791,1.406265 -2.1004317,0.139213 z"
         style="fill:#b51c2c;stroke-width:1" />
      <path
         id="path93"
         d="m -92.451405,100.2904 c -2.955913,-0.993515 -1.644031,-4.773196 -1.678456,-4.297943 9.72159,-0.930877 19.114825,-3.706624 27.385729,-8.993419 14.029098,-7.385107 27.842696,-15.191131 41.814728,-22.667894 6.305544,6.655045 16.2253526,6.368285 23.97312436,4.003611 C 4.042933,74.10209 6.8546752,58.037232 9.9929034,54.323611 13.785872,48.538117 17.796854,40.626242 7.3861731,40.684019 c -7.74410152,-2.987515 9.1026049,-1.414047 9.2055519,3.95796 1.292258,9.387669 -3.080318,19.380788 -9.4647366,26.100869 -8.5999158,5.868383 -18.2810124,10.401347 -25.9761244,17.826212 -2.237756,3.422384 -15.587619,6.949823 -11.463649,0.74668 8.33713,-3.928625 15.665482,-10.043495 20.920825,-17.604014 -7.295566,-0.765578 -17.109601,-6.571033 -21.462325,2.352158 -5.254581,7.164079 -15.046233,8.87089 -22.330002,13.589361 -12.098829,5.357957 -24.221635,12.772985 -37.791642,12.867095 z M 21.59604,81.418466 C 17.216141,76.419984 18.971222,76.153562 24.76882,77.468827 29.589893,64.186128 26.997856,49.900312 27.284074,36.115604 26.71539,31.11121 29.401923,18.284295 20.90084,25.456927 12.356179,28.400123 3.6346094,23.734319 -2.154804,17.59396 c 3.308729,3.924084 6.3373113,5.119798 1.0098684,8.926313 -4.0363674,5.797416 -10.2262324,8.817085 -16.8487704,5.123489 -6.897845,-2.440998 -14.346627,-0.04698 -21.410473,-0.81741 3.256788,-1.669568 15.3197,-2.873819 5.345387,-2.287498 -3.812297,0.908979 -14.984437,1.126573 -5.428916,-2.011571 9.823886,-3.462858 -7.573767,-7.351515 -10.770648,-5.179113 -2.765229,6.550522 -4.006888,-0.272924 -9.933609,-0.230663 8.655212,-5.15699 -8.101287,-4.42831 -11.64683,-6.30498 -4.937107,-1.238157 0.619266,7.583356 -5.89901,7.536128 -3.913695,3.94143 -11.323667,2.648352 -6.038218,-3.354774 3.330764,-5.345106 4.024718,-7.94918 -2.448102,-8.957051 -4.55222,3.343666 -12.384625,-3.0296905 -12.285573,6.017105 -1.191149,3.715782 -6.640172,10.810236 -2.952382,2.177201 2.290887,-5.125915 4.550068,-11.0417486 -3.31604,-9.7033177 -3.83921,-0.6964862 -17.00208,-5.259193 -13.77066,-7.1348733 8.94439,5.5757914 19.733936,6.4281488 29.924586,7.5659382 5.977416,1.4013678 13.992958,-2.5176564 16.384463,-5.1861198 -1.755891,3.8625541 -13.044315,7.5265276 -2.611394,7.9097666 23.629099,5.391117 47.148146,11.311161 70.85666,16.32883 -0.8555203,-7.820291 -12.561414,-10.321412 -19.948678,-11.761411 -3.296684,-1.789018 -15.140982,-1.395137 -11.547322,-5.542413 -2.917994,-0.575936 -9.273687,1.896702 -7.150766,-2.3193732 -4.009684,-2.4570764 -7.882748,-5.6425764 -12.094382,-7.5472734 -6.267616,0.2232776 -13.182891,3.2178049 -17.394352,0.1554811 1.883529,-6.6605182 8.111151,3.3758279 10.541,-2.4233125 11.057664,-0.7437557 22.284877,-0.4502404 33.163371,-2.6504633 -1.363917,-7.0460627 -10.746488,-5.5477686 -16.681395,-5.2041238 -4.122814,-4.8070739 -8.06581,-9.7902479 -12.54491,-14.2724329 -3.114373,1.580202 -6.985469,14.1725902 -9.440498,4.720431 1.621608,-5.698225 6.118339,-12.579574 1.689307,-16.41746 -2.118888,-4.153854 6.060245,5.346919 1.336541,-1.380515 -3.055412,-5.27769 -4.271816,-5.115362 -3.442317,-1.677797 -2.987613,-2.80782 -2.430757,-10.542216 -1.200381,-10.295529 2.065177,-8.002736 -6.585061,-7.744577 -11.078126,-2.851891 -6.722084,3.672215 -12.29177,8.469401 -19.012592,12.714284 -3.764705,3.36332 -2.890925,-0.343725 -7.463955,2.915382 10.667411,-7.231034 21.203367,-14.862723 32.322343,-21.410528 4.161517,-1.034053 14.412445,4.658182 7.512751,-2.515954 -4.322868,-4.113565 5.437064,7.90071 -1.871914,1.807678 -5.259609,-1.817266 -15.107036,3.470449 -18.515053,0.109631 7.179939,-2.492325 -10.757551,-4.358396 -4.23306,-4.577422 6.916598,2.253271 15.004906,0.363126 21.803609,-1.605549 1.89542,1.045436 11.161243,11.151971 8.512904,11.520116 -5.621332,-1.452555 8.903108,4.158633 6.341334,6.601115 -3.343193,-1.976966 -16.70586,-6.390771 -6.423643,-1.435648 8.764735,1.273293 12.898996,9.102815 18.300727,15.099641 10.85247,13.420046 22.33522,26.3257663 33.0393278,39.8565409 C -4.382681,13.845105 2.3739741,19.666917 8.772398,24.312229 15.223836,24.98036 26.19526,23.857822 26.77448,16.253605 29.315072,18.786149 29.953838,5.9199891 24.389174,12.949135 20.454775,8.2333925 32.744262,12.575086 28.027868,6.4076315 26.028616,0.61594572 21.446528,-5.4299656 17.894951,-8.6839915 12.289524,-14.641438 6.3877892,-21.061693 0.68548365,-27.250734 -5.0619344,-33.783677 -9.9184187,-39.909423 -16.12296,-45.906043 c -5.698929,-5.586716 -2.197417,-4.737174 1.352149,0.454304 7.1001591,8.719273 16.6715279,-4.238943 24.4432172,-6.828483 2.9399458,-2.309371 11.3895968,-5.757568 3.6913508,-1.37092 -7.2609435,4.640806 -14.23144778,9.882716 -22.1781464,13.518166 2.0879235,4.333818 11.48924,6.660573 9.8144965,-0.574456 1.8053907,-5.544196 17.5231019,0.750167 11.1302769,4.163173 -2.11158,-5.389287 -11.31372254,-3.428841 -8.6403069,-1.592235 1.899707,4.083216 -4.5206122,-0.451382 0.3259629,3.814469 -3.07383411,1.831589 -11.0557229,-2.241986 -4.43550294,3.666702 5.48629924,8.676988 16.23337494,0.482087 24.32275794,0.688124 4.043693,-0.667569 17.023195,-3.664902 16.382013,-2.468297 -11.524384,2.81536 -23.809864,4.2857 -34.922954,7.649111 1.2027286,1.845267 7.674723,0.862328 2.463686,2.808571 1.6055975,6.329844 12.60147,6.757949 13.623653,7.795573 -5.013748,-1.289269 -8.414032,-0.266458 -3.309102,3.727638 4.706772,6.4564636 12.94186,11.6544472 13.056962,20.3003218 -2.663863,3.8364652 4.276311,7.8304412 2.880019,3.5579482 -6.564348,-7.0746546 12.53514,0.364759 4.58876,-0.313804 -6.075105,4.870444 0.847674,12.076374 6.827929,12.916509 6.47668,-1.553705 -5.506472,-12.385446 0.80652,-9.366887 5.355956,4.414087 2.593027,15.649964 -5.140727,9.976303 -3.933686,-2.560878 -7.163148,-11.149277 -10.889893,-10.183166 -2.108598,7.569522 4.326294,14.543814 1.677834,23.06832 -0.209713,11.958339 -2.659495,23.7544 -3.964479,35.59245 -0.381337,3.323162 -1.962741,7.41389 -6.187476,6.325074 z m -38.227,-52.902505 c -5.4529,-0.894829 0.998177,0.804214 0,0 z m -8.569538,-0.428518 c -2.27615,-0.424838 -0.410551,0.421693 0,0 z m 24.68960228,-4.380784 c -0.61439428,-7.055245 -5.89586428,-0.595693 0,0 z M -18.16766,17.104126 c -3.510408,-1.944542 -9.356364,-2.890218 -2.1463,-0.56595 -0.357724,-0.347502 2.761338,1.335837 2.1463,0.56595 z m -8.9408,-3.097179 c -1.471375,-4.3206835 -10.328082,0.08271 -1.7145,0.151719 -0.487056,-0.308811 4.053763,0.97083 1.7145,-0.151719 z m -5.102291,-5.1846562 c 7.361587,-0.8306199 -1.727134,-5.1896916 -0.581159,-5.3034759 3.998511,-4.5364265 -9.129367,-4.1751525 -13.129307,-3.42932595 -5.444939,-0.58082251 -7.485872,1.47040475 -1.386502,3.63061275 4.842382,3.1652547 8.782268,7.1664823 15.096968,5.1021891 z m -7.851709,-0.950656 c -2.364942,-2.5364137 3.128102,0.6594498 0,0 z m 1.5875,-0.9456751 c 0.651039,-0.940788 0.976442,0.9106425 0,0 z m -6.716103,-18.9865007 c -3.85115,-5.039607 -11.373126,-15.869894 -14.257795,-17.099323 4.6486,5.956011 9.16674,12.171596 14.441844,17.541323 z m 18.527103,0.213913 c -2.505546,-3.499579 -9.70725,-10.184097 -3.222692,-2.953472 0.947661,0.647024 2.159398,3.340871 3.222692,2.953472 z m -7.112,-7.870238 c -0.777843,-1.302307 -0.694821,0.771314 0,0 z m -12.667739,-0.471676 c -2.662641,-3.464005 -0.363547,0.838543 0,0 z m 11.397739,-1.051362 c -1.52337,-3.491138 -1.175137,0.910087 0,0 z m -13.534067,-1.703044 c -3.296686,-3.162705 -0.895791,-5.121645 0.403453,-6.534145 -8.462503,-3.089691 -13.919939,-9.888389 -19.412454,-16.783257 2.213121,4.028161 4.070856,6.172091 -0.357847,1.624307 2.030544,7.065673 7.776957,4.685124 11.03849,12.205422 2.292542,2.607107 7.687492,9.818325 8.328358,9.487673 z m -12.119933,-9.215995 c -1.087767,-2.106683 -0.948311,0.931832 0,0 z m 72.22299,-7.314755 c -1.114703,-3.088933 -2.7105976,-0.172861 0,0 z m -75.172319,-6.813345 c -2.072971,-2.404232 -2.093824,1.057383 0,0 z m -38.198671,126.91352 c -7.58121,-2.793664 15.637751,-8.342885 2.247043,-5.727358 -2.941643,1.828891 -16.016573,-1.274467 -12.231873,-0.914923 12.256898,2.949847 23.845453,-3.745122 35.489217,-6.50248 9.465645,-2.645198 19.179265,-6.060064 28.585543,-7.996906 -10.575225,6.313728 -20.817089,13.38939 -31.99193,18.643436 -7.228618,1.652727 -14.648113,3.080211 -22.098,2.498231 z m 93.472,-14.692184 c 2.5866273,-4.229264 6.388182,-7.563476 10.16,-10.470551 8.688804,-6.940615 -0.91978716,10.786536 -6.5173962,9.938329 -1.1774626,0.312798 -2.3948461,0.838036 -3.6426038,0.532222 z m 33.027874,-1.260587 c -2.804285,-4.915092 -2.123124,-19.02525 0.448816,-19.626469 -2.9243,6.787679 1.310438,15.007302 0.018,20.640943 L 24.651912,64.673706 Z M -99.56196,60.429831 c -5.10028,-5.64593 13.771817,-9.824995 12.571303,-12.141853 -10.249331,4.447521 4.641646,-3.296743 7.613699,-4.872141 7.630844,-4.73273 17.038036,-6.820371 23.928511,-12.480815 3.075198,3.310733 -10.117598,6.502815 -0.971837,5.708939 5.373566,1.419817 9.032487,-0.03925 10.823014,-4.224964 -2.598392,6.781072 11.000244,1.565026 15.756299,3.117141 4.742297,0.405974 13.464662,-0.882206 16.00233,0.659061 -5.863735,0.379193 -9.126676,7.393836 -14.997237,6.195164 -5.337123,-1.545536 -10.280675,2.487141 -14.677492,0.173757 0.234976,7.053173 -7.986964,-0.213045 -7.648933,5.465842 -6.423285,0.121671 -12.545149,0.404691 -19.683791,3.645381 -8.356063,4.169061 -16.865777,7.987245 -26.279701,9.030941 l -1.299662,-0.0047 -1.136503,-0.271715 z m 65.855174,-20.29337 c 3.143788,1.834308 5.874801,-3.36228 -0.247227,-2.48406 -4.621366,0.630169 -18.920987,-1.523876 -18.428284,1.187408 5.659376,3.000696 13.334186,0.575769 18.675511,1.296652 z m 6.788826,-1.8415 c -2.674684,-2.730536 -1.730898,1.475336 0,0 z m 2.921,-0.381 c -1.296959,-0.97681 -1.051465,0.74448 0,0 z m -50.652947,18.139835 c 0.163391,-0.978907 0.257666,1.156103 0,0 z m 6.837947,-2.518834 c 0.629749,-1.338322 0.629749,1.338322 0,0 z m 41.402394,-1.3335 c -0.365297,-7.988961 18.4581839,-5.312301 6.247866,-1.242398 -1.650742,-0.04843 -6.669204,4.76893 -6.247866,1.242398 z m -34.286505,-1.27 c 0.74271,-1.857315 0.196194,1.33035 0,0 z M 4.1158362,46.217697 C 1.802561,43.094703 -1.5640522,43.451292 0.10117316,41.770604 -2.0469617,39.234085 -13.935269,36.221208 -4.450286,38.061593 -0.02363841,37.05238 7.861733,48.580749 4.6010799,46.929926 L 4.3124265,46.506248 Z M -101.22933,44.237472 c 4.074771,-3.984288 9.668901,-14.29619 15.814441,-8.521406 -4.729538,3.171493 -10.292646,7.734587 -15.814441,8.521406 z m 85.74137,-6.275002 c 5.094447,-1.381152 2.071135,0.628291 0,0 z m 4.386334,-0.478528 c 1.6740961,-0.375905 0.325061,0.421162 0,0 z M 3.8350621,32.897067 c -4.04947391,-4.764795 5.4933902,1.237203 0,0 z M -51.530956,29.367803 c -8.863116,-4.853803 10.626536,-2.972956 1.062654,0.397439 z M 2.29204,28.417996 c 0.4326669,-6.121156 6.2468925,-2.463678 0,0 z m 1.890047,-4.084958 c -0.9123494,-1.378994 1.8005625,1.372686 0,0 z M -82.86146,4.4414789 c 1.248798,-1.5156363 7.457755,-8.9133182 3.943517,-1.4193655 -0.985796,1.0643503 -2.527307,1.4985161 -3.943517,1.4193655 z m -11.64497,-6.0449641 c -5.52175,-2.3664659 -11.67095,-3.0537773 -17.88105,-2.9973476 -4.80707,0.5942492 -8.70829,-5.4254382 -1.55782,-2.8223965 6.44572,0.5190255 12.10363,0.9263876 18.184027,2.5367014 3.17104,4.03955519 7.767212,-7.4333951 11.093437,-3.6939712 -4.763672,-0.1845307 -6.248447,8.55788012 -9.838594,6.9770139 z m 24.66247,-6.4344578 c -4.144762,-4.263785 -11.239293,-7.825426 -16.815842,-11.517724 -2.544818,-1.985288 -14.534818,-8.32293 -11.426641,-8.034658 10.014331,6.801366 21.149918,12.638329 30.713541,19.6540193 -0.800228,0.2747522 -1.671213,-0.2098453 -2.471058,-0.1016373 z m -25.802039,-22.429979 c -3.732499,-4.913001 4.528198,3.525497 0,0 z m 28.405539,-3.529343 c -3.099255,-3.174687 4.125099,1.904268 0,0 z m -1.778,-0.392996 c -1.636225,-2.021031 2.461452,0.902894 0,0 z m -40.7035,-1.588237 c 4.10141,-5.259392 4.14207,-1.153709 0,0 z m -0.5239,-1.042602 c 3.3374,-2.302958 -2.42171,2.597607 0,0 z m 41.4179,0.259058 c -0.938245,-1.156229 1.532686,0.550304 0,0 z m 80.282832,-5.810825 c -2.3867205,-1.812881 3.446575,-0.259046 0,0 z m 8.129333,-1.308191 c -3.560146,-8.087781 -12.7205279,6.198371 -9.103484,-3.86346 4.452674,-2.364696 10.740905,5.459284 11.242319,0.809077 2.903463,2.232281 0.481694,6.198561 -2.138835,3.054383 z m 0.99852,-5.196752 c -0.610942,-2.70614 1.499996,0.894077 0,0 z m -0.200297,-4.199649 c -0.570736,-2.654734 3.498057,0.108505 -2e-6,0 z m -2.596388,-3.375817 c 2.346148,-2.343249 16.544255,-10.171206 7.045605,-3.957678 -2.257299,0.958669 -4.992033,4.166257 -7.045605,3.957678 z m -8.2618758,-0.947893 c 2.7694758,-4.355309 6.8609368,0.773989 0,0 z M -84.44896,-69.928808 c -3.824481,-1.405118 -18.4934,0.119138 -16.84321,-2.001066 4.315728,0.540146 17.371597,-1.911578 16.84321,2.001066 z m 80.6551168,-3.524047 c -0.09872,-3.428471 3.51051754,1.320972 0,0 z M -106.45597,-74.86048 c -6.42436,-1.695435 11.097709,-3.312471 13.323539,-0.995463 -4.289609,1.16581 -8.904939,1.193523 -13.323539,0.995463 z m 97.06401,-1.521096 c 0.8806573,-5.427645 9.04582748,2.425447 2.1004317,-0.139213 0.8473651,-0.702977 -2.3856791,1.406265 -2.1004317,0.139213 z"
         style="fill:#40484c;stroke-width:1" />
    </g>
  </g>
</svg>
