<svg id="thispriis" data-name="thispriis" xmlns="http://www.w3.org/2000/svg" viewBox="0 0 160 26.6"><defs><style>.cls-1{fill:#1d1d1b;}</style></defs><title>logo_sva_zuerich</title><path class="cls-1" d="M5.08,6.83c0,3.51,11,4.82,11,12.17,0,5.59-4.53,7.56-9.57,7.56A19.57,19.57,0,0,1,0,25.35V20.2a15,15,0,0,0,6.83,2c2,0,4.13-.73,4.13-2.92C11,14.25,0,14.91,0,7,0,1.9,4.27,0,8.8,0a20.7,20.7,0,0,1,5.92.95V5.88A14.6,14.6,0,0,0,8.51,4.31C6.87,4.31,5.08,4.93,5.08,6.83ZM23.56.4l6.17,20.24h.07L36.06.4h5.37L32.59,26.19H26.85L18.19.4ZM47.27,19.73l-1.94,6.47H40.22L48.84.4h5.59L63,26.19H57.9L56,19.73Zm7.45-4L51.66,5.55h-.07L48.51,15.75Z"/><path class="cls-1" d="M84,2.81H72.25V.4h15V2.89L74.89,23.78H87.74v2.41H71.63V23.67Zm17.61,19.25c-.44,1.46-1.61,4.53-5.55,4.53-3.07,0-4.53-2.52-4.53-5.48V8.4h2.52v9.86c0,3.07,0,5.81,2.63,5.81,3.36,0,5-4.9,5-8.37V8.4h2.56V26.19h-2.56V22.07Zm-5-20.46V4.9h-3.4V1.61Zm6.54,0V4.9H99.8V1.61Zm9.32,6.79v3.43h.11A5.93,5.93,0,0,1,118.5,8V10.7c-4,0-6,3.32-6,8.11v7.38H110V8.4Z"/><path class="cls-1" d="M125.66.4V3.76H122.3V.4Zm-.44,8V26.19H122.7V8.4Zm17.5,5.41c0-3.73-2-5.85-5.74-5.85-5.3,0-6.79,4.46-6.79,9.06,0,5.74,2.74,9.57,8.73,9.57a11.75,11.75,0,0,0,3.21-.37V24a10.86,10.86,0,0,1-2.92.4c-4.71,0-6.39-3.36-6.39-7.67,0-2.67.77-6.61,4.13-6.61,2.15,0,3,1.68,3,3.65ZM149.77.4V12.49h.07C150.32,11,151.45,8,155.4,8c3,0,4.6,2.52,4.6,5.48V26.19h-2.56V16.33c0-3.07,0-5.81-2.63-5.81-3.36,0-5,5.11-5,8.33v7.34h-2.56V.4Z"/></svg>