<?xml version="1.0" encoding="UTF-8" standalone="no"?>
<!-- Created with Inkscape (http://www.inkscape.org/) -->

<svg
   xmlns:dc="http://purl.org/dc/elements/1.1/"
   xmlns:cc="http://creativecommons.org/ns#"
   xmlns:rdf="http://www.w3.org/1999/02/22-rdf-syntax-ns#"
   xmlns:svg="http://www.w3.org/2000/svg"
   xmlns="http://www.w3.org/2000/svg"
   xmlns:sodipodi="http://sodipodi.sourceforge.net/DTD/sodipodi-0.dtd"
   xmlns:inkscape="http://www.inkscape.org/namespaces/inkscape"
   width="200"
   height="200"
   viewBox="0 0 52.916666 52.916663"
   version="1.1"
   id="svg8"
   inkscape:version="0.92.1 r15371"
   sodipodi:docname="clojure_sun.svg">
  <defs
     id="defs2" />
  <sodipodi:namedview
     id="base"
     pagecolor="#ffffff"
     bordercolor="#666666"
     borderopacity="1.0"
     inkscape:pageopacity="0"
     inkscape:pageshadow="2"
     inkscape:zoom="3.5000448"
     inkscape:cx="-75.49167"
     inkscape:cy="66.939599"
     inkscape:document-units="mm"
     inkscape:current-layer="layer1"
     showgrid="false"
     fit-margin-top="0"
     fit-margin-left="0"
     fit-margin-right="0"
     fit-margin-bottom="0"
     showguides="true"
     inkscape:guide-bbox="true"
     inkscape:window-width="2556"
     inkscape:window-height="1381"
     inkscape:window-x="0"
     inkscape:window-y="57"
     inkscape:window-maximized="0"
     units="px" />
  <metadata
     id="metadata5">
    <rdf:RDF>
      <cc:Work
         rdf:about="">
        <dc:format>image/svg+xml</dc:format>
        <dc:type
           rdf:resource="http://purl.org/dc/dcmitype/StillImage" />
        <dc:title></dc:title>
      </cc:Work>
    </rdf:RDF>
  </metadata>
  <g
     inkscape:label="Layer 1"
     inkscape:groupmode="layer"
     id="layer1"
     transform="translate(-80.679793,-56.544462)">
    <path
       sodipodi:type="star"
       style="opacity:0.5;fill:#ffcc00;fill-opacity:1;stroke:none;stroke-width:5;stroke-linecap:round;stroke-linejoin:bevel;stroke-miterlimit:4;stroke-dasharray:none;stroke-dashoffset:0;stroke-opacity:1"
       id="path163"
       sodipodi:sides="42"
       sodipodi:cx="107.16168"
       sodipodi:cy="83.004616"
       sodipodi:r1="26.539654"
       sodipodi:r2="15.923793"
       sodipodi:arg1="0.74287063"
       sodipodi:arg2="0.81767045"
       inkscape:flatsided="false"
       inkscape:rounded="0"
       inkscape:randomized="0"
       d="m 126.70893,100.95617 -8.65661,-6.334278 5.76274,9.047138 -7.61584,-7.553728 4.34997,9.804988 -6.40496,-8.604448 2.84003,10.343798 -5.051,-9.462948 1.26665,10.651548 -3.5842,-10.110063 -0.33504,10.721363 -2.03734,-10.531341 -1.92923,10.551681 -0.44497,-10.717365 -3.48033,10.146295 1.15735,-10.663984 -4.953687,9.514254 2.733797,-10.372384 -6.316378,8.669674 4.249189,-9.849077 -7.53798,7.631437 5.669658,-9.105765 -8.591193,6.422715 6.963476,-8.159035 -9.452493,5.070532 8.101741,-7.030058 -10.10264,3.605078 9.059027,-5.744036 -10.527111,2.059091 9.813949,-4.329702 -10.716423,0.467109 10.349644,-2.81865 -10.666349,-1.135309 10.654145,-1.244633 -10.378005,-2.712365 10.72065,0.357187 -9.857835,-4.228832 10.547674,1.951027 -9.117456,-5.650833 10.139079,3.501285 -8.173409,-6.946605 9.503995,4.97333 -7.046781,-8.0872 8.656606,6.334279 -5.762739,-9.047141 7.615844,7.55373 -4.349968,-9.804983 6.404953,8.604444 -2.840022,-10.343799 5.050992,9.462948 -1.26664,-10.651551 3.5842,10.110067 0.33503,-10.721365 2.03734,10.531342 1.92923,-10.551681 0.44497,10.717365 3.48033,-10.146291 -1.15734,10.66398 4.95368,-9.514249 -2.7338,10.37238 6.31638,-8.669675 -4.24919,9.849077 7.53798,-7.631434 -5.66965,9.105762 8.59119,-6.422719 -6.96348,8.15904 9.4525,-5.070532 -8.10175,7.030057 10.10264,-3.605077 -9.05902,5.744036 10.52711,-2.059091 -9.81395,4.329701 10.71642,-0.467108 -10.34964,2.818649 10.66635,1.135309 -10.65415,1.244633 10.37801,2.712365 -10.72065,-0.357186 9.85783,4.228831 -10.54767,-1.951027 9.11745,5.650834 -10.13907,-3.501285 8.1734,6.946604 -9.50399,-4.97333 z" />
    <g
       id="g159"
       transform="matrix(0.20658932,0,0,0.20658932,80.71826,56.560671)"
       style="opacity:0.5;stroke-width:1.28072131">
      <path
         style="fill:#ffffff;stroke-width:1.28072131"
         id="path8"
         d="M 127.999,0 C 57.423,0 0,57.423 0,128.001 0,198.585 57.423,256.005 127.999,256.005 198.577,256.005 256,198.585 256,128.001 256,57.423 198.577,0 127.999,0"
         inkscape:connector-curvature="0" />
      <path
         style="fill:#91dc47;stroke-width:1.28072131"
         id="path10"
         d="m 123.318,130.303 c -1.15,2.492 -2.419,5.292 -3.733,8.272 -4.645,10.524 -9.789,23.33 -11.668,31.534 -0.675,2.922 -1.093,6.543 -1.085,10.558 0,1.588 0.085,3.257 0.22,4.957 6.567,2.413 13.66,3.74 21.067,3.753 6.743,-0.013 13.221,-1.127 19.284,-3.143 -1.425,-1.303 -2.785,-2.692 -4.023,-4.257 -8.22,-10.482 -12.806,-25.844 -20.062,-51.674"
         inkscape:connector-curvature="0" />
      <path
         style="fill:#91dc47;stroke-width:1.28072131"
         id="path12"
         d="m 92.97,78.225 c -15.699,11.064 -25.972,29.312 -26.011,49.992 0.039,20.371 10.003,38.383 25.307,49.493 3.754,-15.637 13.164,-29.955 27.275,-58.655 -0.838,-2.302 -1.793,-4.822 -2.862,-7.469 -3.909,-9.806 -9.551,-21.194 -14.586,-26.351 -2.567,-2.694 -5.682,-5.022 -9.123,-7.01"
         inkscape:connector-curvature="0" />
      <path
         style="fill:#63b132;stroke-width:1.28072131"
         id="path14"
         d="m 181.394,198.367 c -8.1,-1.015 -14.785,-2.24 -20.633,-4.303 -9.836,4.884 -20.913,7.643 -32.642,7.643 -40.584,0 -73.483,-32.894 -73.488,-73.49 0,-22.027 9.704,-41.773 25.056,-55.24 -4.106,-0.992 -8.388,-1.571 -12.762,-1.563 -21.562,0.203 -44.323,12.136 -53.799,44.363 -0.886,4.691 -0.675,8.238 -0.675,12.442 0,63.885 51.791,115.676 115.671,115.676 39.122,0 73.682,-19.439 94.611,-49.169 -11.32,2.821 -22.206,4.17 -31.528,4.199 -3.494,0 -6.774,-0.187 -9.811,-0.558"
         inkscape:connector-curvature="0" />
      <path
         style="fill:#90b4fe;stroke-width:1.28072131"
         id="path16"
         d="m 159.658,175.953 c 0.714,0.354 2.333,0.932 4.586,1.571 15.157,-11.127 25.007,-29.05 25.046,-49.307 h -0.006 c -0.057,-33.771 -27.386,-61.096 -61.165,-61.163 -6.714,0.013 -13.164,1.121 -19.203,3.122 12.419,14.156 18.391,34.386 24.168,56.515 0.003,0.01 0.008,0.018 0.01,0.026 0.011,0.018 1.848,6.145 5.002,14.274 3.132,8.118 7.594,18.168 12.46,25.492 3.195,4.908 6.709,8.435 9.102,9.47"
         inkscape:connector-curvature="0" />
      <path
         style="fill:#5881d8;stroke-width:1.28072131"
         id="path18"
         d="m 128.122,12.541 c -38.744,0 -73.016,19.073 -94.008,48.318 10.925,-6.842 22.08,-9.31 31.815,-9.222 13.446,0.039 24.017,4.208 29.089,7.06 1.225,0.706 2.388,1.466 3.527,2.247 9.05,-3.986 19.05,-6.215 29.574,-6.215 40.589,0.005 73.493,32.899 73.499,73.488 h -0.006 c 0,20.464 -8.37,38.967 -21.863,52.291 3.312,0.371 6.844,0.602 10.451,0.584 12.811,0.006 26.658,-2.821 37.039,-11.552 6.769,-5.702 12.44,-14.051 15.585,-26.569 0.615,-4.835 0.969,-9.75 0.969,-14.752 0,-63.882 -51.786,-115.678 -115.671,-115.678"
         inkscape:connector-curvature="0" />
    </g>
    <g
       aria-label="proudly
organising
and hosting the
Clojure meetup
Zürich "
       transform="matrix(0.44183137,0,0,0.44183137,-47.163446,-63.599064)"
       style="font-style:normal;font-variant:normal;font-weight:normal;font-stretch:normal;font-size:12px;line-height:148.00000191%;font-family:Consolas;-inkscape-font-specification:Consolas;text-align:center;letter-spacing:0px;word-spacing:0px;text-anchor:middle;fill:#000000;fill-opacity:1;stroke:none;stroke-width:0.59883326px;stroke-linecap:butt;stroke-linejoin:miter;stroke-opacity:1"
       id="flowRoot10">
      <path
         d="m 328.42578,297.06389 q 0,0.97266 0.68555,1.65821 0.68554,0.68554 1.6582,0.68554 0.97266,0 1.6582,-0.68554 0.68555,-0.68555 0.68555,-1.65821 0,-0.97265 -0.68555,-1.6582 -0.68554,-0.68555 -1.6582,-0.68555 -0.97266,0 -1.6582,0.68555 -0.68555,0.68555 -0.68555,1.6582 z m 0,5.625 q 0,0.19336 -0.14062,0.32813 -0.13477,0.14062 -0.32813,0.14062 -0.19336,0 -0.33398,-0.14062 -0.13477,-0.13477 -0.13477,-0.32813 v -5.625 q 0,-1.35937 0.96094,-2.32031 0.96094,-0.96094 2.32031,-0.96094 1.35938,0 2.32031,0.96094 0.96094,0.96094 0.96094,2.32031 0,1.35938 -0.96094,2.32032 -0.96093,0.96093 -2.32031,0.96093 -1.35937,0 -2.32031,-0.96093 -0.0117,-0.0117 -0.0234,-0.0234 z"
         style="font-style:normal;font-variant:normal;font-weight:normal;font-stretch:normal;line-height:148.00000191%;font-family:Comfortaa;-inkscape-font-specification:Comfortaa;stroke-width:0.59883326px"
         id="path184"
         inkscape:connector-curvature="0" />
      <path
         d="m 334.98828,294.25139 q 0,-0.19336 0.13477,-0.32812 0.14062,-0.14063 0.33398,-0.14063 0.19336,0 0.32813,0.14063 0.14062,0.13476 0.14062,0.32812 v 0.51563 q 0.98438,-0.98438 2.34375,-0.98438 0.68555,0 1.25977,0.23438 0.10547,0.041 0.19336,0.12305 0.13476,0.14062 0.13476,0.33398 0,0.19336 -0.14062,0.33398 -0.13477,0.13477 -0.32813,0.13477 -0.11133,0 -0.20508,-0.0469 -0.41601,-0.17579 -0.91406,-0.17579 -0.97266,0 -1.6582,0.68555 -0.68555,0.68555 -0.68555,1.6582 v 2.8125 q 0,0.19336 -0.14062,0.33399 -0.13477,0.13476 -0.32813,0.13476 -0.19336,0 -0.33398,-0.13476 -0.13477,-0.14063 -0.13477,-0.33399 z"
         style="font-style:normal;font-variant:normal;font-weight:normal;font-stretch:normal;line-height:148.00000191%;font-family:Comfortaa;-inkscape-font-specification:Comfortaa;stroke-width:0.59883326px"
         id="path186"
         inkscape:connector-curvature="0" />
      <path
         d="m 347.17578,297.06389 q 0,1.35938 -0.96094,2.32032 -0.96093,0.96093 -2.32031,0.96093 -1.35937,0 -2.32031,-0.96093 -0.96094,-0.96094 -0.96094,-2.32032 0,-1.35937 0.96094,-2.32031 0.96094,-0.96094 2.32031,-0.96094 1.35938,0 2.32031,0.96094 0.96094,0.96094 0.96094,2.32031 z m -3.28125,-2.34375 q -0.97266,0 -1.6582,0.68555 -0.68555,0.68555 -0.68555,1.6582 0,0.97266 0.68555,1.65821 0.68554,0.68554 1.6582,0.68554 0.97266,0 1.6582,-0.68554 0.68555,-0.68555 0.68555,-1.65821 0,-0.97265 -0.68555,-1.6582 -0.68554,-0.68555 -1.6582,-0.68555 z"
         style="font-style:normal;font-variant:normal;font-weight:normal;font-stretch:normal;line-height:148.00000191%;font-family:Comfortaa;-inkscape-font-specification:Comfortaa;stroke-width:0.59883326px"
         id="path188"
         inkscape:connector-curvature="0" />
      <path
         d="m 354.20703,299.87639 q 0,0.19336 -0.14062,0.33399 -0.13477,0.13476 -0.32813,0.13476 -0.19336,0 -0.33398,-0.13476 -0.13477,-0.14063 -0.13477,-0.33399 v -0.38086 q -0.87891,0.84961 -2.10937,0.84961 -1.25977,0 -2.15625,-0.89062 -0.89063,-0.89649 -0.89063,-2.15625 v -3.04688 q 0,-0.19336 0.13477,-0.32812 0.14062,-0.14063 0.33398,-0.14063 0.19336,0 0.32813,0.14063 0.14062,0.13476 0.14062,0.32812 v 3.04688 q 0,0.87305 0.61524,1.49414 0.62109,0.61523 1.49414,0.61523 0.87304,0 1.48828,-0.61523 0.62109,-0.62109 0.62109,-1.49414 v -3.04688 q 0,-0.19336 0.13477,-0.32812 0.14062,-0.14063 0.33398,-0.14063 0.19336,0 0.32813,0.14063 0.14062,0.13476 0.14062,0.32812 z"
         style="font-style:normal;font-variant:normal;font-weight:normal;font-stretch:normal;line-height:148.00000191%;font-family:Comfortaa;-inkscape-font-specification:Comfortaa;stroke-width:0.59883326px"
         id="path190"
         inkscape:connector-curvature="0" />
      <path
         d="m 360.76953,297.06389 q 0,-0.97265 -0.68555,-1.6582 -0.68554,-0.68555 -1.6582,-0.68555 -0.97266,0 -1.6582,0.68555 -0.68555,0.68555 -0.68555,1.6582 0,0.97266 0.68555,1.65821 0.68554,0.68554 1.6582,0.68554 0.97266,0 1.6582,-0.68554 0.68555,-0.68555 0.68555,-1.65821 z m 0,-5.63671 q 0,-0.19336 0.13477,-0.32813 0.14062,-0.14062 0.33398,-0.14062 0.19336,0 0.32813,0.14062 0.14062,0.13477 0.14062,0.32813 v 5.63671 q 0,1.35938 -0.96094,2.32032 -0.96093,0.96093 -2.32031,0.96093 -1.35937,0 -2.32031,-0.96093 -0.96094,-0.96094 -0.96094,-2.32032 0,-1.35937 0.96094,-2.32031 0.96094,-0.96094 2.32031,-0.96094 1.35938,0 2.32031,0.96094 0.0117,0.0117 0.0234,0.0234 z"
         style="font-style:normal;font-variant:normal;font-weight:normal;font-stretch:normal;line-height:148.00000191%;font-family:Comfortaa;-inkscape-font-specification:Comfortaa;stroke-width:0.59883326px"
         id="path192"
         inkscape:connector-curvature="0" />
      <path
         d="m 362.64453,291.43889 q 0,-0.19336 0.13477,-0.32812 0.14062,-0.14063 0.33398,-0.14063 0.19336,0 0.32813,0.14063 0.14062,0.13476 0.14062,0.32812 v 7.96875 h 0.46875 q 0.19336,0 0.32813,0.14063 0.14062,0.13476 0.14062,0.32812 0,0.19336 -0.14062,0.33399 -0.13477,0.13476 -0.32813,0.13476 h -0.9375 q -0.19336,0 -0.33398,-0.13476 -0.13477,-0.14063 -0.13477,-0.33399 z"
         style="font-style:normal;font-variant:normal;font-weight:normal;font-stretch:normal;line-height:148.00000191%;font-family:Comfortaa;-inkscape-font-specification:Comfortaa;stroke-width:0.59883326px"
         id="path194"
         inkscape:connector-curvature="0" />
      <path
         d="m 367.75977,299.87053 -2.25,-5.40234 q -0.0527,-0.0996 -0.0527,-0.2168 0,-0.19336 0.13477,-0.32812 0.14062,-0.14063 0.33398,-0.14063 0.19336,0 0.33399,0.13477 0.0762,0.082 0.11132,0.17578 l 1.89844,4.55274 1.89844,-4.55274 q 0.0351,-0.0937 0.11719,-0.17578 0.13476,-0.13477 0.32812,-0.13477 0.19336,0 0.32813,0.14063 0.14062,0.13476 0.14062,0.32812 0,0.11719 -0.0527,0.2168 l -3.49219,8.37891 q -0.0352,0.0937 -0.11133,0.16992 -0.14062,0.14062 -0.33398,0.14062 -0.19336,0 -0.33399,-0.14062 -0.13476,-0.13477 -0.13476,-0.32813 0,-0.11718 0.0527,-0.21679 z"
         style="font-style:normal;font-variant:normal;font-weight:normal;font-stretch:normal;line-height:148.00000191%;font-family:Comfortaa;-inkscape-font-specification:Comfortaa;stroke-width:0.59883326px"
         id="path196"
         inkscape:connector-curvature="0" />
      <path
         d="m 317.99469,315.14257 q 0,1.35937 -0.96094,2.32031 -0.96094,0.96094 -2.32031,0.96094 -1.35938,0 -2.32032,-0.96094 -0.96093,-0.96094 -0.96093,-2.32031 0,-1.35938 0.96093,-2.32031 0.96094,-0.96094 2.32032,-0.96094 1.35937,0 2.32031,0.96094 0.96094,0.96093 0.96094,2.32031 z m -3.28125,-2.34375 q -0.97266,0 -1.65821,0.68555 -0.68554,0.68554 -0.68554,1.6582 0,0.97265 0.68554,1.6582 0.68555,0.68555 1.65821,0.68555 0.97265,0 1.6582,-0.68555 0.68555,-0.68555 0.68555,-1.6582 0,-0.97266 -0.68555,-1.6582 -0.68555,-0.68555 -1.6582,-0.68555 z"
         style="font-style:normal;font-variant:normal;font-weight:normal;font-stretch:normal;line-height:148.00000191%;font-family:Comfortaa;-inkscape-font-specification:Comfortaa;letter-spacing:1.68000019px;stroke-width:0.59883326px"
         id="path198"
         inkscape:connector-curvature="0" />
      <path
         d="m 320.61219,312.33007 q 0,-0.19336 0.13476,-0.32813 0.14063,-0.14062 0.33399,-0.14062 0.19336,0 0.32812,0.14062 0.14063,0.13477 0.14063,0.32813 v 0.51562 q 0.98437,-0.98437 2.34375,-0.98437 0.68554,0 1.25976,0.23437 0.10547,0.041 0.19336,0.12305 0.13477,0.14063 0.13477,0.33398 0,0.19336 -0.14063,0.33399 -0.13476,0.13476 -0.32812,0.13476 -0.11133,0 -0.20508,-0.0469 -0.41602,-0.17578 -0.91406,-0.17578 -0.97266,0 -1.65821,0.68555 -0.68554,0.68554 -0.68554,1.6582 v 2.8125 q 0,0.19336 -0.14063,0.33398 -0.13476,0.13477 -0.32812,0.13477 -0.19336,0 -0.33399,-0.13477 -0.13476,-0.14062 -0.13476,-0.33398 z"
         style="font-style:normal;font-variant:normal;font-weight:normal;font-stretch:normal;line-height:148.00000191%;font-family:Comfortaa;-inkscape-font-specification:Comfortaa;letter-spacing:1.68000019px;stroke-width:0.59883326px"
         id="path200"
         inkscape:connector-curvature="0" />
      <path
         d="m 331.19844,312.79882 q -0.97266,0 -1.65821,0.68555 -0.68554,0.68554 -0.68554,1.6582 0,0.97265 0.68554,1.6582 0.68555,0.68555 1.65821,0.68555 0.97265,0 1.6582,-0.68555 0.68555,-0.68555 0.68555,-1.6582 0,-0.97266 -0.68555,-1.6582 -0.68555,-0.68555 -1.6582,-0.68555 z m 2.34375,4.64062 q -0.0117,0.0117 -0.0234,0.0234 -0.96094,0.96094 -2.32031,0.96094 -1.35938,0 -2.32032,-0.96094 -0.96093,-0.96094 -0.96093,-2.32031 0,-1.35938 0.96093,-2.32031 0.96094,-0.96094 2.32032,-0.96094 1.35937,0 2.32031,0.96094 0.96094,0.96093 0.96094,2.32031 v 3.28125 q 0,1.02539 -0.73828,1.78125 -1.03125,1.03125 -2.49024,1.03125 -1.45898,0 -2.48437,-1.03125 -0.38086,-0.375 -0.6211,-0.81445 -0.0703,-0.10547 -0.0703,-0.2461 0,-0.19336 0.13477,-0.33398 0.14062,-0.13477 0.33398,-0.13477 0.19336,0 0.33398,0.13477 0.0586,0.0645 0.0996,0.14062 0.17579,0.31641 0.45118,0.5918 0.75586,0.75586 1.82226,0.75586 1.06641,0 1.82227,-0.75586 0.46875,-0.5625 0.46875,-1.11914 z"
         style="font-style:normal;font-variant:normal;font-weight:normal;font-stretch:normal;line-height:148.00000191%;font-family:Comfortaa;-inkscape-font-specification:Comfortaa;letter-spacing:1.68000019px;stroke-width:0.59883326px"
         id="path202"
         inkscape:connector-curvature="0" />
      <path
         d="m 340.37844,312.79882 q -0.97266,0 -1.65821,0.68555 -0.68554,0.68554 -0.68554,1.6582 0,0.97265 0.68554,1.6582 0.68555,0.68555 1.65821,0.68555 0.97265,0 1.6582,-0.68555 0.68555,-0.68555 0.68555,-1.6582 0,-0.97266 -0.68555,-1.6582 -0.68555,-0.68555 -1.6582,-0.68555 z m 2.34375,4.64062 q -0.98438,0.98438 -2.34375,0.98438 -1.35938,0 -2.32031,-0.96094 -0.96094,-0.96094 -0.96094,-2.32031 0,-1.35938 0.96094,-2.32031 0.96093,-0.96094 2.32031,-0.96094 1.35937,0 2.32031,0.96094 0.96094,0.96093 0.96094,2.32031 v 2.8125 q 0,0.19336 -0.14063,0.33398 -0.13476,0.13477 -0.32812,0.13477 -0.19336,0 -0.33399,-0.13477 -0.13476,-0.14062 -0.13476,-0.33398 z"
         style="font-style:normal;font-variant:normal;font-weight:normal;font-stretch:normal;line-height:148.00000191%;font-family:Comfortaa;-inkscape-font-specification:Comfortaa;letter-spacing:1.68000019px;stroke-width:0.59883326px"
         id="path204"
         inkscape:connector-curvature="0" />
      <path
         d="m 346.27719,312.33007 q 0,-0.19336 0.13476,-0.32813 0.14063,-0.14062 0.33399,-0.14062 0.19336,0 0.32812,0.14062 0.14063,0.13477 0.14063,0.32813 v 0.38086 q 0.8789,-0.84961 2.10937,-0.84961 1.25977,0 2.15039,0.89648 0.89649,0.89063 0.89649,2.15039 v 3.04688 q 0,0.19336 -0.14063,0.33398 -0.13476,0.13477 -0.32812,0.13477 -0.19336,0 -0.33399,-0.13477 -0.13476,-0.14062 -0.13476,-0.33398 v -3.04688 q 0,-0.87304 -0.6211,-1.48828 -0.61523,-0.62109 -1.48828,-0.62109 -0.87304,0 -1.49414,0.62109 -0.61523,0.61524 -0.61523,1.48828 v 3.04688 q 0,0.19336 -0.14063,0.33398 -0.13476,0.13477 -0.32812,0.13477 -0.19336,0 -0.33399,-0.13477 -0.13476,-0.14062 -0.13476,-0.33398 z"
         style="font-style:normal;font-variant:normal;font-weight:normal;font-stretch:normal;line-height:148.00000191%;font-family:Comfortaa;-inkscape-font-specification:Comfortaa;letter-spacing:1.68000019px;stroke-width:0.59883326px"
         id="path206"
         inkscape:connector-curvature="0" />
      <path
         d="m 356.51188,310.45507 q 0,0.24023 -0.17579,0.41601 -0.16992,0.16993 -0.41015,0.16993 -0.24024,0 -0.41602,-0.16993 -0.16992,-0.17578 -0.16992,-0.41601 0,-0.24024 0.16992,-0.41016 0.17578,-0.17578 0.41602,-0.17578 0.24023,0 0.41015,0.17578 0.17579,0.16992 0.17579,0.41016 z m -1.05469,1.875 q 0,-0.19336 0.13476,-0.32813 0.14063,-0.14062 0.33399,-0.14062 0.19336,0 0.32812,0.14062 0.14063,0.13477 0.14063,0.32813 v 5.625 q 0,0.19336 -0.14063,0.33398 -0.13476,0.13477 -0.32812,0.13477 -0.19336,0 -0.33399,-0.13477 -0.13476,-0.14062 -0.13476,-0.33398 z"
         style="font-style:normal;font-variant:normal;font-weight:normal;font-stretch:normal;line-height:148.00000191%;font-family:Comfortaa;-inkscape-font-specification:Comfortaa;letter-spacing:1.68000019px;stroke-width:0.59883326px"
         id="path208"
         inkscape:connector-curvature="0" />
      <path
         d="m 360.64109,315.14257 q -0.5332,-0.19922 -0.74414,-0.41602 -0.41601,-0.41015 -0.41601,-0.99023 0,-0.58008 0.43359,-1.01367 0.84375,-0.86133 2.20313,-0.86133 1.4707,0 2.51953,1.17773 0.0937,0.11133 0.0879,0.27539 0,0.19336 -0.14063,0.33399 -0.13476,0.13476 -0.32812,0.13476 -0.19336,0 -0.31055,-0.12304 -0.11719,-0.12305 -0.16992,-0.17578 -0.68555,-0.68555 -1.6582,-0.68555 -0.97266,0 -1.55274,0.60937 -0.14062,0.16993 -0.14062,0.4043 0.0176,0.27539 0.28711,0.375 l 2.88281,0.95508 q 0.5332,0.19922 0.74414,0.41601 0.41602,0.41016 0.41602,0.99024 0,0.58008 -0.4336,1.01367 -0.84375,0.86133 -2.20312,0.86133 -1.47657,0 -2.51953,-1.17774 -0.0879,-0.12304 -0.0879,-0.27539 0,-0.19336 0.13476,-0.32812 0.14063,-0.14063 0.33399,-0.14063 0.19335,0 0.31054,0.12305 0.11719,0.12305 0.16992,0.17578 0.68555,0.68555 1.65821,0.68555 0.97265,0 1.55273,-0.60938 0.14063,-0.16992 0.14063,-0.40429 -0.0176,-0.27539 -0.28711,-0.375 z"
         style="font-style:normal;font-variant:normal;font-weight:normal;font-stretch:normal;line-height:148.00000191%;font-family:Comfortaa;-inkscape-font-specification:Comfortaa;letter-spacing:1.68000019px;stroke-width:0.59883326px"
         id="path210"
         inkscape:connector-curvature="0" />
      <path
         d="m 368.89531,310.45507 q 0,0.24023 -0.17578,0.41601 -0.16992,0.16993 -0.41015,0.16993 -0.24024,0 -0.41602,-0.16993 -0.16992,-0.17578 -0.16992,-0.41601 0,-0.24024 0.16992,-0.41016 0.17578,-0.17578 0.41602,-0.17578 0.24023,0 0.41015,0.17578 0.17578,0.16992 0.17578,0.41016 z m -1.05468,1.875 q 0,-0.19336 0.13476,-0.32813 0.14063,-0.14062 0.33399,-0.14062 0.19336,0 0.32812,0.14062 0.14063,0.13477 0.14063,0.32813 v 5.625 q 0,0.19336 -0.14063,0.33398 -0.13476,0.13477 -0.32812,0.13477 -0.19336,0 -0.33399,-0.13477 -0.13476,-0.14062 -0.13476,-0.33398 z"
         style="font-style:normal;font-variant:normal;font-weight:normal;font-stretch:normal;line-height:148.00000191%;font-family:Comfortaa;-inkscape-font-specification:Comfortaa;letter-spacing:1.68000019px;stroke-width:0.59883326px"
         id="path212"
         inkscape:connector-curvature="0" />
      <path
         d="m 371.86438,312.33007 q 0,-0.19336 0.13476,-0.32813 0.14063,-0.14062 0.33399,-0.14062 0.19336,0 0.32812,0.14062 0.14063,0.13477 0.14063,0.32813 v 0.38086 q 0.8789,-0.84961 2.10937,-0.84961 1.25977,0 2.15039,0.89648 0.89649,0.89063 0.89649,2.15039 v 3.04688 q 0,0.19336 -0.14063,0.33398 -0.13476,0.13477 -0.32812,0.13477 -0.19336,0 -0.33399,-0.13477 -0.13476,-0.14062 -0.13476,-0.33398 v -3.04688 q 0,-0.87304 -0.6211,-1.48828 -0.61523,-0.62109 -1.48828,-0.62109 -0.87305,0 -1.49414,0.62109 -0.61523,0.61524 -0.61523,1.48828 v 3.04688 q 0,0.19336 -0.14063,0.33398 -0.13476,0.13477 -0.32812,0.13477 -0.19336,0 -0.33399,-0.13477 -0.13476,-0.14062 -0.13476,-0.33398 z"
         style="font-style:normal;font-variant:normal;font-weight:normal;font-stretch:normal;line-height:148.00000191%;font-family:Comfortaa;-inkscape-font-specification:Comfortaa;letter-spacing:1.68000019px;stroke-width:0.59883326px"
         id="path214"
         inkscape:connector-curvature="0" />
      <path
         d="m 383.85688,312.79882 q -0.97266,0 -1.65821,0.68555 -0.68554,0.68554 -0.68554,1.6582 0,0.97265 0.68554,1.6582 0.68555,0.68555 1.65821,0.68555 0.97265,0 1.6582,-0.68555 0.68555,-0.68555 0.68555,-1.6582 0,-0.97266 -0.68555,-1.6582 -0.68555,-0.68555 -1.6582,-0.68555 z m 2.34375,4.64062 q -0.0117,0.0117 -0.0234,0.0234 -0.96094,0.96094 -2.32031,0.96094 -1.35938,0 -2.32032,-0.96094 -0.96093,-0.96094 -0.96093,-2.32031 0,-1.35938 0.96093,-2.32031 0.96094,-0.96094 2.32032,-0.96094 1.35937,0 2.32031,0.96094 0.96094,0.96093 0.96094,2.32031 v 3.28125 q 0,1.02539 -0.73828,1.78125 -1.03125,1.03125 -2.49024,1.03125 -1.45898,0 -2.48437,-1.03125 -0.38086,-0.375 -0.6211,-0.81445 -0.0703,-0.10547 -0.0703,-0.2461 0,-0.19336 0.13477,-0.33398 0.14062,-0.13477 0.33398,-0.13477 0.19336,0 0.33398,0.13477 0.0586,0.0645 0.0996,0.14062 0.17579,0.31641 0.45118,0.5918 0.75586,0.75586 1.82226,0.75586 1.06641,0 1.82227,-0.75586 0.46875,-0.5625 0.46875,-1.11914 z"
         style="font-style:normal;font-variant:normal;font-weight:normal;font-stretch:normal;line-height:148.00000191%;font-family:Comfortaa;-inkscape-font-specification:Comfortaa;letter-spacing:1.68000019px;stroke-width:0.59883326px"
         id="path216"
         inkscape:connector-curvature="0" />
      <path
         d="m 304.70781,330.87749 q -0.97265,0 -1.6582,0.68555 -0.68555,0.68555 -0.68555,1.6582 0,0.97266 0.68555,1.65821 0.68555,0.68554 1.6582,0.68554 0.97266,0 1.65821,-0.68554 0.68554,-0.68555 0.68554,-1.65821 0,-0.97265 -0.68554,-1.6582 -0.68555,-0.68555 -1.65821,-0.68555 z m 2.34375,4.64063 q -0.98437,0.98437 -2.34375,0.98437 -1.35937,0 -2.32031,-0.96093 -0.96094,-0.96094 -0.96094,-2.32032 0,-1.35937 0.96094,-2.32031 0.96094,-0.96094 2.32031,-0.96094 1.35938,0 2.32031,0.96094 0.96094,0.96094 0.96094,2.32031 v 2.8125 q 0,0.19336 -0.14062,0.33399 -0.13477,0.13476 -0.32813,0.13476 -0.19336,0 -0.33398,-0.13476 -0.13477,-0.14063 -0.13477,-0.33399 z"
         style="font-style:normal;font-variant:normal;font-weight:normal;font-stretch:normal;line-height:148.00000191%;font-family:Comfortaa;-inkscape-font-specification:Comfortaa;letter-spacing:0.40000001px;stroke-width:0.59883326px"
         id="path218"
         inkscape:connector-curvature="0" />
      <path
         d="m 309.32656,330.40874 q 0,-0.19336 0.13477,-0.32812 0.14062,-0.14063 0.33398,-0.14063 0.19336,0 0.32813,0.14063 0.14062,0.13476 0.14062,0.32812 v 0.38086 q 0.87891,-0.84961 2.10938,-0.84961 1.25976,0 2.15039,0.89649 0.89648,0.89062 0.89648,2.15039 v 3.04687 q 0,0.19336 -0.14062,0.33399 -0.13477,0.13476 -0.32813,0.13476 -0.19336,0 -0.33398,-0.13476 -0.13477,-0.14063 -0.13477,-0.33399 v -3.04687 q 0,-0.87305 -0.62109,-1.48828 -0.61524,-0.6211 -1.48828,-0.6211 -0.87305,0 -1.49414,0.6211 -0.61524,0.61523 -0.61524,1.48828 v 3.04687 q 0,0.19336 -0.14062,0.33399 -0.13477,0.13476 -0.32813,0.13476 -0.19336,0 -0.33398,-0.13476 -0.13477,-0.14063 -0.13477,-0.33399 z"
         style="font-style:normal;font-variant:normal;font-weight:normal;font-stretch:normal;line-height:148.00000191%;font-family:Comfortaa;-inkscape-font-specification:Comfortaa;letter-spacing:0.40000001px;stroke-width:0.59883326px"
         id="path220"
         inkscape:connector-curvature="0" />
      <path
         d="m 322.38281,333.22124 q 0,-0.97265 -0.68554,-1.6582 -0.68555,-0.68555 -1.65821,-0.68555 -0.97265,0 -1.6582,0.68555 -0.68555,0.68555 -0.68555,1.6582 0,0.97266 0.68555,1.65821 0.68555,0.68554 1.6582,0.68554 0.97266,0 1.65821,-0.68554 0.68554,-0.68555 0.68554,-1.65821 z m 0,-5.63672 q 0,-0.19336 0.13477,-0.32812 0.14062,-0.14063 0.33398,-0.14063 0.19336,0 0.32813,0.14063 0.14062,0.13476 0.14062,0.32812 v 5.63672 q 0,1.35938 -0.96093,2.32032 -0.96094,0.96093 -2.32032,0.96093 -1.35937,0 -2.32031,-0.96093 -0.96094,-0.96094 -0.96094,-2.32032 0,-1.35937 0.96094,-2.32031 0.96094,-0.96094 2.32031,-0.96094 1.35938,0 2.32032,0.96094 0.0117,0.0117 0.0234,0.0234 z"
         style="font-style:normal;font-variant:normal;font-weight:normal;font-stretch:normal;line-height:148.00000191%;font-family:Comfortaa;-inkscape-font-specification:Comfortaa;letter-spacing:0.40000001px;stroke-width:0.59883326px"
         id="path222"
         inkscape:connector-curvature="0" />
      <path
         d="m 328.57344,327.59624 q 0,-0.19336 0.13476,-0.32812 0.14063,-0.14063 0.33399,-0.14063 0.19336,0 0.32812,0.14063 0.14063,0.13476 0.14063,0.32812 v 3.19336 q 0.8789,-0.84961 2.10937,-0.84961 1.25977,0 2.15039,0.89649 0.89649,0.89062 0.89649,2.15039 v 3.04687 q 0,0.19336 -0.14063,0.33399 -0.13476,0.13476 -0.32812,0.13476 -0.19336,0 -0.33399,-0.13476 -0.13476,-0.14063 -0.13476,-0.33399 v -3.04687 q 0,-0.87305 -0.6211,-1.48828 -0.61523,-0.6211 -1.48828,-0.6211 -0.87304,0 -1.49414,0.6211 -0.61523,0.61523 -0.61523,1.48828 v 3.04687 q 0,0.19336 -0.14063,0.33399 -0.13476,0.13476 -0.32812,0.13476 -0.19336,0 -0.33399,-0.13476 -0.13476,-0.14063 -0.13476,-0.33399 z"
         style="font-style:normal;font-variant:normal;font-weight:normal;font-stretch:normal;line-height:148.00000191%;font-family:Comfortaa;-inkscape-font-specification:Comfortaa;letter-spacing:0.40000001px;stroke-width:0.59883326px"
         id="path224"
         inkscape:connector-curvature="0" />
      <path
         d="m 342.56719,333.22124 q 0,1.35938 -0.96094,2.32032 -0.96094,0.96093 -2.32031,0.96093 -1.35938,0 -2.32032,-0.96093 -0.96093,-0.96094 -0.96093,-2.32032 0,-1.35937 0.96093,-2.32031 0.96094,-0.96094 2.32032,-0.96094 1.35937,0 2.32031,0.96094 0.96094,0.96094 0.96094,2.32031 z m -3.28125,-2.34375 q -0.97266,0 -1.65821,0.68555 -0.68554,0.68555 -0.68554,1.6582 0,0.97266 0.68554,1.65821 0.68555,0.68554 1.65821,0.68554 0.97265,0 1.6582,-0.68554 0.68555,-0.68555 0.68555,-1.65821 0,-0.97265 -0.68555,-1.6582 -0.68555,-0.68555 -1.6582,-0.68555 z"
         style="font-style:normal;font-variant:normal;font-weight:normal;font-stretch:normal;line-height:148.00000191%;font-family:Comfortaa;-inkscape-font-specification:Comfortaa;letter-spacing:0.40000001px;stroke-width:0.59883326px"
         id="path226"
         inkscape:connector-curvature="0" />
      <path
         d="m 345.06485,333.22124 q -0.53321,-0.19922 -0.74415,-0.41601 -0.41601,-0.41016 -0.41601,-0.99024 0,-0.58008 0.43359,-1.01367 0.84375,-0.86133 2.20313,-0.86133 1.4707,0 2.51953,1.17774 0.0937,0.11133 0.0879,0.27539 0,0.19336 -0.14063,0.33398 -0.13476,0.13477 -0.32812,0.13477 -0.19336,0 -0.31055,-0.12305 -0.11718,-0.12305 -0.16992,-0.17578 -0.68555,-0.68555 -1.6582,-0.68555 -0.97266,0 -1.55274,0.60938 -0.14062,0.16992 -0.14062,0.40429 0.0176,0.2754 0.28711,0.375 l 2.88281,0.95508 q 0.5332,0.19922 0.74414,0.41602 0.41602,0.41015 0.41602,0.99023 0,0.58008 -0.4336,1.01367 -0.84375,0.86133 -2.20312,0.86133 -1.47656,0 -2.51953,-1.17773 -0.0879,-0.12305 -0.0879,-0.27539 0,-0.19336 0.13476,-0.32813 0.14063,-0.14062 0.33399,-0.14062 0.19336,0 0.31054,0.12304 0.11719,0.12305 0.16992,0.17579 0.68555,0.68554 1.65821,0.68554 0.97265,0 1.55273,-0.60937 0.14063,-0.16992 0.14063,-0.4043 -0.0176,-0.27539 -0.28711,-0.375 z"
         style="font-style:normal;font-variant:normal;font-weight:normal;font-stretch:normal;line-height:148.00000191%;font-family:Comfortaa;-inkscape-font-specification:Comfortaa;letter-spacing:0.40000001px;stroke-width:0.59883326px"
         id="path228"
         inkscape:connector-curvature="0" />
      <path
         d="m 353.79687,335.56499 q 0.19336,0 0.32813,0.14063 0.14062,0.13476 0.14062,0.32812 0,0.19336 -0.14062,0.33399 -0.13477,0.13476 -0.32813,0.13476 -2.34375,0 -2.34375,-2.34375 v -3.28125 h -0.46875 q -0.19336,0 -0.33398,-0.13476 -0.13477,-0.14063 -0.13477,-0.33399 0,-0.19336 0.13477,-0.32812 0.14062,-0.14063 0.33398,-0.14063 h 0.46875 v -2.34375 q 0,-0.19336 0.13477,-0.32812 0.14062,-0.14063 0.33398,-0.14063 0.19336,0 0.32813,0.14063 0.14062,0.13476 0.14062,0.32812 v 2.34375 h 0.94336 q 0.19336,0 0.32813,0.14063 0.14062,0.13476 0.14062,0.32812 0,0.19336 -0.14062,0.33399 -0.13477,0.13476 -0.32813,0.13476 h -0.94336 v 3.28125 q 0,1.40625 1.40625,1.40625 z"
         style="font-style:normal;font-variant:normal;font-weight:normal;font-stretch:normal;line-height:148.00000191%;font-family:Comfortaa;-inkscape-font-specification:Comfortaa;letter-spacing:0.40000001px;stroke-width:0.59883326px"
         id="path230"
         inkscape:connector-curvature="0" />
      <path
         d="m 357.12656,328.53374 q 0,0.24024 -0.17578,0.41602 -0.16992,0.16992 -0.41015,0.16992 -0.24024,0 -0.41602,-0.16992 -0.16992,-0.17578 -0.16992,-0.41602 0,-0.24023 0.16992,-0.41015 0.17578,-0.17578 0.41602,-0.17578 0.24023,0 0.41015,0.17578 0.17578,0.16992 0.17578,0.41015 z m -1.05468,1.875 q 0,-0.19336 0.13476,-0.32812 0.14063,-0.14063 0.33399,-0.14063 0.19336,0 0.32812,0.14063 0.14063,0.13476 0.14063,0.32812 v 5.625 q 0,0.19336 -0.14063,0.33399 -0.13476,0.13476 -0.32812,0.13476 -0.19336,0 -0.33399,-0.13476 -0.13476,-0.14063 -0.13476,-0.33399 z"
         style="font-style:normal;font-variant:normal;font-weight:normal;font-stretch:normal;line-height:148.00000191%;font-family:Comfortaa;-inkscape-font-specification:Comfortaa;letter-spacing:0.40000001px;stroke-width:0.59883326px"
         id="path232"
         inkscape:connector-curvature="0" />
      <path
         d="m 358.81562,330.40874 q 0,-0.19336 0.13477,-0.32812 0.14062,-0.14063 0.33398,-0.14063 0.19336,0 0.32813,0.14063 0.14062,0.13476 0.14062,0.32812 v 0.38086 q 0.87891,-0.84961 2.10938,-0.84961 1.25976,0 2.15039,0.89649 0.89648,0.89062 0.89648,2.15039 v 3.04687 q 0,0.19336 -0.14062,0.33399 -0.13477,0.13476 -0.32813,0.13476 -0.19336,0 -0.33398,-0.13476 -0.13477,-0.14063 -0.13477,-0.33399 v -3.04687 q 0,-0.87305 -0.62109,-1.48828 -0.61523,-0.6211 -1.48828,-0.6211 -0.87305,0 -1.49414,0.6211 -0.61524,0.61523 -0.61524,1.48828 v 3.04687 q 0,0.19336 -0.14062,0.33399 -0.13477,0.13476 -0.32813,0.13476 -0.19336,0 -0.33398,-0.13476 -0.13477,-0.14063 -0.13477,-0.33399 z"
         style="font-style:normal;font-variant:normal;font-weight:normal;font-stretch:normal;line-height:148.00000191%;font-family:Comfortaa;-inkscape-font-specification:Comfortaa;letter-spacing:0.40000001px;stroke-width:0.59883326px"
         id="path234"
         inkscape:connector-curvature="0" />
      <path
         d="m 369.52812,330.87749 q -0.97265,0 -1.6582,0.68555 -0.68555,0.68555 -0.68555,1.6582 0,0.97266 0.68555,1.65821 0.68555,0.68554 1.6582,0.68554 0.97266,0 1.65821,-0.68554 0.68554,-0.68555 0.68554,-1.65821 0,-0.97265 -0.68554,-1.6582 -0.68555,-0.68555 -1.65821,-0.68555 z m 2.34375,4.64063 q -0.0117,0.0117 -0.0234,0.0234 -0.96094,0.96093 -2.32032,0.96093 -1.35937,0 -2.32031,-0.96093 -0.96094,-0.96094 -0.96094,-2.32032 0,-1.35937 0.96094,-2.32031 0.96094,-0.96094 2.32031,-0.96094 1.35938,0 2.32032,0.96094 0.96093,0.96094 0.96093,2.32031 v 3.28125 q 0,1.02539 -0.73828,1.78125 -1.03125,1.03125 -2.49023,1.03125 -1.45899,0 -2.48438,-1.03125 -0.38086,-0.375 -0.62109,-0.81445 -0.0703,-0.10547 -0.0703,-0.24609 0,-0.19336 0.13476,-0.33399 0.14063,-0.13476 0.33399,-0.13476 0.19336,0 0.33398,0.13476 0.0586,0.0645 0.0996,0.14063 0.17578,0.3164 0.45117,0.59179 0.75586,0.75586 1.82227,0.75586 1.06641,0 1.82226,-0.75586 0.46875,-0.5625 0.46875,-1.11914 z"
         style="font-style:normal;font-variant:normal;font-weight:normal;font-stretch:normal;line-height:148.00000191%;font-family:Comfortaa;-inkscape-font-specification:Comfortaa;letter-spacing:0.40000001px;stroke-width:0.59883326px"
         id="path236"
         inkscape:connector-curvature="0" />
      <path
         d="m 381.34375,335.56499 q 0.19336,0 0.32813,0.14063 0.14062,0.13476 0.14062,0.32812 0,0.19336 -0.14062,0.33399 -0.13477,0.13476 -0.32813,0.13476 -2.34375,0 -2.34375,-2.34375 v -3.28125 h -0.46875 q -0.19336,0 -0.33398,-0.13476 -0.13477,-0.14063 -0.13477,-0.33399 0,-0.19336 0.13477,-0.32812 0.14062,-0.14063 0.33398,-0.14063 H 379 v -2.34375 q 0,-0.19336 0.13477,-0.32812 0.14062,-0.14063 0.33398,-0.14063 0.19336,0 0.32813,0.14063 0.14062,0.13476 0.14062,0.32812 v 2.34375 h 0.94336 q 0.19336,0 0.32813,0.14063 0.14062,0.13476 0.14062,0.32812 0,0.19336 -0.14062,0.33399 -0.13477,0.13476 -0.32813,0.13476 h -0.94336 v 3.28125 q 0,1.40625 1.40625,1.40625 z"
         style="font-style:normal;font-variant:normal;font-weight:normal;font-stretch:normal;line-height:148.00000191%;font-family:Comfortaa;-inkscape-font-specification:Comfortaa;letter-spacing:0.40000001px;stroke-width:0.59883326px"
         id="path238"
         inkscape:connector-curvature="0" />
      <path
         d="m 383.15,327.59624 q 0,-0.19336 0.13476,-0.32812 0.14063,-0.14063 0.33399,-0.14063 0.19336,0 0.32812,0.14063 0.14063,0.13476 0.14063,0.32812 v 3.19336 q 0.8789,-0.84961 2.10937,-0.84961 1.25977,0 2.15039,0.89649 0.89649,0.89062 0.89649,2.15039 v 3.04687 q 0,0.19336 -0.14063,0.33399 -0.13476,0.13476 -0.32812,0.13476 -0.19336,0 -0.33399,-0.13476 -0.13476,-0.14063 -0.13476,-0.33399 v -3.04687 q 0,-0.87305 -0.6211,-1.48828 -0.61523,-0.6211 -1.48828,-0.6211 -0.87304,0 -1.49414,0.6211 -0.61523,0.61523 -0.61523,1.48828 v 3.04687 q 0,0.19336 -0.14063,0.33399 -0.13476,0.13476 -0.32812,0.13476 -0.19336,0 -0.33399,-0.13476 Q 383.15,336.2271 383.15,336.03374 Z"
         style="font-style:normal;font-variant:normal;font-weight:normal;font-stretch:normal;line-height:148.00000191%;font-family:Comfortaa;-inkscape-font-specification:Comfortaa;letter-spacing:0.40000001px;stroke-width:0.59883326px"
         id="path240"
         inkscape:connector-curvature="0" />
      <path
         d="m 396.16523,332.75249 q -0.1289,-0.67383 -0.64453,-1.18945 -0.68555,-0.68555 -1.6582,-0.68555 -0.97266,0 -1.6582,0.68555 -0.51563,0.51562 -0.64454,1.18945 z m -0.49804,2.15625 q 0.19336,0 0.32812,0.14063 0.14063,0.13476 0.14063,0.32812 0,0.19336 -0.13477,0.33399 -0.9082,0.79101 -2.13867,0.79101 -1.35938,0 -2.32031,-0.96093 -0.96094,-0.96094 -0.96094,-2.32032 0,-1.35937 0.96094,-2.32031 0.96093,-0.96094 2.32031,-0.96094 1.35937,0 2.32031,0.96094 0.96094,0.96094 0.96094,2.32031 0,0.19336 -0.14063,0.33399 -0.13476,0.13476 -0.32812,0.13476 h -5.11524 q 0.12891,0.67383 0.64454,1.18946 0.68554,0.68554 1.6582,0.68554 0.8789,0 1.51172,-0.55664 0.1289,-0.0996 0.29297,-0.0996 z"
         style="font-style:normal;font-variant:normal;font-weight:normal;font-stretch:normal;line-height:148.00000191%;font-family:Comfortaa;-inkscape-font-specification:Comfortaa;letter-spacing:0.40000001px;stroke-width:0.59883326px"
         id="path242"
         inkscape:connector-curvature="0" />
      <path
         d="m 314.26781,352.74132 q 0.19336,0 0.32813,0.14063 0.14062,0.13476 0.14062,0.32812 0,0.19336 -0.13476,0.32813 -1.30664,1.04297 -2.94727,1.04297 -1.93945,0 -3.31641,-1.3711 -1.37109,-1.37695 -1.37109,-3.3164 0,-1.93946 1.37109,-3.31055 1.37696,-1.37695 3.31641,-1.37695 1.67578,0 2.98242,1.07226 0.13477,0.14063 0.13477,0.33399 0,0.19336 -0.14063,0.33398 -0.13476,0.13477 -0.32812,0.13477 -0.19336,0 -0.33399,-0.14063 -0.99023,-0.79687 -2.31445,-0.79687 -1.55273,0 -2.6543,1.10156 -1.0957,1.0957 -1.0957,2.64844 0,1.55273 1.0957,2.65429 1.10157,1.09571 2.6543,1.09571 1.3418,0 2.34375,-0.82032 0.11719,-0.082 0.26953,-0.082 z"
         style="font-style:normal;font-variant:normal;font-weight:normal;font-stretch:normal;line-height:148.00000191%;font-family:Comfortaa;-inkscape-font-specification:Comfortaa;letter-spacing:-0.28999999px;stroke-width:0.59883326px"
         id="path244"
         inkscape:connector-curvature="0" />
      <path
         d="m 315.34891,345.67492 q 0,-0.19336 0.13476,-0.32813 0.14063,-0.14062 0.33399,-0.14062 0.19336,0 0.32812,0.14062 0.14063,0.13477 0.14063,0.32813 v 7.96875 h 0.46875 q 0.19336,0 0.32812,0.14062 0.14063,0.13477 0.14063,0.32813 0,0.19336 -0.14063,0.33398 -0.13476,0.13477 -0.32812,0.13477 h -0.9375 q -0.19336,0 -0.33399,-0.13477 -0.13476,-0.14062 -0.13476,-0.33398 z"
         style="font-style:normal;font-variant:normal;font-weight:normal;font-stretch:normal;line-height:148.00000191%;font-family:Comfortaa;-inkscape-font-specification:Comfortaa;letter-spacing:-0.28999999px;stroke-width:0.59883326px"
         id="path246"
         inkscape:connector-curvature="0" />
      <path
         d="m 324.43391,351.29992 q 0,1.35937 -0.96094,2.32031 -0.96094,0.96094 -2.32031,0.96094 -1.35938,0 -2.32032,-0.96094 -0.96093,-0.96094 -0.96093,-2.32031 0,-1.35938 0.96093,-2.32032 0.96094,-0.96093 2.32032,-0.96093 1.35937,0 2.32031,0.96093 0.96094,0.96094 0.96094,2.32032 z m -3.28125,-2.34375 q -0.97266,0 -1.65821,0.68554 -0.68554,0.68555 -0.68554,1.65821 0,0.97265 0.68554,1.6582 0.68555,0.68555 1.65821,0.68555 0.97265,0 1.6582,-0.68555 0.68555,-0.68555 0.68555,-1.6582 0,-0.97266 -0.68555,-1.65821 -0.68555,-0.68554 -1.6582,-0.68554 z"
         style="font-style:normal;font-variant:normal;font-weight:normal;font-stretch:normal;line-height:148.00000191%;font-family:Comfortaa;-inkscape-font-specification:Comfortaa;letter-spacing:-0.28999999px;stroke-width:0.59883326px"
         id="path248"
         inkscape:connector-curvature="0" />
      <path
         d="m 326.83922,346.61242 q 0,0.24023 -0.17578,0.41601 -0.16993,0.16992 -0.41016,0.16992 -0.24023,0 -0.41602,-0.16992 -0.16992,-0.17578 -0.16992,-0.41601 0,-0.24024 0.16992,-0.41016 0.17579,-0.17578 0.41602,-0.17578 0.24023,0 0.41016,0.17578 0.17578,0.16992 0.17578,0.41016 z m -1.05469,7.96875 v -6.09375 q 0,-0.19336 0.13477,-0.32813 0.14062,-0.14062 0.33398,-0.14062 0.19336,0 0.32813,0.14062 0.14062,0.13477 0.14062,0.32813 v 6.09375 q 0,1.16601 -0.82617,1.98633 -0.82031,0.82617 -1.98633,0.82617 -0.19336,0 -0.33398,-0.14063 -0.13477,-0.13476 -0.13477,-0.32812 0,-0.19336 0.13477,-0.33399 0.14062,-0.13476 0.33398,-0.13476 0.7793,0 1.32422,-0.55078 0.55078,-0.54493 0.55078,-1.32422 z"
         style="font-style:normal;font-variant:normal;font-weight:normal;font-stretch:normal;line-height:148.00000191%;font-family:Comfortaa;-inkscape-font-specification:Comfortaa;letter-spacing:-0.28999999px;stroke-width:0.59883326px"
         id="path250"
         inkscape:connector-curvature="0" />
      <path
         d="m 333.55703,354.11242 q 0,0.19336 -0.14062,0.33398 -0.13477,0.13477 -0.32813,0.13477 -0.19336,0 -0.33398,-0.13477 -0.13477,-0.14062 -0.13477,-0.33398 v -0.38086 q -0.8789,0.84961 -2.10937,0.84961 -1.25977,0 -2.15625,-0.89063 -0.89063,-0.89648 -0.89063,-2.15625 v -3.04687 q 0,-0.19336 0.13477,-0.32813 0.14062,-0.14062 0.33398,-0.14062 0.19336,0 0.32813,0.14062 0.14062,0.13477 0.14062,0.32813 v 3.04687 q 0,0.87305 0.61524,1.49414 0.62109,0.61524 1.49414,0.61524 0.87304,0 1.48828,-0.61524 0.62109,-0.62109 0.62109,-1.49414 v -3.04687 q 0,-0.19336 0.13477,-0.32813 0.14062,-0.14062 0.33398,-0.14062 0.19336,0 0.32813,0.14062 0.14062,0.13477 0.14062,0.32813 z"
         style="font-style:normal;font-variant:normal;font-weight:normal;font-stretch:normal;line-height:148.00000191%;font-family:Comfortaa;-inkscape-font-specification:Comfortaa;letter-spacing:-0.28999999px;stroke-width:0.59883326px"
         id="path252"
         inkscape:connector-curvature="0" />
      <path
         d="m 334.20453,348.48742 q 0,-0.19336 0.13477,-0.32813 0.14062,-0.14062 0.33398,-0.14062 0.19336,0 0.32813,0.14062 0.14062,0.13477 0.14062,0.32813 v 0.51562 q 0.98438,-0.98437 2.34375,-0.98437 0.68555,0 1.25977,0.23437 0.10546,0.041 0.19336,0.12305 0.13476,0.14062 0.13476,0.33398 0,0.19336 -0.14062,0.33399 -0.13477,0.13476 -0.32813,0.13476 -0.11133,0 -0.20508,-0.0469 -0.41601,-0.17578 -0.91406,-0.17578 -0.97266,0 -1.6582,0.68554 -0.68555,0.68555 -0.68555,1.65821 v 2.8125 q 0,0.19336 -0.14062,0.33398 -0.13477,0.13477 -0.32813,0.13477 -0.19336,0 -0.33398,-0.13477 -0.13477,-0.14062 -0.13477,-0.33398 z"
         style="font-style:normal;font-variant:normal;font-weight:normal;font-stretch:normal;line-height:148.00000191%;font-family:Comfortaa;-inkscape-font-specification:Comfortaa;letter-spacing:-0.28999999px;stroke-width:0.59883326px"
         id="path254"
         inkscape:connector-curvature="0" />
      <path
         d="m 345.12351,350.83117 q -0.1289,-0.67383 -0.64453,-1.18946 -0.68554,-0.68554 -1.6582,-0.68554 -0.97266,0 -1.6582,0.68554 -0.51563,0.51563 -0.64453,1.18946 z m -0.49804,2.15625 q 0.19336,0 0.32812,0.14062 0.14063,0.13477 0.14063,0.32813 0,0.19336 -0.13477,0.33398 -0.9082,0.79102 -2.13867,0.79102 -1.35938,0 -2.32031,-0.96094 -0.96094,-0.96094 -0.96094,-2.32031 0,-1.35938 0.96094,-2.32032 0.96093,-0.96093 2.32031,-0.96093 1.35937,0 2.32031,0.96093 0.96094,0.96094 0.96094,2.32032 0,0.19336 -0.14063,0.33398 -0.13476,0.13477 -0.32812,0.13477 h -5.11523 q 0.1289,0.67383 0.64453,1.18945 0.68554,0.68555 1.6582,0.68555 0.87891,0 1.51172,-0.55664 0.1289,-0.0996 0.29297,-0.0996 z"
         style="font-style:normal;font-variant:normal;font-weight:normal;font-stretch:normal;line-height:148.00000191%;font-family:Comfortaa;-inkscape-font-specification:Comfortaa;letter-spacing:-0.28999999px;stroke-width:0.59883326px"
         id="path256"
         inkscape:connector-curvature="0" />
      <path
         d="m 350.91266,354.11242 q 0,0.19336 -0.14063,0.33398 -0.13476,0.13477 -0.32812,0.13477 -0.19336,0 -0.33399,-0.13477 -0.13476,-0.14062 -0.13476,-0.33398 v -5.625 q 0,-0.19336 0.13476,-0.32813 0.14063,-0.14062 0.33399,-0.14062 0.19336,0 0.32812,0.14062 0.14063,0.13477 0.14063,0.32813 v 0.12304 q 0.69726,-0.59179 1.64062,-0.59179 1.06641,0 1.82227,0.75586 0.1582,0.1582 0.28711,0.33398 0.1289,-0.17578 0.28711,-0.33398 0.75586,-0.75586 1.82226,-0.75586 1.06641,0 1.82227,0.75586 0.75586,0.75586 0.75586,1.82226 v 3.51563 q 0,0.19336 -0.14063,0.33398 -0.13476,0.13477 -0.32812,0.13477 -0.19336,0 -0.33399,-0.13477 -0.13476,-0.14062 -0.13476,-0.33398 v -3.51563 q 0,-0.67969 -0.48047,-1.16015 -0.48047,-0.48047 -1.16016,-0.48047 -0.67969,0 -1.16015,0.48047 -0.48047,0.48046 -0.48047,1.16015 v 3.51563 q 0,0.19336 -0.14063,0.33398 -0.13476,0.13477 -0.32812,0.13477 -0.19336,0 -0.33399,-0.13477 -0.13476,-0.14062 -0.13476,-0.33398 v -3.51563 q 0,-0.67969 -0.48047,-1.16015 -0.48047,-0.48047 -1.16016,-0.48047 -0.67969,0 -1.16015,0.48047 -0.48047,0.48046 -0.48047,1.16015 z"
         style="font-style:normal;font-variant:normal;font-weight:normal;font-stretch:normal;line-height:148.00000191%;font-family:Comfortaa;-inkscape-font-specification:Comfortaa;letter-spacing:-0.28999999px;stroke-width:0.59883326px"
         id="path258"
         inkscape:connector-curvature="0" />
      <path
         d="m 365.58164,350.83117 q -0.12891,-0.67383 -0.64453,-1.18946 -0.68555,-0.68554 -1.6582,-0.68554 -0.97266,0 -1.65821,0.68554 -0.51562,0.51563 -0.64453,1.18946 z m -0.49805,2.15625 q 0.19336,0 0.32813,0.14062 0.14062,0.13477 0.14062,0.32813 0,0.19336 -0.13476,0.33398 -0.90821,0.79102 -2.13867,0.79102 -1.35938,0 -2.32032,-0.96094 -0.96093,-0.96094 -0.96093,-2.32031 0,-1.35938 0.96093,-2.32032 0.96094,-0.96093 2.32032,-0.96093 1.35937,0 2.32031,0.96093 0.96094,0.96094 0.96094,2.32032 0,0.19336 -0.14063,0.33398 -0.13477,0.13477 -0.32812,0.13477 h -5.11524 q 0.12891,0.67383 0.64453,1.18945 0.68555,0.68555 1.65821,0.68555 0.8789,0 1.51171,-0.55664 0.12891,-0.0996 0.29297,-0.0996 z"
         style="font-style:normal;font-variant:normal;font-weight:normal;font-stretch:normal;line-height:148.00000191%;font-family:Comfortaa;-inkscape-font-specification:Comfortaa;letter-spacing:-0.28999999px;stroke-width:0.59883326px"
         id="path260"
         inkscape:connector-curvature="0" />
      <path
         d="m 372.79164,350.83117 q -0.12891,-0.67383 -0.64453,-1.18946 -0.68555,-0.68554 -1.65821,-0.68554 -0.97265,0 -1.6582,0.68554 -0.51562,0.51563 -0.64453,1.18946 z m -0.49805,2.15625 q 0.19336,0 0.32813,0.14062 0.14062,0.13477 0.14062,0.32813 0,0.19336 -0.13476,0.33398 -0.90821,0.79102 -2.13868,0.79102 -1.35937,0 -2.32031,-0.96094 -0.96094,-0.96094 -0.96094,-2.32031 0,-1.35938 0.96094,-2.32032 0.96094,-0.96093 2.32031,-0.96093 1.35938,0 2.32032,0.96093 0.96093,0.96094 0.96093,2.32032 0,0.19336 -0.14062,0.33398 -0.13477,0.13477 -0.32813,0.13477 h -5.11523 q 0.12891,0.67383 0.64453,1.18945 0.68555,0.68555 1.6582,0.68555 0.87891,0 1.51172,-0.55664 0.12891,-0.0996 0.29297,-0.0996 z"
         style="font-style:normal;font-variant:normal;font-weight:normal;font-stretch:normal;line-height:148.00000191%;font-family:Comfortaa;-inkscape-font-specification:Comfortaa;letter-spacing:-0.28999999px;stroke-width:0.59883326px"
         id="path262"
         inkscape:connector-curvature="0" />
      <path
         d="m 377.18328,353.64367 q 0.19336,0 0.32812,0.14062 0.14063,0.13477 0.14063,0.32813 0,0.19336 -0.14063,0.33398 -0.13476,0.13477 -0.32812,0.13477 -2.34375,0 -2.34375,-2.34375 v -3.28125 h -0.46875 q -0.19336,0 -0.33399,-0.13477 -0.13476,-0.14062 -0.13476,-0.33398 0,-0.19336 0.13476,-0.32813 0.14063,-0.14062 0.33399,-0.14062 h 0.46875 v -2.34375 q 0,-0.19336 0.13476,-0.32813 0.14063,-0.14062 0.33399,-0.14062 0.19336,0 0.32812,0.14062 0.14063,0.13477 0.14063,0.32813 v 2.34375 h 0.94336 q 0.19336,0 0.32812,0.14062 0.14063,0.13477 0.14063,0.32813 0,0.19336 -0.14063,0.33398 -0.13476,0.13477 -0.32812,0.13477 h -0.94336 v 3.28125 q 0,1.40625 1.40625,1.40625 z"
         style="font-style:normal;font-variant:normal;font-weight:normal;font-stretch:normal;line-height:148.00000191%;font-family:Comfortaa;-inkscape-font-specification:Comfortaa;letter-spacing:-0.28999999px;stroke-width:0.59883326px"
         id="path264"
         inkscape:connector-curvature="0" />
      <path
         d="m 384.39328,354.11242 q 0,0.19336 -0.14063,0.33398 -0.13476,0.13477 -0.32812,0.13477 -0.19336,0 -0.33399,-0.13477 -0.13476,-0.14062 -0.13476,-0.33398 v -0.38086 q -0.87891,0.84961 -2.10938,0.84961 -1.25976,0 -2.15625,-0.89063 -0.89062,-0.89648 -0.89062,-2.15625 v -3.04687 q 0,-0.19336 0.13476,-0.32813 0.14063,-0.14062 0.33399,-0.14062 0.19336,0 0.32812,0.14062 0.14063,0.13477 0.14063,0.32813 v 3.04687 q 0,0.87305 0.61523,1.49414 0.6211,0.61524 1.49414,0.61524 0.87305,0 1.48828,-0.61524 0.6211,-0.62109 0.6211,-1.49414 v -3.04687 q 0,-0.19336 0.13476,-0.32813 0.14063,-0.14062 0.33399,-0.14062 0.19336,0 0.32812,0.14062 0.14063,0.13477 0.14063,0.32813 z"
         style="font-style:normal;font-variant:normal;font-weight:normal;font-stretch:normal;line-height:148.00000191%;font-family:Comfortaa;-inkscape-font-specification:Comfortaa;letter-spacing:-0.28999999px;stroke-width:0.59883326px"
         id="path266"
         inkscape:connector-curvature="0" />
      <path
         d="m 385.97828,351.29992 q 0,0.97265 0.68555,1.6582 0.68555,0.68555 1.6582,0.68555 0.97266,0 1.65821,-0.68555 0.68554,-0.68555 0.68554,-1.6582 0,-0.97266 -0.68554,-1.65821 -0.68555,-0.68554 -1.65821,-0.68554 -0.97265,0 -1.6582,0.68554 -0.68555,0.68555 -0.68555,1.65821 z m 0,5.625 q 0,0.19336 -0.14062,0.32812 -0.13477,0.14063 -0.32813,0.14063 -0.19335,0 -0.33398,-0.14063 -0.13477,-0.13476 -0.13477,-0.32812 v -5.625 q 0,-1.35938 0.96094,-2.32032 0.96094,-0.96093 2.32031,-0.96093 1.35938,0 2.32032,0.96093 0.96093,0.96094 0.96093,2.32032 0,1.35937 -0.96093,2.32031 -0.96094,0.96094 -2.32032,0.96094 -1.35937,0 -2.32031,-0.96094 -0.0117,-0.0117 -0.0234,-0.0234 z"
         style="font-style:normal;font-variant:normal;font-weight:normal;font-stretch:normal;line-height:148.00000191%;font-family:Comfortaa;-inkscape-font-specification:Comfortaa;letter-spacing:-0.28999999px;stroke-width:0.59883326px"
         id="path268"
         inkscape:connector-curvature="0" />
      <path
         d="m 331.47266,364.22234 q -0.19336,0 -0.33399,-0.13476 -0.13476,-0.14063 -0.13476,-0.33399 0,-0.19336 0.13476,-0.32812 0.14063,-0.14063 0.33399,-0.14063 h 6.5625 q 0.19336,0 0.32812,0.14063 0.14063,0.13476 0.14063,0.32812 0,0.15235 -0.082,0.26953 l -5.98828,7.69922 h 5.60157 q 0.19336,0 0.32812,0.14063 0.14063,0.13476 0.14063,0.32812 0,0.19336 -0.14063,0.33399 -0.13476,0.13476 -0.32812,0.13476 h -6.5625 q -0.19336,0 -0.33399,-0.13476 -0.13476,-0.14063 -0.13476,-0.33399 0,-0.16406 0.0996,-0.29297 l 5.9707,-7.67578 z"
         style="font-style:normal;font-variant:normal;font-weight:normal;font-stretch:normal;line-height:148.00000191%;font-family:Comfortaa;-inkscape-font-specification:Comfortaa;stroke-width:0.59883326px"
         id="path270"
         inkscape:connector-curvature="0" />
      <path
         d="m 345.53516,372.19109 q 0,0.19336 -0.14063,0.33399 -0.13476,0.13476 -0.32812,0.13476 -0.19336,0 -0.33399,-0.13476 -0.13476,-0.14063 -0.13476,-0.33399 v -0.38086 q -0.87891,0.84961 -2.10938,0.84961 -1.25976,0 -2.15625,-0.89062 -0.89062,-0.89649 -0.89062,-2.15625 v -3.04688 q 0,-0.19336 0.13476,-0.32812 0.14063,-0.14063 0.33399,-0.14063 0.19336,0 0.32812,0.14063 0.14063,0.13476 0.14063,0.32812 v 3.04688 q 0,0.87304 0.61523,1.49414 0.62109,0.61523 1.49414,0.61523 0.87305,0 1.48828,-0.61523 0.6211,-0.6211 0.6211,-1.49414 v -3.04688 q 0,-0.19336 0.13476,-0.32812 0.14063,-0.14063 0.33399,-0.14063 0.19336,0 0.32812,0.14063 0.14063,0.13476 0.14063,0.32812 z m -3.86719,-7.5 q 0,0.24024 -0.17578,0.41602 -0.16992,0.16992 -0.41016,0.16992 -0.24023,0 -0.41601,-0.16992 -0.16993,-0.17578 -0.16993,-0.41602 0,-0.24023 0.16993,-0.41015 0.17578,-0.17579 0.41601,-0.17579 0.24024,0 0.41016,0.17579 0.17578,0.16992 0.17578,0.41015 z m 2.8125,0 q 0,0.24024 -0.17578,0.41602 -0.16992,0.16992 -0.41016,0.16992 -0.24023,0 -0.41601,-0.16992 -0.16993,-0.17578 -0.16993,-0.41602 0,-0.24023 0.16993,-0.41015 0.17578,-0.17579 0.41601,-0.17579 0.24024,0 0.41016,0.17579 0.17578,0.16992 0.17578,0.41015 z"
         style="font-style:normal;font-variant:normal;font-weight:normal;font-stretch:normal;line-height:148.00000191%;font-family:Comfortaa;-inkscape-font-specification:Comfortaa;stroke-width:0.59883326px"
         id="path272"
         inkscape:connector-curvature="0" />
      <path
         d="m 346.47266,366.56609 q 0,-0.19336 0.13476,-0.32812 0.14063,-0.14063 0.33399,-0.14063 0.19336,0 0.32812,0.14063 0.14063,0.13476 0.14063,0.32812 v 0.51563 q 0.98437,-0.98438 2.34375,-0.98438 0.68554,0 1.25976,0.23438 0.10547,0.041 0.19336,0.12304 0.13477,0.14063 0.13477,0.33399 0,0.19336 -0.14063,0.33398 -0.13476,0.13477 -0.32812,0.13477 -0.11133,0 -0.20508,-0.0469 -0.41602,-0.17578 -0.91406,-0.17578 -0.97266,0 -1.65821,0.68555 -0.68554,0.68555 -0.68554,1.6582 v 2.8125 q 0,0.19336 -0.14063,0.33399 -0.13476,0.13476 -0.32812,0.13476 -0.19336,0 -0.33399,-0.13476 -0.13476,-0.14063 -0.13476,-0.33399 z"
         style="font-style:normal;font-variant:normal;font-weight:normal;font-stretch:normal;line-height:148.00000191%;font-family:Comfortaa;-inkscape-font-specification:Comfortaa;stroke-width:0.59883326px"
         id="path274"
         inkscape:connector-curvature="0" />
      <path
         d="m 353.62109,364.69109 q 0,0.24024 -0.17578,0.41602 -0.16992,0.16992 -0.41015,0.16992 -0.24024,0 -0.41602,-0.16992 -0.16992,-0.17578 -0.16992,-0.41602 0,-0.24023 0.16992,-0.41015 0.17578,-0.17579 0.41602,-0.17579 0.24023,0 0.41015,0.17579 0.17578,0.16992 0.17578,0.41015 z m -1.05468,1.875 q 0,-0.19336 0.13476,-0.32812 0.14063,-0.14063 0.33399,-0.14063 0.19336,0 0.32812,0.14063 0.14063,0.13476 0.14063,0.32812 v 5.625 q 0,0.19336 -0.14063,0.33399 -0.13476,0.13476 -0.32812,0.13476 -0.19336,0 -0.33399,-0.13476 -0.13476,-0.14063 -0.13476,-0.33399 z"
         style="font-style:normal;font-variant:normal;font-weight:normal;font-stretch:normal;line-height:148.00000191%;font-family:Comfortaa;-inkscape-font-specification:Comfortaa;stroke-width:0.59883326px"
         id="path276"
         inkscape:connector-curvature="0" />
      <path
         d="m 360.00781,371.05437 q 0.19336,0 0.32813,0.14063 0.14062,0.13476 0.14062,0.32812 0,0.19336 -0.14648,0.34571 -0.90821,0.79101 -2.13867,0.79101 -1.35938,0 -2.32032,-0.96094 -0.96093,-0.96093 -0.96093,-2.32031 0,-1.35937 0.96093,-2.32031 0.96094,-0.96094 2.32032,-0.96094 1.23046,0 2.13867,0.79102 0.16406,0.14648 0.16406,0.36328 0,0.19336 -0.14062,0.33398 -0.13477,0.13477 -0.32813,0.13477 -0.16992,0 -0.29883,-0.10547 -0.65625,-0.58008 -1.53515,-0.58008 -0.97266,0 -1.65821,0.68555 -0.68554,0.68555 -0.68554,1.6582 0,0.97266 0.68554,1.6582 0.68555,0.68555 1.65821,0.68555 0.8789,0 1.52929,-0.57422 0.12305,-0.0937 0.28711,-0.0937 z"
         style="font-style:normal;font-variant:normal;font-weight:normal;font-stretch:normal;line-height:148.00000191%;font-family:Comfortaa;-inkscape-font-specification:Comfortaa;stroke-width:0.59883326px"
         id="path278"
         inkscape:connector-curvature="0" />
      <path
         d="m 361.47266,363.75359 q 0,-0.19336 0.13476,-0.32812 0.14063,-0.14063 0.33399,-0.14063 0.19336,0 0.32812,0.14063 0.14063,0.13476 0.14063,0.32812 v 3.19336 q 0.8789,-0.84961 2.10937,-0.84961 1.25977,0 2.15039,0.89649 0.89649,0.89062 0.89649,2.15039 v 3.04687 q 0,0.19336 -0.14063,0.33399 -0.13476,0.13476 -0.32812,0.13476 -0.19336,0 -0.33399,-0.13476 -0.13476,-0.14063 -0.13476,-0.33399 v -3.04687 q 0,-0.87305 -0.6211,-1.48828 -0.61523,-0.6211 -1.48828,-0.6211 -0.87305,0 -1.49414,0.6211 -0.61523,0.61523 -0.61523,1.48828 v 3.04687 q 0,0.19336 -0.14063,0.33399 -0.13476,0.13476 -0.32812,0.13476 -0.19336,0 -0.33399,-0.13476 -0.13476,-0.14063 -0.13476,-0.33399 z"
         style="font-style:normal;font-variant:normal;font-weight:normal;font-stretch:normal;line-height:148.00000191%;font-family:Comfortaa;-inkscape-font-specification:Comfortaa;stroke-width:0.59883326px"
         id="path280"
         inkscape:connector-curvature="0" />
    </g>
  </g>
</svg>
