<svg id="Layer_1" data-name="Layer 1" xmlns="http://www.w3.org/2000/svg" viewBox="0 0 362 362">
  <defs>
    <style>
      .cls-1 {
        fill: #e41f3d;
      }
    </style>
  </defs>
  <title>OTOL-Logo_vr</title>
  <g>
    <path class="cls-1" d="M303.58,211.8H58.42L181,42.87ZM78.7,201.46H283.3L181,60.47Z"/>
    <g>
      <path class="cls-1" d="M161.79,176.28c-.22.43-.54.75-.8.75s-.48-.22-.69-.64c-6-11.81-10.85-21.43-17.39-35.47-.43-.85-.43-1,.26-1h9c.48,0,.8,0,1,.43,1.76,4.41,8.14,19.57,8.14,19.57s5.85-15,7.39-19.36c.16-.48.42-.64,1.06-.64H178c.7,0,.75,0,.32,1C171.57,155.49,168.33,162.29,161.79,176.28Z"/>
      <path class="cls-1" d="M218.37,176H209c-.43,0-.64-.1-1.12-1.06-1.81-3.46-5.69-9.57-5.69-9.57l-6.12.11v10c0,.42-.05.47-.42.47h-8.72c-.43,0-.43.06-.43-.47v-35.1c0-.53.27-.48.43-.48h16.48c8.19,0,12.55,5.64,12.55,12.18,0,4.89-1.7,8.35-4.94,9.89,1.38,2.18,4.41,7.55,7.5,12.55C219.11,175.64,219,176,218.37,176ZM201.3,147.88H196v10.43l5.32-.16c2.87-.11,4.47-2.24,4.47-5.32C205.82,150,204.38,147.88,201.3,147.88Z"/>
    </g>
    <path class="cls-1" d="M123.19,275c-.14.29-.36.51-.54.51s-.32-.15-.47-.43c-4.08-8-7.36-14.55-11.8-24.07-.29-.58-.29-.65.18-.65h6.14c.32,0,.54,0,.65.28,1.19,3,5.52,13.29,5.52,13.29s4-10.18,5-13.14c.11-.32.29-.43.73-.43h5.59c.47,0,.51,0,.22.65C129.83,260.88,127.63,265.5,123.19,275Z"/>
    <g>
      <path class="cls-1" d="M155.1,275.43a12.8,12.8,0,1,1,12.81-12.78A12.65,12.65,0,0,1,155.1,275.43Zm0-19.42c-3.9,0-6.07,2.93-6.07,6.64s2.17,6.61,6.07,6.61,6.06-2.89,6.06-6.61S158.92,256,155.1,256Z"/>
      <path class="cls-1" d="M186,274.81h-6c-.33,0-.33,0-.33-.32V250.67c0-.36,0-.32.33-.32h6c.32,0,.36,0,.36.32v23.82C186.35,274.78,186.31,274.81,186,274.81Z"/>
      <path class="cls-1" d="M211,275.43a12.8,12.8,0,0,1-.18-25.59c5.95,0,9.6,3.21,11.22,6.89.18.44,0,.58-.11.65l-5.37,2.1c-.22.07-.26,0-.33-.18a5.42,5.42,0,0,0-5.27-3.29c-3.61,0-5.92,2.85-5.92,6.71,0,4.52,3,6.57,6,6.57a5.26,5.26,0,0,0,5.05-3c.11-.18.15-.32.44-.25l5.41,1.48c.36.07.4.25.32.47A12.12,12.12,0,0,1,211,275.43Z"/>
      <path class="cls-1" d="M250.19,274.81h-16.5c-.36,0-.39-.07-.39-.5v-23.6c0-.33,0-.36.32-.36h16.31c.36,0,.4,0,.4.47v4.4c0,.32-.11.5-.4.5l-10.32-.1v4.07h10.11c.32,0,.36.08.36.51v4.4c0,.43,0,.51-.36.51H239.61v4.18l10.58-.11c.39,0,.39,0,.39.47v4.66C250.58,274.74,250.55,274.81,250.19,274.81Z"/>
    </g>
    <path class="cls-1" d="M89.85,318.52H83.46c-.29,0-.43-.08-.76-.73-1.22-2.34-3.86-6.49-3.86-6.49l-4.15.07v6.82c0,.29,0,.33-.29.33H68.48c-.28,0-.28,0-.28-.33V294.37c0-.36.18-.32.28-.32H79.67c5.56,0,8.52,3.82,8.52,8.26,0,3.32-1.16,5.67-3.36,6.71.94,1.48,3,5.13,5.09,8.52C90.35,318.26,90.25,318.52,89.85,318.52ZM78.26,299.43H74.69v7.07l3.61-.11c2-.07,3-1.51,3-3.61C81.33,300.87,80.36,299.43,78.26,299.43Z"/>
    <g>
      <path class="cls-1" d="M117.82,318.52h-16.5c-.36,0-.39-.08-.39-.51v-23.6c0-.33,0-.36.32-.36h16.31c.36,0,.4,0,.4.47v4.4c0,.33-.11.51-.4.51l-10.32-.11v4.08h10.11c.32,0,.36.07.36.5v4.4c0,.44,0,.51-.36.51H107.24V313l10.58-.1c.39,0,.39,0,.39.47V318C118.21,318.44,118.18,318.52,117.82,318.52Z"/>
      <path class="cls-1" d="M142,312.24c-1,.1-5.12.14-5.12.14v5.81c0,.29,0,.33-.32.33H130.7c-.33,0-.33,0-.33-.33V294.37c0-.36.19-.32.33-.32h10.83c5.37,0,8.58,3.82,8.58,9.38C150.11,309.35,146.61,311.7,142,312.24Zm-2.16-12.81h-3v7.65l3-.11a3.39,3.39,0,0,0,3.54-3.76C143.44,300.8,142,299.43,139.83,299.43Z"/>
      <path class="cls-1" d="M171.3,319.13c-6.9,0-10.22-3.9-10.22-9.85v-15c0-.21,0-.21.19-.21h6.06c.25,0,.25,0,.25.29V310.4c0,2.41,2,3.42,3.79,3.42s3.79-1,3.79-3.42V294.3c0-.22,0-.25.22-.25h5.91c.18,0,.18,0,.18.25v15.34C181.47,315.45,178.48,319.13,171.3,319.13Z"/>
      <path class="cls-1" d="M208.36,318.52H194.72c-.29,0-.33,0-.33-.51v-23.6c0-.29.11-.36.44-.36h12.63c4.44,0,7.11,2.38,7.11,6.42a5.4,5.4,0,0,1-4.33,5.41,5.84,5.84,0,0,1,5,6C215.25,315.84,212.65,318.52,208.36,318.52Zm-2.67-19.42h-4.84v4.62h4.84a2.11,2.11,0,0,0,2.31-2.31A2.07,2.07,0,0,0,205.69,299.1Zm.36,9.06h-5.2v5.3h5.2a2.35,2.35,0,0,0,2.49-2.63A2.5,2.5,0,0,0,206.05,308.16Z"/>
      <path class="cls-1" d="M242.71,318.52H227.45c-.33,0-.33,0-.33-.33V294.37c0-.36,0-.32.33-.32h5.85c.28,0,.32,0,.32.32v18.41l9.06-.18c.29,0,.32.07.32.36v5.23C243,318.48,243,318.52,242.71,318.52Z"/>
      <path class="cls-1" d="M259.71,318.52h-6c-.32,0-.32,0-.32-.33V294.37c0-.36,0-.32.32-.32h6c.33,0,.36,0,.36.32v23.82C260.07,318.48,260,318.52,259.71,318.52Z"/>
      <path class="cls-1" d="M284.68,319.13a12.8,12.8,0,0,1-.18-25.59c6,0,9.6,3.21,11.23,6.9.18.43,0,.57-.11.65l-5.38,2.09c-.21.07-.25,0-.32-.18a5.43,5.43,0,0,0-5.27-3.29c-3.61,0-5.92,2.86-5.92,6.72,0,4.51,3,6.56,6,6.56a5.27,5.27,0,0,0,5.05-3c.11-.18.14-.32.43-.25l5.41,1.48c.37.07.4.25.33.47A12.13,12.13,0,0,1,284.68,319.13Z"/>
    </g>
  </g>
</svg>
