<?xml version="1.0" encoding="UTF-8" standalone="no"?>
<!-- Generator: Adobe Illustrator 19.0.0, SVG Export Plug-In . SVG Version: 6.00 Build 0)  -->

<svg
   xmlns:dc="http://purl.org/dc/elements/1.1/"
   xmlns:cc="http://creativecommons.org/ns#"
   xmlns:rdf="http://www.w3.org/1999/02/22-rdf-syntax-ns#"
   xmlns:svg="http://www.w3.org/2000/svg"
   xmlns="http://www.w3.org/2000/svg"
   xmlns:sodipodi="http://sodipodi.sourceforge.net/DTD/sodipodi-0.dtd"
   xmlns:inkscape="http://www.inkscape.org/namespaces/inkscape"
   version="1.1"
   id="Layer_1"
   x="0px"
   y="0px"
   viewBox="0 0 759.11578 119.1"
   enable-background="new 0 0 172.8 119.1"
   xml:space="preserve"
   inkscape:version="0.48.5 r10040"
   width="100%"
   height="100%"
   sodipodi:docname="vr_red_2.svg"><metadata
     id="metadata3535"><rdf:RDF><cc:Work
         rdf:about=""><dc:format>image/svg+xml</dc:format><dc:type
           rdf:resource="http://purl.org/dc/dcmitype/StillImage" /><dc:title></dc:title></cc:Work></rdf:RDF></metadata><defs
     id="defs3533" /><sodipodi:namedview
     pagecolor="#ffffff"
     bordercolor="#666666"
     borderopacity="1"
     objecttolerance="10"
     gridtolerance="10"
     guidetolerance="10"
     inkscape:pageopacity="0"
     inkscape:pageshadow="2"
     inkscape:window-width="1276"
     inkscape:window-height="1410"
     id="namedview3531"
     showgrid="false"
     fit-margin-top="0"
     fit-margin-left="0"
     fit-margin-right="0"
     fit-margin-bottom="0"
     inkscape:zoom="0.55754224"
     inkscape:cx="-153.48853"
     inkscape:cy="129.19537"
     inkscape:window-x="1280"
     inkscape:window-y="26"
     inkscape:window-maximized="0"
     inkscape:current-layer="g3523" /><g
     id="g3523"
     transform="translate(-2.6328138e-6,0)"><g
       id="g3525"><path
         d="M 172.8,119.1 H 0 L 86.4,0 172.8,119.1 z M 14.3,111.8 H 158.5 L 86.4,12.4 14.3,111.8 z"
         id="path3527"
         inkscape:connector-curvature="0"
         style="fill:#ee2f4a" /></g><path
       d="m 84.5,69.1 c 0.3,-0.6 0.3,-0.7 -0.2,-0.7 h -5.8 c -0.4,0 -0.6,0.1 -0.7,0.4 -1.1,3.1 -5.2,13.6 -5.2,13.6 0,0 -4.6,-10.6 -5.8,-13.7 -0.1,-0.3 -0.3,-0.3 -0.7,-0.3 h -6.4 c -0.5,0 -0.5,0.1 -0.2,0.7 4.6,9.9 8,16.7 12.3,25 0.1,0.3 0.3,0.5 0.5,0.5 0.2,0 0.4,-0.2 0.6,-0.5 4.6,-9.9 6.8,-14.7 11.6,-25 l 0,0 z m 28.3,23.7 c -2.2,-3.5 -4.3,-7.3 -5.3,-8.8 2.3,-1.1 3.5,-3.5 3.5,-7 0,-4.6 -3.1,-8.6 -8.8,-8.6 H 90.6 c -0.1,0 -0.3,0 -0.3,0.3 0,9 0,15.1 0,24.7 0,0.4 0,0.3 0.3,0.3 2.2,0 3.7,0 6.1,0 0.3,0 0.3,0 0.3,-0.3 0,-2.9 0,-7.1 0,-7.1 l 4.3,-0.1 c 0,0 2.7,4.3 4,6.7 0.3,0.7 0.5,0.8 0.8,0.8 h 6.6 c 0.5,0.1 0.6,-0.1 0.1,-0.9 l 0,0 z m -8.9,-15.3 c 0,2.2 -1.1,3.7 -3.1,3.7 L 97,81.4 V 74 h 3.7 c 2.2,0 3.2,1.5 3.2,3.5 l 0,0 z"
       id="path3529"
       inkscape:connector-curvature="0"
       style="fill:#ee2f4a" /><text
       xml:space="preserve"
       style="font-size:14px;font-style:normal;font-variant:normal;font-weight:normal;font-stretch:normal;text-align:center;line-height:125%;letter-spacing:0px;word-spacing:0px;text-anchor:middle;fill:#ee2f4a;fill-opacity:1;stroke:none;font-family:Consolas;-inkscape-font-specification:Consolas"
       x="463.54791"
       y="87.393585"
       id="text3537"
       sodipodi:linespacing="125%"><tspan
         sodipodi:role="line"
         id="tspan3539"
         x="463.54791"
         y="87.393585"
         style="font-size:72px;font-style:normal;font-variant:normal;font-weight:bold;font-stretch:normal;fill:#ee2f4a;fill-opacity:1;font-family:F37 Ginger;-inkscape-font-specification:F37 Ginger Bold">VOICE REPUBLIC</tspan></text>
</g></svg>