<?xml version="1.0" encoding="utf-8"?>
<!-- Generator: Adobe Illustrator 22.0.0, SVG Export Plug-In . SVG Version: 6.00 Build 0)  -->
<!DOCTYPE svg PUBLIC "-//W3C//DTD SVG 1.1//EN" "http://www.w3.org/Graphics/SVG/1.1/DTD/svg11.dtd">
<svg version="1.1" id="Layer_1" xmlns="http://www.w3.org/2000/svg" xmlns:xlink="http://www.w3.org/1999/xlink" x="0px" y="0px"
	 viewBox="0 0 30 30" style="enable-background:new 0 0 30 30;" xml:space="preserve">
<style type="text/css">
	.st0{fill:#C7C6C4;}
	.st1{fill:#E10000;}
</style>
<g>
	<g>
		<path class="st0" d="M15.3,2.4l-8.9,5c-1.8,1-3,2.5-3.4,4.4l-1,3.5c-0.1,0.2,0,0.4,0.2,0.5C2.3,16,2.4,16,2.5,16s0.2,0,0.2-0.1
			l13-6.9C15.9,8.9,16,8.8,16,8.6V3.5c0-0.1,0-0.3,0-0.4V3c0-0.2-0.1-0.4-0.2-0.5C15.7,2.3,15.5,2.3,15.3,2.4z M14.7,6.9l-2,1
			C12.7,8,12.6,8,12.5,8c-0.2,0-0.4-0.1-0.4-0.3c-0.1-0.2,0-0.5,0.2-0.7l2-1c0.2-0.1,0.5,0,0.7,0.2S15,6.8,14.7,6.9z"/>
	</g>
	<g>
		<path class="st1" d="M24.5,0h-4C18.6,0,17,1.6,17,3.5v23c0,1.9,1.6,3.5,3.5,3.5h4c1.9,0,3.5-1.6,3.5-3.5v-23C28,1.6,26.4,0,24.5,0
			z M23.5,23H23v0.5c0,0.3-0.2,0.5-0.5,0.5S22,23.8,22,23.5V23h-0.5c-0.3,0-0.5-0.2-0.5-0.5s0.2-0.5,0.5-0.5H22v-0.5
			c0-0.3,0.2-0.5,0.5-0.5s0.5,0.2,0.5,0.5V22h0.5c0.3,0,0.5,0.2,0.5,0.5S23.8,23,23.5,23z"/>
	</g>
	<g>
		<path class="st0" d="M15.7,20.2c-0.2-0.1-0.4-0.1-0.5,0c-0.3,0.2-0.5,0.6-0.5,1v0.2c0,0.1-0.1,0.2-0.3,0.2l-1.1-0.5
			C13.2,21,13,20.9,13,20.8L12.1,19c-0.2-0.3-0.4-0.6-0.8-0.8L8.7,17c-0.2-0.1-0.3-0.1-0.5,0C8.1,17.2,8,17.3,8,17.5v2.3
			c0,1.4,0.7,2.7,1.8,3.5l5.4,3.7c0.1,0,0.1,0.1,0.2,0.1c0.1,0,0.2,0,0.3-0.1c0.2-0.1,0.3-0.3,0.3-0.5v-5.9
			C16,20.4,15.9,20.3,15.7,20.2z"/>
	</g>
</g>
</svg>
