<svg id="Layer_1" data-name="Layer 1" xmlns="http://www.w3.org/2000/svg" xmlns:xlink="http://www.w3.org/1999/xlink" viewBox="0 0 76 76">
  <defs>
    <style>
      .cls-1 {
        fill: url(#linear-gradient);
      }
    </style>
    <linearGradient id="linear-gradient" x1="54.76" y1="26.15" x2="17.32" y2="69.42" gradientUnits="userSpaceOnUse">
      <stop offset="0" stop-color="#c6b6b5"/>
      <stop offset="1" stop-color="#9c9cdd"/>
    </linearGradient>
  </defs>
  <title>hosting-&amp;amp;-maintenance</title>
  <path class="cls-1" d="M59.9,28a24.07,24.07,0,0,0-47.53,5.39c0,.28,0,.57,0,.86A14.8,14.8,0,0,0,14.8,63.6H58.11A17.87,17.87,0,0,0,59.9,28Zm-21.6,5,.4-.4A3.58,3.58,0,0,0,39.8,30a6.3,6.3,0,0,1,2-4.4,5.86,5.86,0,0,1,4.2-1.9,5.56,5.56,0,0,1,3.8,1.4.5.5,0,0,1,0,.8l-3.9,2.4a3.77,3.77,0,0,0,2,2.9l3.5-2.1a.45.45,0,0,1,.5,0c.2.1.3.2.3.4a5.79,5.79,0,0,1-1.4,4.2,6.34,6.34,0,0,1-4.5,1.8,7.72,7.72,0,0,1-1.5-.2L43,37.24a.76.76,0,0,1-.4.2h-.2c-.1-.1-.3-.2-.3-.4a2.39,2.39,0,0,0-.7-1.3A6.87,6.87,0,0,0,38.8,34c-.2-.1-.3-.1-.5-.2,0-.1-.1-.3-.1-.4A4.33,4.33,0,0,0,38.3,32.94Zm-2.4,11.5-.3.3a4,4,0,0,0-1.1,2.6,5.77,5.77,0,0,1-1.9,4.4,5.61,5.61,0,0,1-4.2,2,6,6,0,0,1-3.6-1.2.5.5,0,0,1,0-.8L29.2,49a3.77,3.77,0,0,0-2-2.9l-4.1,2.5a.45.45,0,0,1-.5,0c-.2-.1-.3-.2-.3-.4v-.1a1.27,1.27,0,0,1-.1-.6,5.67,5.67,0,0,1,6-5.8,4.06,4.06,0,0,0,2.7-1l.7-.8c.1-.2.2-.2.4-.2a.52.52,0,0,1,.4.2c0,.1.1.2.1.3a7.08,7.08,0,0,0,1.8,2.7,2.67,2.67,0,0,0,1.4.7.32.32,0,0,1,.3.3A.44.44,0,0,1,35.9,44.44Zm0-1.8a1.28,1.28,0,0,1-1-.4,6,6,0,0,1-1.5-2.3,2.1,2.1,0,0,0-1.3-1.3,6.62,6.62,0,0,1-2.2-1.5l-6.7-6.7a4,4,0,0,1-1-2.5,3.55,3.55,0,0,1,1-2.5l.8-.8a3.55,3.55,0,0,1,2.5-1,4,4,0,0,1,2.5,1l6.7,6.8a5.11,5.11,0,0,1,1.5,2.2,2,2,0,0,0,1.3,1.2,6.62,6.62,0,0,1,2.2,1.5,1.45,1.45,0,0,1,0,2l-3.8,3.9A1.28,1.28,0,0,1,35.87,42.64Zm16.2,9.8-1.3,1.3c-.1,0-.3.1-.4.1s-.1-.1-.2-.1l-4.3-2.2a1.78,1.78,0,0,1-1-1.6V49l-6.72-6.72,2.65-2.65,6.67,6.67h.9a1.78,1.78,0,0,1,1.6,1l2.2,4.5A.47.47,0,0,1,52.07,52.44Z"/>
</svg>
