<?xml version="1.0" encoding="utf-8"?>
<!-- Generator: Adobe Illustrator 22.0.0, SVG Export Plug-In . SVG Version: 6.00 Build 0)  -->
<!DOCTYPE svg PUBLIC "-//W3C//DTD SVG 1.1//EN" "http://www.w3.org/Graphics/SVG/1.1/DTD/svg11.dtd">
<svg version="1.1" id="Layer_1" xmlns="http://www.w3.org/2000/svg" xmlns:xlink="http://www.w3.org/1999/xlink" x="0px" y="0px"
	 viewBox="0 0 30 30" style="enable-background:new 0 0 30 30;" xml:space="preserve">
<style type="text/css">
	.st0{fill:#E88565;}
	.st1{fill:#B18AE0;}
	.st2{fill:#C39D63;}
	.st3{fill:#E3E3E3;}
</style>
<path class="st0" d="M24.9,0.2c-0.1-0.1-0.1-0.1-0.2-0.1h-0.1h-0.1l-24,6C0.1,6.1,0,6.3,0,6.6C0,6.8,0.3,7,0.5,7H4h1h10h6v22h1.5
	l4.5-6v6h1V7h1.5c0.2,0,0.4-0.1,0.5-0.3c0-0.2,0-0.4-0.1-0.5L24.9,0.2z M26.5,7L22,13V7H26.5z M4.6,6L24,1.1V6h-2.5H4.6z M26.4,15
	L22,20.1V15H26.4z M22,28v-6h4.5L22,28z M27,21h-4.4l4.4-5.1V21z M27,14h-4.5L27,8V14z M27.5,6H25V1.9L28.4,6H27.5z"/>
<path class="st1" d="M0.5,22H2v-6H0.5C0.2,16,0,16.2,0,16.5v0.1v4.9C0,21.8,0.2,22,0.5,22z"/>
<path class="st1" d="M9,21.5v-5C9,16.2,8.8,16,8.5,16H7v6h1.5C8.8,22,9,21.8,9,21.5z"/>
<polygon class="st1" points="6,16 5,16 4,16 3,16 3,22 6,22 "/>
<path class="st2" d="M0.5,29C0.2,29,0,29.2,0,29.5S0.2,30,0.5,30h21h6h2c0.3,0,0.5-0.2,0.5-0.5S29.8,29,29.5,29H0.5z"/>
<rect x="4" y="7" class="st3" width="1" height="9"/>
</svg>
