<svg xmlns="http://www.w3.org/2000/svg" xmlns:xlink="http://www.w3.org/1999/xlink" viewBox="0 0 259 155">
  <defs>
    <style>
      .cls-1 {
        fill: url(#linear-gradient);
      }

      .cls-2 {
        fill: #fff;
      }
    </style>
    <linearGradient id="linear-gradient" x1="7.54" y1="147.58" x2="232.59" y2="18.26" gradientUnits="userSpaceOnUse">
      <stop offset="0" stop-color="#ff6b61"/>
      <stop offset="1" stop-color="#b18ae0"/>
    </linearGradient>
  </defs>
  <title>200ok</title>
  <g id="Layer_2" data-name="Layer 2">
    <g id="Layer_1-2" data-name="Layer 1">
      <rect class="cls-1" width="259" height="155"/>
      <g id="layer1">
        <path id="path3082" class="cls-2" d="M139.74,111.4a15.74,15.74,0,0,1-10.53-11.19,17,17,0,0,1,2.11-13.36,14.87,14.87,0,0,1,12.13-6.71c9.36-.61,16.23,4.54,17.57,13.15A16,16,0,0,1,152,110.71c-2.17,1-2.8,1.14-6.4,1.24C142.44,112,141.16,111.91,139.74,111.4Zm9.58-8.19A8.64,8.64,0,0,0,153,94.33a7.85,7.85,0,0,0-3.85-5.45,6.42,6.42,0,0,0-4.1-1c-5,0-8.15,3.24-8.15,8.17a8.18,8.18,0,0,0,4.88,7.8,9.39,9.39,0,0,0,7.58-.63ZM166.46,96V80.41h7.62l.1,6.73.1,6.74,4.44-6.74,4.44-6.73h4.05c3.13,0,4,.1,3.87.46s-2,3.21-4.2,6.56l-4,6.1,4.53,8.83c2.48,4.86,4.52,8.94,4.52,9.07a19.45,19.45,0,0,1-4.27.24h-4.28l-2.84-5.45c-1.56-3-2.91-5.45-3-5.45a18.69,18.69,0,0,0-1.79,2.55c-1.59,2.47-1.63,2.63-1.63,5.45v2.9h-7.64Zm-61.8-20.51A15.73,15.73,0,0,1,93.73,65.16a22.26,22.26,0,0,1-.15-10.48,16.62,16.62,0,0,1,5.61-7.81c5.21-3.62,13.91-3.85,19.22-.49,6.92,4.37,9.09,14.6,4.68,22.12a18.36,18.36,0,0,1-6,5.69,19.35,19.35,0,0,1-12.42,1.34ZM111.59,68a8.5,8.5,0,0,0,5.67-7.16,8.24,8.24,0,0,0-7.83-9.15c-5,0-8.42,3.33-8.4,8.2,0,5.81,5.13,9.73,10.56,8.11Zm29.06,7.55c-10-2.72-14.7-13.71-10-23.39,2.77-5.67,7.82-8.32,15.39-8,3.42.12,4.14.27,6.3,1.29a15,15,0,0,1,8.76,11.88c1.5,10.4-5.83,18.84-16.28,18.74a20.05,20.05,0,0,1-4.19-.47Zm8.27-8.18a7.58,7.58,0,0,0,3.9-4.86,6.93,6.93,0,0,0,0-5.22,8.13,8.13,0,0,0-7.91-5.6c-4.72,0-8,3.48-8,8.42a8.11,8.11,0,0,0,11.95,7.26ZM66.36,75.44a10.46,10.46,0,0,1-.24-2.89V69.9l6-5.56c6.39-5.91,8.16-8.06,8.16-9.93,0-2.81-3.74-3.92-7.46-2.22-1.15.52-2.13,1-2.19,1a38.83,38.83,0,0,1-3.8-5.43c0-.69,2.56-2.28,4.75-3a23.68,23.68,0,0,1,9.85-.31,9.94,9.94,0,0,1,5.83,4.66,8.1,8.1,0,0,1,1,4.76c0,4.14-1.24,6.43-6,11l-3.66,3.54H89.3l.41,2.74c.22,1.51.41,3.15.41,3.64v.89H78.36c-6.46,0-11.86-.11-12-.24Zm57.47,35.79H66.23V81h57.6ZM191,73.56H165.93V45.5H191Z"/>
      </g>
    </g>
  </g>
</svg>
