<?xml version="1.0" encoding="UTF-8" standalone="no"?>
<!-- Created with Inkscape (http://www.inkscape.org/) -->

<svg
   xmlns:dc="http://purl.org/dc/elements/1.1/"
   xmlns:cc="http://creativecommons.org/ns#"
   xmlns:rdf="http://www.w3.org/1999/02/22-rdf-syntax-ns#"
   xmlns:svg="http://www.w3.org/2000/svg"
   xmlns="http://www.w3.org/2000/svg"
   xmlns:sodipodi="http://sodipodi.sourceforge.net/DTD/sodipodi-0.dtd"
   xmlns:inkscape="http://www.inkscape.org/namespaces/inkscape"
   version="1.1"
   width="386"
   height="226.95998"
   id="svg2"
   inkscape:version="0.48.3.1 r9886"
   sodipodi:docname="200ok_logo_claim.svg">
  <sodipodi:namedview
     pagecolor="#ffffff"
     bordercolor="#666666"
     borderopacity="1"
     objecttolerance="10"
     gridtolerance="10"
     guidetolerance="10"
     inkscape:pageopacity="0"
     inkscape:pageshadow="2"
     inkscape:window-width="798"
     inkscape:window-height="880"
     id="namedview7"
     showgrid="false"
     fit-margin-top="20"
     fit-margin-left="20"
     fit-margin-right="20"
     fit-margin-bottom="20"
     inkscape:zoom="0.46626044"
     inkscape:cx="198.25002"
     inkscape:cy="58.612713"
     inkscape:window-x="800"
     inkscape:window-y="1098"
     inkscape:window-maximized="0"
     inkscape:current-layer="layer1" />
  <defs
     id="defs4" />
  <metadata
     id="metadata7">
    <rdf:RDF>
      <cc:Work
         rdf:about="">
        <dc:format>image/svg+xml</dc:format>
        <dc:type
           rdf:resource="http://purl.org/dc/dcmitype/StillImage" />
        <dc:title></dc:title>
      </cc:Work>
    </rdf:RDF>
  </metadata>
  <g
     transform="translate(-196.28571,-710.93359)"
     id="layer1">
    <path
       d="m 418.77266,916.33037 c -15.14063,-5.39457 -25.09742,-15.98231 -28.95403,-30.78886 -3.23358,-12.41457 -0.98559,-26.63724 5.80744,-36.74261 7.67653,-11.41969 18.68164,-17.50973 33.36777,-18.46514 25.73726,-1.67434 44.64253,12.48193 48.31471,36.17805 3.1988,20.64157 -6.45577,39.21809 -24.89945,47.90942 -5.96772,2.8122 -7.71231,3.14959 -17.62338,3.40822 -8.5764,0.22381 -12.10451,-0.10648 -16.01306,-1.49908 z m 26.36504,-22.53725 c 7.92047,-5.24151 11.81701,-14.75358 10.00873,-24.43285 -1.19888,-6.41729 -4.87806,-11.62196 -10.58832,-14.97852 -3.9368,-2.31411 -5.91046,-2.7988 -11.27239,-2.76829 -13.63891,0.0776 -22.43619,8.88811 -22.42932,22.46301 0.005,9.77958 4.92897,17.64774 13.42932,21.45892 5.58072,2.50214 15.71818,1.65512 20.85198,-1.74227 z m 47.14802,-19.71665 0,-43 10.47793,0 10.47794,0 0.27206,18.53188 0.27207,18.53189 12.21301,-18.53189 12.21301,-18.53188 11.14399,0 c 8.61595,0 11.03306,0.28899 10.65512,1.27392 -0.26887,0.70066 -5.46737,8.82483 -11.55221,18.0537 l -11.06336,16.77977 12.44522,24.28307 c 6.84486,13.3557 12.44522,24.58153 12.44522,24.94631 0,0.36478 -5.2912,0.66323 -11.75824,0.66323 l -11.75823,0 -7.81819,-15 c -4.30001,-8.25 -8.01176,-15 -8.24833,-15 -0.23657,0 -2.45218,3.1546 -4.92358,7.01023 -4.36472,6.80941 -4.49344,7.2391 -4.49344,15 l 0,7.98977 -10.5,0 -10.5,0 z M 217.95238,915.4098 c -0.36667,-0.36666 -0.66667,-19.26666 -0.66667,-42 l 0,-41.33333 78.50001,0 78.5,0 0,42 0,42 -77.83333,0 c -42.80834,0 -78.13335,-0.3 -78.50001,-0.66667 z m 104.33334,-97.76104 c -14.46632,-4.01479 -25.77,-14.73346 -30.05427,-28.49885 -2.39999,-7.71115 -2.60293,-21.49742 -0.42444,-28.83317 2.25268,-7.58565 9.0652,-17.07615 15.43176,-21.49798 14.33837,-9.95858 38.28238,-10.56913 52.87566,-1.34828 19.03581,12.0279 24.9896,40.17659 12.87149,60.85459 -3.14342,5.36383 -11.07727,12.88279 -16.52767,15.66338 -9.48203,4.83737 -24.23669,6.41778 -34.17253,3.66031 z m 19.07772,-20.71372 c 8.1707,-2.44801 14.49398,-10.43133 15.58532,-19.67696 1.53039,-12.96513 -8.85871,-25.09608 -21.54702,-25.15965 -13.71063,-0.0687 -23.14367,9.13958 -23.09406,22.54376 0.0592,15.99206 14.10836,26.7712 29.05576,22.29285 z m 79.92228,20.7814 c -27.53038,-7.49467 -40.43091,-37.716 -27.45813,-64.32465 7.61604,-15.62139 21.50809,-22.89073 42.3302,-22.15027 9.40771,0.33455 11.39985,0.74115 17.35126,3.54143 13.52945,6.36592 21.9291,17.76296 24.07638,32.66799 4.12216,28.61336 -16.03619,51.83342 -44.75982,51.55804 -3.87194,-0.0371 -9.0649,-0.61877 -11.53989,-1.29254 z m 22.7466,-22.5107 c 5.34174,-2.72515 8.87894,-7.12927 10.72874,-13.35819 1.8925,-6.37274 1.89929,-8.14655 0.055,-14.35702 -2.70884,-9.12165 -11.6281,-15.43417 -21.7482,-15.3921 -12.97756,0.054 -21.97928,9.56599 -21.91428,23.15662 0.0824,17.21692 17.50938,27.79157 32.87876,19.95069 z M 216.95238,817.4098 c -0.36667,-0.36666 -0.66667,-3.94755 -0.66667,-7.95752 l 0,-7.29085 16.55455,-15.29248 c 17.57747,-16.23741 22.44545,-22.156 22.44545,-27.28961 0,-7.7306 -10.29845,-10.80192 -20.52349,-6.12074 -3.14501,1.43983 -5.85271,2.61787 -6.01712,2.61787 -0.63767,0 -10.45939,-14.02333 -10.45939,-14.93379 0,-1.88954 7.03631,-6.28723 13.05847,-8.16154 6.82539,-2.1243 20.97249,-2.57928 27.11884,-0.87216 6.53656,1.8155 12.99968,6.98717 16.03595,12.83168 2.34567,4.51516 2.78675,6.58706 2.78675,13.09028 0,11.39443 -3.39895,17.6738 -16.39859,30.29553 l -10.04192,9.75 14.59869,0 14.5987,0 1.12156,7.54085 c 0.61685,4.14746 1.12156,8.64746 1.12156,10 l 0,2.45915 -32.33334,0 c -17.78334,0 -32.63334,-0.3 -33,-0.66667 z m 274.33334,-43.83333 0,-39.5 34.5,0 34.5,0 0,39.5 0,39.5 -34.5,0 -34.5,0 z"
       id="path3082"
       style="fill:#000000"
       inkscape:connector-curvature="0"
       sodipodi:nodetypes="sssssssssssssssccccccccscscssscsssscccccscccccscsssssssssssssssssssscsssscccscsssssssssscccsscscccccccccc" />
  </g>
</svg>
