<svg id="Layer_1" data-name="Layer 1" xmlns="http://www.w3.org/2000/svg" viewBox="0 0 30 30">
  <defs>
    <style>
      .cls-1 {
        fill: #c7c6c4;
      }

      .cls-2 {
        fill: #c0c2ce;
      }
    </style>
  </defs>
  <title>duct.svg</title>
  <g>
    <path class="cls-1" d="M26,17a.47.47,0,0,0-.5-.5h-.4a24.26,24.26,0,0,1-10.1,2C8.9,18.5,3.6,16.8.9,13.8c-.1-.1-.4-.2-.5-.1a.51.51,0,0,0-.4.5v6.3c0,4.3,6.2,7.8,14.2,8H25.4a.47.47,0,0,0,.5-.5,1.76,1.76,0,0,0-.6-1.3c-.2-.3-.3-.4-.3-.7s.1-.4.4-.7A1.78,1.78,0,0,0,26,24a1.27,1.27,0,0,0-.8-1.2c-.2-.1-.2-.1-.2-.3s0-.2.2-.3A1.27,1.27,0,0,0,26,21a1.76,1.76,0,0,0-.6-1.3c-.3-.3-.4-.4-.4-.7s.1-.4.4-.7A1.76,1.76,0,0,0,26,17Z"/>
    <path class="cls-1" d="M29.7,13.7a.44.44,0,0,0-.5.1A9.84,9.84,0,0,1,27,15.5a.57.57,0,0,0-.2.7,1.85,1.85,0,0,1,.2.7,2.72,2.72,0,0,1-.6,1.7.64.64,0,0,0,0,.6,2.72,2.72,0,0,1,.6,1.7,2.13,2.13,0,0,1-.3,1.2.45.45,0,0,0,0,.5,2.13,2.13,0,0,1,.3,1.2,2.92,2.92,0,0,1-.2.9.48.48,0,0,0,.2.6.5.5,0,0,0,.6,0A5.92,5.92,0,0,0,30,20.6V14A.75.75,0,0,0,29.7,13.7Z"/>
    <path class="cls-2" d="M15,17.5c8.4,0,15-3.5,15-8s-6.6-8-15-8S0,5,0,9.5,6.6,17.5,15,17.5Zm0-6c-2.9,0-5-1.1-5-2s2.1-2,5-2,5,1.1,5,2S17.9,11.5,15,11.5Z"/>
  </g>
</svg>
