<?xml version="1.0" standalone="no"?>
<!DOCTYPE svg PUBLIC "-//W3C//DTD SVG 20010904//EN"
 "http://www.w3.org/TR/2001/REC-SVG-20010904/DTD/svg10.dtd">
<svg version="1.0" xmlns="http://www.w3.org/2000/svg"
 width="700.000000pt" height="700.000000pt" viewBox="0 0 700.000000 700.000000"
 preserveAspectRatio="xMidYMid meet">
<metadata>
Created by potrace 1.11, written by Peter Selinger 2001-2013
</metadata>
<g transform="translate(0.000000,700.000000) scale(0.100000,-0.100000)"
fill="#000000" stroke="none">
<path d="M997 5104 c-1 -1 -31 -4 -67 -8 -36 -3 -80 -10 -98 -15 -18 -5 -36
-10 -40 -10 -22 -3 -83 -28 -128 -53 -69 -38 -107 -75 -100 -94 7 -18 115
-176 149 -218 l24 -29 79 32 c100 40 124 45 200 44 109 -1 176 -54 176 -138 0
-103 -74 -185 -623 -693 l-45 -42 2 -121 c2 -73 7 -126 14 -133 8 -8 177 -12
566 -14 l556 -4 -7 89 c-4 48 -9 97 -11 108 -5 24 -16 115 -17 133 0 14 13 14
-269 14 -126 0 -228 2 -228 5 0 3 58 63 128 132 205 201 272 293 301 416 21
84 16 241 -9 308 -52 138 -204 262 -345 282 -43 6 -203 13 -208 9z"/>
<path d="M2490 5103 c-296 -37 -448 -125 -585 -337 -74 -116 -102 -215 -106
-376 -4 -161 33 -320 102 -437 44 -75 158 -191 236 -241 166 -106 378 -143
576 -102 29 5 61 12 72 14 39 8 141 50 180 74 113 71 233 201 285 310 93 194
100 444 20 646 -40 103 -68 147 -149 237 -80 90 -236 175 -356 194 -16 3 -42
8 -57 11 -33 7 -183 12 -218 7z m136 -367 c97 -10 228 -107 274 -201 56 -116
58 -237 6 -350 -66 -143 -190 -225 -341 -228 -152 -2 -279 78 -345 218 -94
198 -24 432 157 523 44 22 174 52 198 45 6 -1 28 -4 51 -7z"/>
<path d="M4080 5090 c-112 -19 -269 -88 -321 -140 -9 -9 -28 -25 -41 -36 -62
-50 -154 -206 -192 -329 -38 -121 -42 -297 -12 -420 22 -86 82 -213 133 -280
95 -126 278 -245 415 -271 255 -47 474 -7 653 121 207 148 320 386 309 655
-10 268 -135 484 -352 612 -141 83 -173 91 -372 94 -96 1 -195 -2 -220 -6z
m347 -386 c187 -88 268 -306 186 -501 -38 -90 -80 -143 -141 -181 -139 -85
-299 -84 -430 5 -142 96 -198 278 -143 460 64 212 317 316 528 217z"/>
<path d="M5257 5045 c-2 -5 -3 -311 -3 -680 l1 -670 590 0 590 0 3 680 2 680
-590 0 c-384 0 -591 -3 -593 -10z"/>
<path d="M4120 3392 c-76 -10 -195 -48 -264 -85 -141 -75 -273 -232 -325 -387
-110 -331 -13 -675 248 -879 64 -50 211 -120 282 -135 62 -12 323 -14 385 -2
118 22 273 112 372 216 100 104 176 263 198 415 6 42 5 205 -1 235 -3 14 -8
39 -11 55 -7 41 -42 141 -67 190 -97 193 -301 336 -532 374 -57 9 -230 11
-285 3z m308 -397 c142 -77 215 -208 207 -368 -9 -187 -121 -325 -290 -361
-257 -54 -460 104 -471 365 -6 156 63 291 181 352 70 35 125 46 225 44 83 -2
101 -6 148 -32z"/>
<path d="M5274 3381 c-2 -2 -4 -335 -4 -740 l0 -736 175 1 c96 0 177 3 180 6
3 3 7 61 9 129 3 150 3 150 130 339 l28 43 27 -44 c27 -42 112 -203 202 -379
24 -47 47 -87 50 -90 4 -3 51 -4 106 -3 54 0 136 2 183 2 47 1 91 5 99 10 10
7 -35 103 -199 427 l-212 419 124 190 c260 399 267 409 251 419 -17 9 -347 16
-361 7 -5 -3 -66 -94 -137 -201 -188 -287 -278 -420 -282 -417 -2 3 -5 113
-12 577 l-1 45 -176 0 c-97 0 -178 -2 -180 -4z"/>
<path d="M546 3362 c-8 -13 0 -1411 8 -1420 12 -11 99 -12 1423 -16 l1263 -3
1 31 c0 17 1 342 1 721 l1 690 -1346 3 c-740 1 -1348 -2 -1351 -6z"/>
</g>
</svg>
