<?xml version="1.0" encoding="UTF-8" standalone="no"?>
<svg
   xmlns:dc="http://purl.org/dc/elements/1.1/"
   xmlns:cc="http://creativecommons.org/ns#"
   xmlns:rdf="http://www.w3.org/1999/02/22-rdf-syntax-ns#"
   xmlns:svg="http://www.w3.org/2000/svg"
   xmlns="http://www.w3.org/2000/svg"
   id="svg5093"
   version="1.1"
   viewBox="0 0 80.573638 51.838066"
   height="51.838066mm"
   width="80.573639mm">
  <defs
     id="defs5087" />
  <metadata
     id="metadata5090">
    <rdf:RDF>
      <cc:Work
         rdf:about="">
        <dc:format>image/svg+xml</dc:format>
        <dc:type
           rdf:resource="http://purl.org/dc/dcmitype/StillImage" />
        <dc:title></dc:title>
      </cc:Work>
    </rdf:RDF>
  </metadata>
  <g
     transform="translate(257.72748,-32.334186)"
     id="layer1">
    <g
       transform="translate(124.01306,0.53453906)"
       id="g5211">
      <g
         transform="translate(-22.892734)"
         id="g6137">
        <path
           style="opacity:1;fill:#5881d8;fill-opacity:1;stroke:none;stroke-width:0.26499999;stroke-linecap:round;stroke-linejoin:bevel;stroke-miterlimit:4;stroke-dasharray:none;stroke-dashoffset:0;stroke-opacity:1"
           d="m -310.1786,66.926897 c -0.89124,-0.13068 -1.51115,-0.339965 -2.70386,-0.912841 -1.94515,-0.934286 -2.18655,-1.510946 -1.11698,-2.668281 0.79827,-0.863777 1.01592,-0.877266 2.49509,-0.154617 1.35053,0.659807 2.51552,0.874794 3.63323,0.670478 1.86258,-0.340476 3.52172,-1.638231 4.42051,-3.457657 0.48406,-0.979863 0.50137,-1.063858 0.50137,-2.431637 0,-1.366134 -0.0178,-1.452677 -0.4979,-2.423986 -1.03849,-2.100929 -3.12783,-3.321682 -5.68511,-3.321682 -0.60615,0 -0.94059,0.104965 -1.91604,0.601356 -1.33004,0.676835 -1.81397,0.742362 -2.2206,0.300677 -0.15224,-0.165372 -0.76995,-1.172644 -1.37268,-2.23838 -3.12401,-5.523833 -3.13179,-5.534628 -4.39422,-6.097685 -1.94954,-0.869514 -2.43388,-1.239303 -2.85904,-2.182842 -0.99948,-2.218142 0.88289,-5.218361 3.27247,-5.215839 1.45944,0.0016 2.52003,0.606655 3.20694,1.82971 0.48698,0.86706 0.6055,1.877785 0.36787,3.137185 -0.22838,1.21035 -0.0804,1.806504 0.81428,3.281358 0.36687,0.604747 0.78947,1.386511 0.9391,1.737251 0.66378,1.555861 1.47402,1.907244 4.3979,1.907244 3.10796,0 3.93894,0.244729 5.64735,1.663186 2.3887,1.983277 3.70122,4.793446 3.52985,7.557612 -0.1764,2.845302 -1.68733,5.49729 -4.02144,7.05844 -1.22196,0.817295 -2.3689,1.210865 -3.98413,1.367144 -1.38778,0.134276 -1.49785,0.133998 -2.45396,-0.0062 z"
           id="path5585" />
        <path
           style="opacity:1;fill:#5881d8;fill-opacity:1;stroke:none;stroke-width:0.26499999;stroke-linecap:round;stroke-linejoin:bevel;stroke-miterlimit:4;stroke-dasharray:none;stroke-dashoffset:0;stroke-opacity:1"
           d="m -330.09527,66.868128 c -3.45159,-0.782518 -6.40254,-3.517649 -7.14599,-6.623367 -0.10029,-0.418944 -0.17622,-1.510747 -0.17658,-2.539061 -5.3e-4,-1.615829 0.0369,-1.911321 0.35903,-2.831944 0.53762,-1.536417 1.062,-2.276208 2.54829,-3.595113 1.812,-1.607939 2.84839,-2.108076 3.56909,-1.722369 0.26474,0.141684 0.66425,1.261512 0.66338,1.859436 -7.9e-4,0.560282 -0.4828,1.199404 -1.10596,1.466519 -0.65672,0.281504 -1.65509,1.205283 -2.15015,1.989506 -0.65834,1.042887 -0.92275,2.103231 -0.85032,3.410018 0.056,1.010026 0.13438,1.317258 0.55142,2.161091 1.36024,2.752256 4.89382,4.042555 7.60122,2.775608 2.17953,-1.019926 3.29217,-2.835616 3.54194,-5.780024 l 0.0964,-1.135893 0.73499,0.03728 c 1.23452,0.06262 7.91407,0.294193 8.52451,0.29554 0.52133,0.0011 0.65565,-0.07614 1.48349,-0.853636 1.23,-1.155213 1.51124,-1.283253 2.8186,-1.283253 1.26945,0 1.85592,0.205668 2.59078,0.908558 2.37133,2.268154 0.78968,6.315887 -2.46359,6.304782 -1.1467,-0.0039 -1.80179,-0.319278 -2.93423,-1.412552 l -0.91527,-0.883621 -2.91512,-0.0031 c -1.75507,-0.0019 -3.05615,0.05347 -3.26952,0.139009 -0.58443,0.234289 -1.00077,0.802297 -1.52735,2.083766 -0.45794,1.114438 -0.60575,1.321903 -1.78106,2.4999 -1.02921,1.031571 -1.4823,1.380564 -2.30021,1.771748 -1.91709,0.916887 -4.08571,1.2926 -5.54774,0.961138 z"
           id="path5587" />
        <path
           style="opacity:1;fill:#63b132;fill-opacity:1;stroke:none;stroke-width:0.26499999;stroke-linecap:round;stroke-linejoin:bevel;stroke-miterlimit:4;stroke-dasharray:none;stroke-dashoffset:0;stroke-opacity:1"
           d="m -329.86026,61.346245 c -0.82586,-0.316019 -1.56611,-0.989092 -1.94383,-1.767428 -0.31184,-0.642583 -0.42715,-2.252093 -0.20876,-2.913832 0.33779,-1.02353 0.82141,-1.470316 2.4409,-2.254996 1.811,-0.877478 2.38143,-1.342964 2.84404,-2.320843 0.18925,-0.400037 0.76296,-1.447028 1.27493,-2.326645 0.51196,-0.879618 0.93084,-1.636102 0.93084,-1.681078 0,-0.04497 -0.26092,-0.392041 -0.57982,-0.771258 -1.26704,-1.506707 -2.0197,-2.884699 -2.30131,-4.213294 -0.2441,-1.151617 -0.24013,-3.445602 0.008,-4.61682 0.24377,-1.150678 1.07043,-2.62799 2.09842,-3.750053 2.38806,-2.60658 6.38822,-3.606835 9.83861,-2.460183 1.1022,0.366289 2.64767,1.408607 3.49021,2.353913 0.7492,0.840592 1.6074,2.397598 1.93457,3.50984 0.47615,1.618727 0.55481,4.206576 0.1449,4.767157 -0.092,0.125762 -0.34483,0.223176 -0.57933,0.223176 -0.59138,0 -2.06268,-0.451236 -2.26098,-0.693422 -0.10108,-0.123452 -0.16704,-0.605005 -0.16704,-1.219476 0,-2.986249 -1.55141,-5.117687 -4.2335,-5.816282 -2.36874,-0.616979 -4.64024,0.205481 -6.12032,2.216028 -0.93174,1.265685 -1.27048,2.657306 -1.00713,4.137618 0.31697,1.781733 1.0728,2.877653 2.77845,4.028612 0.9401,0.63437 1.33653,1.148461 1.14874,1.489678 -0.0472,0.08571 -0.28033,0.456507 -0.51813,0.824002 -0.96956,1.498328 -3.08716,5.131025 -3.61641,6.203874 -0.53669,1.087956 -0.55975,1.183288 -0.45503,1.881028 0.20058,1.336315 0.14704,2.822342 -0.12311,3.417142 -0.28363,0.624467 -0.99245,1.255543 -1.94486,1.731531 -0.82278,0.411205 -1.83567,0.418965 -2.87304,0.02201 z"
           id="path6132" />
      </g>
    </g>
    <text
       id="text5219"
       y="83.955238"
       x="-217.34338"
       style="font-style:normal;font-variant:normal;font-weight:normal;font-stretch:normal;font-size:2.15516019px;line-height:125%;font-family:Consolas;-inkscape-font-specification:Consolas;text-align:center;letter-spacing:0px;word-spacing:0px;text-anchor:middle;fill:#000000;fill-opacity:1;stroke:none;stroke-width:0.26458332px;stroke-linecap:butt;stroke-linejoin:miter;stroke-opacity:1"
       xml:space="preserve"><tspan
         style="font-style:normal;font-variant:normal;font-weight:bold;font-stretch:normal;font-size:15.32558346px;font-family:sans-serif;-inkscape-font-specification:'sans-serif Bold';letter-spacing:-0.71702093px;fill:#5881d8;fill-opacity:1;stroke-width:0.26458332px"
         y="83.955238"
         x="-217.70189"
         id="tspan5217">webhooks</tspan></text>
  </g>
</svg>
