<?xml version="1.0" encoding="UTF-8" standalone="no"?>
<!-- Generator: Adobe Illustrator 14.0.0, SVG Export Plug-In . SVG Version: 6.00 Build 43363)  -->

<svg
   xmlns:dc="http://purl.org/dc/elements/1.1/"
   xmlns:cc="http://creativecommons.org/ns#"
   xmlns:rdf="http://www.w3.org/1999/02/22-rdf-syntax-ns#"
   xmlns:svg="http://www.w3.org/2000/svg"
   xmlns="http://www.w3.org/2000/svg"
   xmlns:sodipodi="http://sodipodi.sourceforge.net/DTD/sodipodi-0.dtd"
   xmlns:inkscape="http://www.inkscape.org/namespaces/inkscape"
   version="1.1"
   id="Layer_1"
   x="0px"
   y="0px"
   width="359.35699"
   height="83.733002"
   viewBox="0 0 359.35699 83.732998"
   enable-background="new 0 0 841.89 595.28"
   xml:space="preserve"
   sodipodi:docname="livingdocs_logo.svg"
   inkscape:version="0.92.1 r15371"><metadata
     id="metadata15"><rdf:RDF><cc:Work
         rdf:about=""><dc:format>image/svg+xml</dc:format><dc:type
           rdf:resource="http://purl.org/dc/dcmitype/StillImage" /><dc:title></dc:title></cc:Work></rdf:RDF></metadata><defs
     id="defs13" /><sodipodi:namedview
     pagecolor="#ffffff"
     bordercolor="#666666"
     borderopacity="1"
     objecttolerance="10"
     gridtolerance="10"
     guidetolerance="10"
     inkscape:pageopacity="0"
     inkscape:pageshadow="2"
     inkscape:window-width="2556"
     inkscape:window-height="1381"
     id="namedview11"
     showgrid="false"
     fit-margin-top="0"
     fit-margin-left="0"
     fit-margin-right="0"
     fit-margin-bottom="0"
     inkscape:zoom="0.39645207"
     inkscape:cx="-405.51153"
     inkscape:cy="41.865982"
     inkscape:window-x="0"
     inkscape:window-y="1497"
     inkscape:window-maximized="0"
     inkscape:current-layer="Layer_1" /><g
     id="g8"
     transform="translate(-241.266,-255.77299)"><rect
       x="423.82001"
       y="255.77299"
       width="176.80299"
       height="83.733002"
       id="rect2"
       style="fill:#29b96f" /><path
       d="m 261.987,320.114 h 9.134 v -38.367 h -9.134 z m 0,-44.356 h 9.134 v -9.282 h -9.134 z m 32.692,32.387 -7.979,-26.397 h -9.515 l 12.431,38.367 h 9.899 L 312.1,281.748 h -9.594 z m -53.413,11.969 h 9.286 v -54.177 h -9.286 z m 119.872,-39.517 c -2.994,0 -6.522,0.997 -8.825,2.681 -1.613,1.077 -2.533,2.307 -2.993,2.995 v -4.525 h -9.283 v 38.367 h 9.283 v -16.653 c 0,-2.84 0,-6.756 1.459,-9.59 1.304,-2.53 4.065,-4.301 7.059,-4.301 2.991,0 5.448,1.771 6.293,5.144 0.308,1.073 0.308,2.991 0.308,5.828 v 19.572 h 9.132 v -22.562 c 0,-4.985 0,-9.132 -2.38,-12.352 -1.92,-2.61 -5.678,-4.604 -10.053,-4.604 z m 47.965,1.15 v 3.988 c -1.077,-1.381 -3.991,-5.139 -10.897,-5.139 -7.062,0 -17.266,4.679 -17.266,18.949 0,12.201 7.594,18.342 16.652,18.342 5.524,0 9.515,-2.304 11.511,-4.141 0,4.677 0,6.906 -1.382,8.824 -0.845,1.227 -2.916,3.063 -7.599,3.063 -5.525,0 -7.136,-2.527 -7.828,-4.753 h -10.129 c 1.306,6.139 3.991,12.048 17.649,12.048 9.058,0 13.814,-2.994 15.964,-5.834 2.377,-3.22 2.377,-6.295 2.458,-13.888 v -31.461 h -9.133 z m -9.21,27.699 c -5.449,0 -9.516,-3.452 -9.516,-10.13 0,-7.364 4.757,-10.509 9.438,-10.509 6.219,0 9.594,4.681 9.517,10.892 -0.078,7.06 -4.527,9.747 -9.439,9.747 z m -80.426,10.668 h 9.133 v -38.367 h -9.133 z m 0,-44.356 h 9.133 v -9.282 h -9.133 z"
       id="path4"
       inkscape:connector-curvature="0"
       style="fill:#3a2f3c" /><path
       d="m 456.607,284.892 c -2.916,-3.223 -6.523,-4.295 -10.285,-4.295 -10.971,0 -17.418,9.741 -17.418,21.175 0,12.662 7.902,19.493 17.035,19.493 3.99,0 7.828,-1.385 10.668,-4.837 v 3.687 h 9.131 v -54.177 h -9.131 z m -9.058,28.087 c -8.977,0 -9.053,-11.515 -9.053,-12.204 0,-6.061 2.992,-11.662 9.207,-11.662 3.07,0 5.371,1.455 6.752,3.532 1.689,2.525 1.996,6.058 2.072,8.516 0.08,8.285 -4.218,11.818 -8.978,11.818 z M 590.523,300.01 c -2.457,-1.925 -4.684,-2.305 -12.662,-3.763 -4.912,-0.843 -7.752,-1.608 -7.752,-4.37 0,-1.997 1.996,-3.915 6.369,-3.915 6.752,0 9.361,3.762 10.438,5.831 l 6.521,-6.061 c -0.766,-0.921 -1.994,-2.228 -3.914,-3.454 -2.607,-1.843 -6.828,-3.682 -12.66,-3.682 -10.514,0 -16.424,5.985 -16.424,12.507 0,3.451 1.689,8.749 10.82,10.896 1.383,0.38 7.674,1.533 8.98,1.838 1.227,0.231 3.99,0.849 3.99,3.304 0,1.918 -2.303,4.523 -7.6,4.523 -5.293,0 -8.746,-2.072 -11.049,-4.912 l -6.83,5.681 c 4.834,4.681 11.588,6.831 18.418,6.831 11.893,0 17.264,-7.136 17.264,-13.12 0.002,-3.228 -1.532,-6.291 -3.909,-8.134 z m -52.337,12.659 c -6.064,0 -9.672,-5.066 -9.672,-11.973 0,-7.672 4.219,-11.889 9.518,-11.889 5.293,0 7.979,3.988 8.67,6.519 l 8.211,-3.838 c -1.994,-4.448 -6.906,-10.892 -16.576,-10.892 -10.895,0 -19.34,8.591 -19.34,20.334 0,12.123 8.367,20.334 19.035,20.334 6.676,0 14.271,-3.681 17.264,-11.973 l -7.902,-4.146 c -1.152,3.075 -3.38,7.524 -9.208,7.524 z m -45.049,-32.072 c -11.436,0 -19.57,8.44 -19.57,20.178 0,11.74 7.982,20.49 19.953,20.49 11.588,0 19.492,-8.515 19.492,-20.49 -0.078,-12.735 -9.207,-20.178 -19.875,-20.178 z m 0.383,32.228 c -5.525,0 -10.359,-4.376 -10.359,-12.283 0,-7.054 4.143,-11.659 9.898,-11.659 6.445,0 10.131,5.368 10.281,11.738 0.23,6.37 -3.145,12.204 -9.82,12.204 z"
       id="path6"
       inkscape:connector-curvature="0"
       style="fill:#ffffff" /></g></svg>