<?xml version="1.0" ?><!DOCTYPE svg  PUBLIC '-//W3C//DTD SVG 1.1//EN'  'http://www.w3.org/Graphics/SVG/1.1/DTD/svg11.dtd'><svg enable-background="new 0 0 512 512" height="512px" id="Layer_1" version="1.1" viewBox="0 0 512 512" width="512px" xml:space="preserve" xmlns="http://www.w3.org/2000/svg" xmlns:xlink="http://www.w3.org/1999/xlink"><g><path clip-rule="evenodd" d="M25.701,0h460.897C500.509,0,512,11.492,512,25.707v460.892   c0,13.91-11.491,25.401-25.401,25.401H25.701C11.492,512,0,500.509,0,486.599V25.707C0,11.492,11.492,0,25.701,0L25.701,0z    M377.717,315.732V72.882h-41.13v38.107h-0.6c-7.854-14.819-18.746-25.707-32.656-33.266c-14.22-7.26-29.329-10.887-46.277-10.887   c-22.983,0-42.04,4.232-57.758,13c-15.729,8.773-28.43,19.96-38.103,33.266c-9.683,13.61-16.338,28.734-20.565,45.368   c-3.938,16.633-6.056,32.661-6.056,48.385c0,18.147,2.418,35.384,7.265,51.418c5.136,16.328,12.391,30.538,22.374,42.64   c9.983,12.091,22.384,21.773,36.893,29.028c14.819,7.265,32.057,10.893,52.022,10.893c16.928,0,33.256-3.938,48.385-11.802   c15.13-7.555,26.621-19.656,34.165-35.984h0.91v17.538c0,14.52-1.509,28.129-4.237,40.53c-3.018,12.091-7.854,22.684-14.199,31.447   c-6.346,8.773-14.819,15.429-24.492,20.565c-9.983,4.836-22.095,7.265-36.604,7.265c-7.254,0-14.519-0.609-22.373-2.118   c-7.865-1.52-15.129-4.237-22.084-7.564c-6.645-3.328-12.091-7.865-16.628-13.311c-4.836-5.437-7.254-12.092-7.564-19.956h-43.549   c0.61,14.21,4.237,26.312,11.192,36.294c6.955,9.973,15.429,18.147,26.011,24.192c10.282,6.046,22.074,10.582,34.774,13.311   c12.701,2.718,25.402,4.227,37.803,4.227c42.35,0,73.497-10.882,93.153-32.356C367.734,391.637,377.717,358.98,377.717,315.732   L377.717,315.732z M255.545,302.721c-14.22,0-26.311-3.018-35.994-9.063c-9.374-5.746-17.238-13.61-22.983-23.594   c-5.746-9.683-9.973-20.564-12.391-32.361c-2.428-12.096-3.637-23.888-3.637-35.989c0-12.701,1.519-24.797,4.537-36.289   c2.728-11.796,7.564-22.079,13.91-30.848c6.355-9.073,14.22-16.028,24.203-21.475c9.972-5.141,22.074-7.859,35.984-7.859   c13.61,0,25.412,2.718,34.774,8.164c9.673,5.446,17.548,12.701,23.294,21.774c6.056,9.074,10.582,19.356,13.31,30.543   c2.708,11.497,3.928,22.684,3.928,34.48c0,12.396-1.509,24.497-4.237,36.893c-3.018,12.401-7.564,23.283-13.6,32.966   c-6.056,9.983-14.22,17.848-24.513,23.594C282.166,299.703,270.055,302.721,255.545,302.721L255.545,302.721z" fill="#010101" fill-rule="evenodd"/></g></svg>